<?xml version="1.0" encoding="UTF-8" standalone="no"?>
<!-- Generator: Adobe Illustrator 12.0.0, SVG Export Plug-In . SVG Version: 6.00 Build 51448)  -->

<svg
   version="1.1"
   id="Layer_1"
   width="289.19492"
   height="94.096031"
   viewBox="0 0 289.19492 94.09603"
   overflow="visible"
   enable-background="new 0 0 301 106.066"
   xml:space="preserve"
   sodipodi:docname="Avery_Dennison_Logo.svg"
   inkscape:version="1.3 (0e150ed6c4, 2023-07-21)"
   xmlns:inkscape="http://www.inkscape.org/namespaces/inkscape"
   xmlns:sodipodi="http://sodipodi.sourceforge.net/DTD/sodipodi-0.dtd"
   xmlns="http://www.w3.org/2000/svg"
   xmlns:svg="http://www.w3.org/2000/svg"><defs
   id="defs2" /><sodipodi:namedview
   id="namedview2"
   pagecolor="#ffffff"
   bordercolor="#000000"
   borderopacity="0.25"
   inkscape:showpageshadow="2"
   inkscape:pageopacity="0.0"
   inkscape:pagecheckerboard="0"
   inkscape:deskcolor="#d1d1d1"
   inkscape:zoom="3.1096346"
   inkscape:cx="57.241453"
   inkscape:cy="46.790064"
   inkscape:window-width="1920"
   inkscape:window-height="1001"
   inkscape:window-x="-9"
   inkscape:window-y="-9"
   inkscape:window-maximized="1"
   inkscape:current-layer="g2" />&#10;&#10;<g
   id="g2"
   transform="translate(-6.538073,-6.1749715)">&#10;	<path
   fill="#e12a27"
   d="M 62.721,67.221 56.817,56.288 50.69,67.221 m -27.302,24.717 53.659,0.029 c -1.351,-0.924 -3.045,-4.538 -3.045,-4.538 l -50.244,0.02 C 18.603,87.086 17.907,79.27 24.48,79.446 l 45.111,0.028 -2.578,-4.665 H 23.076 C 12.262,75.282 11.883,91.05 23.388,91.938 Z M 97.893,79.052 70.635,29.93 c -0.062,2.201 -2.121,5.396 -2.121,5.396 L 93.793,80.9 c 2.18,4.694 -4.344,9.112 -7.375,3.269 L 64.09,43.549 61.387,48.323 83.1,87.621 c 5.657,9.243 19.593,1.939 14.793,-8.569 z M 49.584,18.372 22.023,68.012 c 1.882,-0.958 5.423,-0.668 5.423,-0.668 L 53.313,20.891 c 2.835,-4.326 10.02,-1.09 6.653,4.566 L 36.523,67.221 h 5.313 L 64.64,26.469 C 69.513,16.788 55.982,8.756 49.584,18.372 Z m 55.775,59.106 C 110.61,88.19 102.036,99.713 92.942,99.754 L 21.75,99.761 21.449,99.785 C 9.314,99.713 3.636,86.212 7.999,78.117 L 44.326,12.882 c 6.032,-9.235 19.898,-8.68 25.467,0.107 L 104.248,75.4 Z"
   id="path1" />&#10;	<path
   fill="#231F20"
   d="m 186.139,50.552 c 0,0 14.307,-0.017 14.398,-0.017 5.434,0.054 6.368,4.279 6.322,6.734 -0.077,4.3 -2.773,5.256 -5.366,5.902 1.859,2.692 4.872,6.403 6.824,9.021 h -7.729 l -7.565,-12.133 c 0,0 3.678,0.04 5.434,0.003 2.972,-0.067 2.889,-5.016 -0.072,-5.002 l -5.863,-0.018 c 0,0 -0.048,17.149 0,17.149 -2.178,0 -4.204,0 -6.382,0 -10e-4,-4.421 -10e-4,-21.639 -10e-4,-21.639 m -61.45,33.198 h 3.617 c 4.464,0 7.358,1.809 7.358,5.544 0,4.107 -2.4,5.688 -7.358,5.774 h -3.617 m -6.019,4.597 h 10.795 c 7.63,0 12.31,-3.62 12.31,-10.343 0,-6.35 -4.61,-10.168 -12.31,-10.168 H 118.67 Z m 25.467,0.045 h 19.539 v -4.614 h -13.611 v -3.923 h 12.162 v -4.151 h -12.162 v -3.604 h 13.272 v -4.296 h -19.2 m 22.02,20.669 h 5.693 V 86.906 h 0.07 l 9.117,12.885 h 6.688 v -20.67 h -5.521 v 12.736 h -0.679 l -8.682,-12.736 h -6.688 m 92.446,16.387 c -4.311,0 -5.965,-3.157 -5.965,-6.313 0,-3.154 1.654,-6.312 5.965,-6.312 4.314,0 5.969,3.157 5.969,6.312 -10e-4,3.156 -1.655,6.313 -5.969,6.313 m -12.653,-6.314 c 0,6.164 4.566,11.077 12.652,11.077 8.089,0 12.657,-4.913 12.657,-11.077 0,-6.161 -4.568,-11.074 -12.657,-11.074 -8.085,0 -12.652,4.913 -12.652,11.074 z m -53.846,10.508 h 5.694 V 86.82 h 0.069 l 9.117,12.882 h 6.688 v -20.67 h -5.521 v 12.739 h -0.679 l -8.683,-12.739 h -6.688 m 25.81,20.823 h 6.167 V 79.043 h -6.167 z m 9.335,-0.771 c 2.057,0.602 4.741,0.902 6.896,0.902 5.139,0 10.181,-1.477 10.181,-6.929 0,-7.591 -10.942,-5.302 -10.942,-8.704 0,-1.838 2.585,-1.96 4.145,-1.96 1.756,0 3.547,0.301 5.139,0.964 l 0.397,-4.339 c -1.557,-0.479 -3.745,-0.78 -5.968,-0.78 -4.642,0 -10.078,1.386 -10.078,6.445 0,7.652 10.939,5.182 10.939,9.099 0,1.686 -1.854,2.049 -3.813,2.049 -2.553,0 -4.775,-0.604 -6.364,-1.386 m 46.391,5.257 h 5.692 V 86.82 h 0.069 l 9.118,12.882 h 6.687 v -20.67 h -5.52 v 12.739 h -0.68 l -8.682,-12.739 h -6.686 m -143.398,-22.57 0.072,-0.261 2.902,6.406 h -5.689 m -10.241,9.399 h 5.968 l 2.193,-4.74 h 9.84 l 2.204,4.74 h 6.339 L 134.553,50.5 h -6.94 z M 163.689,50.5 h -6.543 l -5.804,14.993 -6.24,-14.993 h -6.542 l 9.342,21.506 h 6.566 M 231.183,50.5 h -7.563 l -5.094,8.735 -5.089,-8.735 h -7.565 l 9.321,13.493 v 8.013 h 6.668 v -8.013 m -57.442,8.199 h 19.462 v -4.831 h -13.555 v -4.106 h 12.11 v -4.347 h -12.11 v -3.775 h 13.22 v -4.499 h -19.127"
   id="path2"
   style="fill:#000000" />&#10;</g>&#10;</svg>
