<?xml version="1.0" encoding="utf-8"?>
<!-- Generator: Adobe Illustrator 25.0.1, SVG Export Plug-In . SVG Version: 6.00 Build 0)  -->
<svg version="1.0" id="Layer_1" xmlns="http://www.w3.org/2000/svg" xmlns:xlink="http://www.w3.org/1999/xlink" x="0px" y="0px"
	 viewBox="0 0 700.9 500.9" style="enable-background:new 0 0 700.9 500.9;" xml:space="preserve">
<style type="text/css">
	.st0{fill:#E31F26;}
</style>
<g>
	<rect x="474.1" y="296.8" class="st0" width="11.2" height="39.7"/>
	<polygon class="st0" points="375.2,244.1 410.7,244.1 410.7,252.5 385.9,252.5 385.9,259.6 408.8,259.6 408.8,267.5 385.9,267.5 
		385.9,275.5 410.7,275.5 410.7,283.9 375.2,283.9 	"/>
	<path class="st0" d="M519.6,305.6v-8.9c-3.3-0.8-7.2-1.2-11.8-1.2c-6.5-0.2-17.9,1.5-17.4,13.1c0.6,7.2,5.8,9,13,11.4
		c6.2,2,7.5,2.5,7.2,5.3c-0.5,2.9-4,3.1-6.1,3.2c-4.1,0-9.9-0.9-13.9-2.2v9.6c0,0,7.5,1.5,14.4,1.6c5.2,0,16.5-1.7,17.5-12.5
		c0.2-7.2-4.2-9.8-7.6-11.3c-8.8-3.6-11.1-3.4-12.2-5.2c-1.4-3.1,2.2-4.5,6.5-4.2C510.5,304.5,513.1,304.7,519.6,305.6z"/>
	<path class="st0" d="M350.3,269.2c0.4,0.9,0.7,1.8,0.9,2.8c0.2-0.9,0.4-1.8,0.8-2.8l10-25.1H374l-17,39.7h-11.9l-17-39.7h12.2
		L350.3,269.2z"/>
	<polygon class="st0" points="405.6,336.5 419.6,336.5 419.6,296.8 409.1,296.8 409.1,324.3 392.4,296.8 378.5,296.8 378.5,336.5 
		389,336.5 389,308.9 	"/>
	<path class="st0" d="M456.1,283.9l-13.2-16.2c4,0.2,10.4-3.1,10.6-10.6c0.3-10.1-4.7-12.9-12.4-12.9h-25.8v39.7h11.1v-31.4H437
		c2.1,0,5.5,0.2,5.5,4.7c0,4-2.8,4.6-5.6,4.6h-9.5l15,22L456.1,283.9L456.1,283.9z"/>
	<polygon class="st0" points="338.3,296.8 373.8,296.8 373.8,305.1 348.9,305.1 348.9,312.2 371.8,312.2 371.8,320.1 348.9,320.1 
		348.9,328.1 373.8,328.1 373.8,336.5 338.3,336.5 	"/>
	<path class="st0" d="M473.6,258.9l-9-14.8h-12.8l17.5,25.4v14.3h11.1v-14.3l17.8-25.4h-12.9l-9.2,14.8c-0.9,1.4-1.2,2.4-1.2,2.4
		S474.5,260.3,473.6,258.9z"/>
	<path class="st0" d="M315.3,257.2l4,10.2h-10.7l4-10.2c0,0,0.8-2.1,1.3-4.1C314.5,255.1,315.3,257.2,315.3,257.2z M305.4,275.4
		h16.9l3.4,8.5h11.9l-16.6-39.7h-14l-16.7,39.7h11.9L305.4,275.4z"/>
	<polygon class="st0" points="453.4,336.5 467.3,336.5 467.3,296.8 456.8,296.8 456.8,324.3 440.1,296.8 426.2,296.8 426.2,336.5 
		436.7,336.5 436.7,308.9 	"/>
	<polygon class="st0" points="602.7,336.5 616.6,336.5 616.6,296.8 606.1,296.8 606.1,324.3 589.5,296.8 575.5,296.8 575.5,336.5 
		586,336.5 586,308.9 	"/>
	<g>
		<g>
			<path class="st0" d="M266.5,288.9l-56.5-99c-3.9-7-3.8-6.5-4.8-8.2c-3-5.4-7.4-10.6-12.2-13.4c-6-3.5-14.5-5.3-23.6-2.8
				c-7.9,2.2-13.7,7-20,17.9l-7.7,13.3l-51.3,91.6c-3.2,6.2-2.5,4.9-3.6,7.2c-1.5,4.3-2.5,6.8-2.5,11.5c0,13.9,10.8,29.3,32.2,29.4
				c3,0.1-1.3,0.1,6.2,0.2c11,0.1,89.1,0,111.3,0c3.4-0.2,2.4,0.1,6.7-0.3c15.1-1,26.5-7.6,30.7-22.1
				C274.1,304,271.1,296.9,266.5,288.9z M162.3,188.3c3.4-5.9,6.5-8.3,10.5-9.5c9.2-2.8,18.2,2.5,20.8,11.3
				c1.1,3.9,0.7,8.3-2.4,14.3l-40.9,71.9h-10.9l43.9-77.1c1.4-2.6,1.8-4.6,1.4-6.5c-1-3.7-4.6-6.2-9-4.9c-1.7,0.6-3,1.6-4.7,4.6
				l-47.4,83.8H122c-2.9,0.1-6.4,0.5-10,1.7L162.3,188.3z M178.1,255.3l12.2,21.1h-24.1L178.1,255.3z M116.6,322.8
				c-5.1-0.3-8.6-0.6-13-4.2c-7.2-6.8-7.2-17.3-0.7-23.6c3.2-3.1,7.6-4.9,12.9-5h81.8l5.5,9.5h-88.3c-1.7,0-4,0.8-5.4,2.1
				c-2.8,2.8-2.6,7.2,0.3,9.9c1.4,1.4,3.3,1.9,5.2,1.9h96.2c2.1,3.4,3.5,5.9,7.7,9.5L116.6,322.8L116.6,322.8z M257.7,310.3
				c-2.1,9-11.8,14.6-20.7,11.8c-5-1.6-7.7-5.1-10.5-9.5L186,241.7l5.5-9.6l43.3,75.9c2.1,3.4,3.4,4.6,5.2,5.1
				c3.4,1.2,7.7-1.1,8.7-4.9c0.5-1.8,0.2-3.7-1.5-6.8L199.5,218c1.5-3.3,3.4-6.9,3.9-11.8l51.7,90.6
				C257.4,300.7,259,304.7,257.7,310.3z"/>
		</g>
	</g>
	<g>
		<g>
			<path class="st0" d="M315.8,296.8h-24.2v39.7h24.5c13.8,0,18-10.6,18.1-19.8C334.3,308.4,330,296.8,315.8,296.8z M311.4,327.6
				h-8.9v-22h9.2c6.4,0,11.5,2.6,11.5,11C323.1,326,317.8,327.6,311.4,327.6z"/>
		</g>
	</g>
	<g>
		<g>
			<path class="st0" d="M547.8,295c-14.7-0.3-22.9,8.1-23,21.4c-0.1,13.3,8.2,21.7,23,21.4c14.8,0.3,23.1-8.1,23-21.4
				C570.9,303,562.6,294.6,547.8,295z M547.8,327.8c-7.9,0-12.1-4.6-12.1-11.8s4.2-11.9,12.1-11.9c8,0,12.1,4.6,12.1,11.9
				C560,323.2,555.8,327.8,547.8,327.8z"/>
		</g>
	</g>
</g>
</svg>
