<svg version="1.1" id="Layer_1" xmlns="http://www.w3.org/2000/svg" xmlns:xlink="http://www.w3.org/1999/xlink" x="0px" y="0px"
	 width="100%" viewBox="0 0 494 276" enable-background="new 0 0 494 276" xml:space="preserve">
<path fill="#1F1F1F" opacity="1.000000" stroke="none" 
	d="
M465.000000,277.000000 
	C310.000031,277.000000 155.500061,277.000000 1.000062,277.000000 
	C1.000041,185.000046 1.000041,93.000092 1.000021,1.000099 
	C165.666595,1.000066 330.333191,1.000066 494.999817,1.000033 
	C494.999878,92.999908 494.999878,184.999817 494.999939,276.999878 
	C485.166656,277.000000 475.333344,277.000000 465.000000,277.000000 
M381.556763,146.750244 
	C382.388733,146.528976 383.220673,146.307693 384.279480,146.932480 
	C384.293640,155.923584 384.317322,164.914673 384.319458,173.905777 
	C384.321930,184.385574 384.313904,184.388779 394.685425,183.805328 
	C394.978210,183.788864 395.257233,183.528351 395.760681,183.269562 
	C395.760681,161.031784 395.760681,138.698257 395.760681,115.959846 
	C392.379120,115.959846 389.365295,116.288048 386.451721,115.887314 
	C381.355072,115.186333 379.358612,117.410378 377.770508,122.140488 
	C372.737915,137.129822 367.082520,151.910080 361.421021,167.448822 
	C360.798370,165.995773 360.440491,165.263336 360.164459,164.501251 
	C354.847443,149.823288 349.602936,135.118393 344.146820,120.492409 
	C343.502655,118.765633 341.852173,116.362541 340.421448,116.177147 
	C336.043060,115.609810 331.544434,115.970955 326.861877,115.970955 
	C326.861877,138.877640 326.861877,161.227600 326.861877,183.944702 
	C328.945343,183.944702 330.615326,183.764786 332.232971,183.979355 
	C336.615234,184.560638 338.416718,183.247269 338.184631,178.369797 
	C337.757721,169.398773 338.063324,160.392883 338.063538,151.401535 
	C338.063629,147.428162 338.063568,143.454788 338.063568,139.481415 
	C343.993073,152.598343 348.934174,165.770386 353.601593,179.038681 
	C354.785187,182.403290 356.062073,184.350403 360.139648,184.070297 
	C364.016571,183.803970 367.281982,184.313721 368.927917,179.252869 
	C372.461945,168.386322 376.759674,157.768127 381.556763,146.750244 
M80.387466,169.992828 
	C66.962440,178.929596 51.847385,173.046783 48.470371,157.356171 
	C47.679562,153.681839 47.616489,149.725250 47.939915,145.960464 
	C48.886066,134.946945 55.398369,127.554840 64.995316,126.036293 
	C74.604523,124.515808 80.880943,128.291977 85.827103,138.469330 
	C89.796654,138.469330 93.688652,138.469330 97.938240,138.469330 
	C96.994698,129.952255 93.438980,123.526917 86.609421,119.075607 
	C68.861320,107.507912 44.019543,116.044495 37.155888,136.575439 
	C29.053015,160.813217 42.006184,190.638046 75.062134,185.124512 
	C89.111725,182.781143 98.901161,171.471848 97.630241,158.832275 
	C95.895706,158.832275 94.092445,158.966492 92.315994,158.805283 
	C88.182358,158.430191 84.930809,158.777908 84.385101,164.150055 
	C84.194252,166.028854 82.151733,167.719574 80.387466,169.992828 
M200.080933,184.895691 
	C207.990814,186.041122 214.723221,183.742783 220.413254,176.887695 
	C220.725571,179.829514 220.924576,181.703949 221.124146,183.583694 
	C224.829361,183.583694 228.219421,183.583694 231.806595,183.583694 
	C231.806595,171.090195 232.070374,158.948029 231.697403,146.825455 
	C231.505524,140.589188 227.624039,136.359146 221.702011,134.410385 
	C214.664536,132.094589 207.559647,132.398087 200.616776,134.870499 
	C193.530685,137.393906 189.159012,143.177612 189.304138,150.497894 
	C193.148148,149.832489 198.413467,150.483673 200.270813,148.272385 
	C204.069839,143.749405 208.203644,142.691788 213.404327,143.008224 
	C216.736984,143.210999 219.339859,144.575836 219.771378,148.137085 
	C220.267670,152.232758 217.065506,153.080429 214.056152,153.631882 
	C209.484665,154.469589 204.781097,154.708557 200.287231,155.821838 
	C191.505035,157.997467 187.775146,162.251450 187.520844,169.518707 
	C187.253265,177.165298 190.792984,181.747330 200.080933,184.895691 
M412.474213,181.106781 
	C421.171143,186.446167 430.076935,186.645309 438.980621,181.826996 
	C443.908813,179.160065 447.278412,175.162582 448.286835,169.014816 
	C442.785187,168.983719 438.228149,168.010910 433.987854,172.399704 
	C430.585632,175.921051 425.315826,175.266861 420.790741,173.400177 
	C416.306580,171.550400 414.579468,167.796463 414.254395,162.586548 
	C425.887970,162.586548 437.297058,162.586548 448.951569,162.586548 
	C448.951569,159.225464 449.148010,156.399185 448.916229,153.608459 
	C448.081207,143.555267 442.083618,136.303009 432.718140,133.783768 
	C422.966827,131.160736 412.521790,134.774948 407.040070,142.650558 
	C399.885956,152.928894 400.432831,172.647491 412.474213,181.106781 
M180.523117,147.189041 
	C176.572327,137.714706 169.690231,132.970734 159.827850,132.923355 
	C144.615768,132.850266 134.621689,144.546768 135.612564,161.263550 
	C136.543350,176.966705 146.875626,186.270096 162.057068,185.074722 
	C172.038071,184.288834 180.358185,177.318787 180.894760,168.970688 
	C176.134750,169.184280 171.602554,167.781372 167.279465,172.247711 
	C163.621338,176.027039 158.037476,175.422150 153.254578,173.058548 
	C149.201172,171.055420 147.452011,167.609390 147.665787,162.610596 
	C159.211624,162.610596 170.457367,162.610596 182.670349,162.610596 
	C181.998398,157.345169 181.398895,152.647354 180.523117,147.189041 
M277.560944,142.127731 
	C273.113800,148.262741 272.058746,155.232117 272.764191,162.542053 
	C274.477753,180.297699 289.576782,189.710236 306.129822,183.278214 
	C312.470001,180.814606 316.811615,176.397568 318.566528,169.187347 
	C313.080780,168.932892 308.582306,167.888962 304.288300,172.271713 
	C300.722534,175.911148 295.353516,175.321625 290.670593,173.267624 
	C286.422302,171.404297 284.566162,167.937607 284.569641,162.657394 
	C296.098480,162.657394 307.465393,162.657394 318.727661,162.657394 
	C320.235870,148.872864 315.797089,139.092697 306.536774,134.947952 
	C296.789581,130.585297 285.696106,133.154510 277.560944,142.127731 
M245.078995,125.878296 
	C245.078995,128.486954 245.078995,131.095612 245.078995,134.268494 
	C241.767395,134.268494 239.054733,134.268494 236.411377,134.268494 
	C235.585190,143.676239 235.585190,143.676239 245.103195,145.496216 
	C245.103195,153.741013 244.960312,162.051224 245.145462,170.354111 
	C245.313095,177.872513 248.371765,182.467636 254.382843,183.325089 
	C259.036621,183.988937 263.860870,183.457657 268.735779,183.457657 
	C268.735779,180.139603 268.735779,177.042145 268.735779,173.233597 
	C266.723663,173.233597 264.942566,173.130188 263.177551,173.254578 
	C259.184967,173.535919 257.270630,171.710831 257.274078,167.751678 
	C257.280548,160.281616 257.275940,152.811539 257.275940,145.280960 
	C260.820221,144.894577 265.168243,145.660706 266.986572,143.865112 
	C268.720886,142.152481 267.818451,137.769653 268.117188,134.035370 
	C264.110687,134.035370 260.850952,134.035370 256.976440,134.035370 
	C256.976440,128.829422 256.976440,124.113792 256.976440,119.037224 
	C253.436798,119.961922 250.467545,120.461678 247.750961,121.576881 
	C246.589798,122.053566 245.955399,123.813370 245.078995,125.878296 
M127.899925,133.260315 
	C124.069687,135.179688 120.239449,137.099060 116.504547,138.970673 
	C116.395958,138.097031 116.157425,136.177994 115.926430,134.319611 
	C112.126968,134.319611 108.559914,134.319611 105.077522,134.319611 
	C105.077522,151.016373 105.077522,167.369125 105.077522,183.624954 
	C109.109879,183.624954 112.699448,183.624954 116.813141,183.624954 
	C116.813141,175.530457 116.764053,167.746628 116.824860,159.963669 
	C116.912086,148.799545 120.159065,145.536224 131.391037,145.114517 
	C132.012711,145.091156 132.626511,144.858246 133.714859,144.619644 
	C133.714859,142.407913 133.502777,140.248108 133.760376,138.145859 
	C134.249832,134.151260 132.693481,132.525726 127.899925,133.260315 
z"/>
<path fill="#F8F8F8" opacity="1.000000" stroke="none" 
	d="
M380.744720,147.048264 
	C376.759674,157.768127 372.461945,168.386322 368.927917,179.252869 
	C367.281982,184.313721 364.016571,183.803970 360.139648,184.070297 
	C356.062073,184.350403 354.785187,182.403290 353.601593,179.038681 
	C348.934174,165.770386 343.993073,152.598343 338.063568,139.481415 
	C338.063568,143.454788 338.063629,147.428162 338.063538,151.401535 
	C338.063324,160.392883 337.757721,169.398773 338.184631,178.369797 
	C338.416718,183.247269 336.615234,184.560638 332.232971,183.979355 
	C330.615326,183.764786 328.945343,183.944702 326.861877,183.944702 
	C326.861877,161.227600 326.861877,138.877640 326.861877,115.970955 
	C331.544434,115.970955 336.043060,115.609810 340.421448,116.177147 
	C341.852173,116.362541 343.502655,118.765633 344.146820,120.492409 
	C349.602936,135.118393 354.847443,149.823288 360.164459,164.501251 
	C360.440491,165.263336 360.798370,165.995773 361.421021,167.448822 
	C367.082520,151.910080 372.737915,137.129822 377.770508,122.140488 
	C379.358612,117.410378 381.355072,115.186333 386.451721,115.887314 
	C389.365295,116.288048 392.379120,115.959846 395.760681,115.959846 
	C395.760681,138.698257 395.760681,161.031784 395.760681,183.269562 
	C395.257233,183.528351 394.978210,183.788864 394.685425,183.805328 
	C384.313904,184.388779 384.321930,184.385574 384.319458,173.905777 
	C384.317322,164.914673 384.293640,155.923584 384.272644,146.139771 
	C384.265839,143.319794 384.265839,141.292511 384.265839,139.265228 
	C383.928131,139.229019 383.590424,139.192825 383.252716,139.156631 
	C382.416718,141.787170 381.580719,144.417725 380.744720,147.048264 
z"/>
<path fill="#F8F8F8" opacity="1.000000" stroke="none" 
	d="
M80.671127,169.744507 
	C82.151733,167.719574 84.194252,166.028854 84.385101,164.150055 
	C84.930809,158.777908 88.182358,158.430191 92.315994,158.805283 
	C94.092445,158.966492 95.895706,158.832275 97.630241,158.832275 
	C98.901161,171.471848 89.111725,182.781143 75.062134,185.124512 
	C42.006184,190.638046 29.053015,160.813217 37.155888,136.575439 
	C44.019543,116.044495 68.861320,107.507912 86.609421,119.075607 
	C93.438980,123.526917 96.994698,129.952255 97.938240,138.469330 
	C93.688652,138.469330 89.796654,138.469330 85.827103,138.469330 
	C80.880943,128.291977 74.604523,124.515808 64.995316,126.036293 
	C55.398369,127.554840 48.886066,134.946945 47.939915,145.960464 
	C47.616489,149.725250 47.679562,153.681839 48.470371,157.356171 
	C51.847385,173.046783 66.962440,178.929596 80.671127,169.744507 
z"/>
<path fill="#F9F9F9" opacity="1.000000" stroke="none" 
	d="
M199.667542,184.801361 
	C190.792984,181.747330 187.253265,177.165298 187.520844,169.518707 
	C187.775146,162.251450 191.505035,157.997467 200.287231,155.821838 
	C204.781097,154.708557 209.484665,154.469589 214.056152,153.631882 
	C217.065506,153.080429 220.267670,152.232758 219.771378,148.137085 
	C219.339859,144.575836 216.736984,143.210999 213.404327,143.008224 
	C208.203644,142.691788 204.069839,143.749405 200.270813,148.272385 
	C198.413467,150.483673 193.148148,149.832489 189.304138,150.497894 
	C189.159012,143.177612 193.530685,137.393906 200.616776,134.870499 
	C207.559647,132.398087 214.664536,132.094589 221.702011,134.410385 
	C227.624039,136.359146 231.505524,140.589188 231.697403,146.825455 
	C232.070374,158.948029 231.806595,171.090195 231.806595,183.583694 
	C228.219421,183.583694 224.829361,183.583694 221.124146,183.583694 
	C220.924576,181.703949 220.725571,179.829514 220.413254,176.887695 
	C214.723221,183.742783 207.990814,186.041122 199.667542,184.801361 
M202.690063,174.052719 
	C213.166718,176.938080 221.573532,170.349854 219.221283,161.152924 
	C214.635895,161.908310 210.019104,162.494232 205.483078,163.459595 
	C199.576187,164.716705 198.291962,168.695786 202.690063,174.052719 
z"/>
<path fill="#F8F8F8" opacity="1.000000" stroke="none" 
	d="
M412.163574,180.916382 
	C400.432831,172.647491 399.885956,152.928894 407.040070,142.650558 
	C412.521790,134.774948 422.966827,131.160736 432.718140,133.783768 
	C442.083618,136.303009 448.081207,143.555267 448.916229,153.608459 
	C449.148010,156.399185 448.951569,159.225464 448.951569,162.586548 
	C437.297058,162.586548 425.887970,162.586548 414.254395,162.586548 
	C414.579468,167.796463 416.306580,171.550400 420.790741,173.400177 
	C425.315826,175.266861 430.585632,175.921051 433.987854,172.399704 
	C438.228149,168.010910 442.785187,168.983719 448.286835,169.014816 
	C447.278412,175.162582 443.908813,179.160065 438.980621,181.826996 
	C430.076935,186.645309 421.171143,186.446167 412.163574,180.916382 
M431.308807,153.873932 
	C433.117523,153.873932 434.926208,153.873932 436.734100,153.873932 
	C436.723297,147.241425 433.469482,143.781860 427.209412,143.439209 
	C420.338837,143.063141 415.692017,146.901901 415.092560,153.455994 
	C415.376343,153.580566 415.659271,153.811676 415.944000,153.813858 
	C420.748505,153.850571 425.553284,153.858795 431.308807,153.873932 
z"/>
<path fill="#F8F8F8" opacity="1.000000" stroke="none" 
	d="
M180.661255,147.569290 
	C181.398895,152.647354 181.998398,157.345169 182.670349,162.610596 
	C170.457367,162.610596 159.211624,162.610596 147.665787,162.610596 
	C147.452011,167.609390 149.201172,171.055420 153.254578,173.058548 
	C158.037476,175.422150 163.621338,176.027039 167.279465,172.247711 
	C171.602554,167.781372 176.134750,169.184280 180.894760,168.970688 
	C180.358185,177.318787 172.038071,184.288834 162.057068,185.074722 
	C146.875626,186.270096 136.543350,176.966705 135.612564,161.263550 
	C134.621689,144.546768 144.615768,132.850266 159.827850,132.923355 
	C169.690231,132.970734 176.572327,137.714706 180.661255,147.569290 
M168.959671,153.839920 
	C168.949371,151.958939 169.524002,149.812653 168.814621,148.248779 
	C166.986588,144.218765 161.580170,142.542160 156.212738,143.827957 
	C151.236084,145.020126 148.555557,148.286346 148.176086,153.874435 
	C154.811401,153.874435 161.431091,153.874435 168.959671,153.839920 
z"/>
<path fill="#F9F9F9" opacity="1.000000" stroke="none" 
	d="
M277.782959,141.841797 
	C285.696106,133.154510 296.789581,130.585297 306.536774,134.947952 
	C315.797089,139.092697 320.235870,148.872864 318.727661,162.657394 
	C307.465393,162.657394 296.098480,162.657394 284.569641,162.657394 
	C284.566162,167.937607 286.422302,171.404297 290.670593,173.267624 
	C295.353516,175.321625 300.722534,175.911148 304.288300,172.271713 
	C308.582306,167.888962 313.080780,168.932892 318.566528,169.187347 
	C316.811615,176.397568 312.470001,180.814606 306.129822,183.278214 
	C289.576782,189.710236 274.477753,180.297699 272.764191,162.542053 
	C272.058746,155.232117 273.113800,148.262741 277.782959,141.841797 
M285.080750,151.157166 
	C285.599304,152.059540 286.097382,153.732758 286.639496,153.747177 
	C293.378540,153.926315 300.124023,153.864288 306.892609,153.864288 
	C307.396118,148.849503 305.205322,145.971558 301.380371,144.287720 
	C295.424164,141.665665 289.091980,144.168655 285.080750,151.157166 
z"/>
<path fill="#F9F9F9" opacity="1.000000" stroke="none" 
	d="
M245.080322,125.434219 
	C245.955399,123.813370 246.589798,122.053566 247.750961,121.576881 
	C250.467545,120.461678 253.436798,119.961922 256.976440,119.037224 
	C256.976440,124.113792 256.976440,128.829422 256.976440,134.035370 
	C260.850952,134.035370 264.110687,134.035370 268.117188,134.035370 
	C267.818451,137.769653 268.720886,142.152481 266.986572,143.865112 
	C265.168243,145.660706 260.820221,144.894577 257.275940,145.280960 
	C257.275940,152.811539 257.280548,160.281616 257.274078,167.751678 
	C257.270630,171.710831 259.184967,173.535919 263.177551,173.254578 
	C264.942566,173.130188 266.723663,173.233597 268.735779,173.233597 
	C268.735779,177.042145 268.735779,180.139603 268.735779,183.457657 
	C263.860870,183.457657 259.036621,183.988937 254.382843,183.325089 
	C248.371765,182.467636 245.313095,177.872513 245.145462,170.354111 
	C244.960312,162.051224 245.103195,153.741013 245.103195,145.496216 
	C235.585190,143.676239 235.585190,143.676239 236.411377,134.268494 
	C239.054733,134.268494 241.767395,134.268494 245.078995,134.268494 
	C245.078995,131.095612 245.078995,128.486954 245.080322,125.434219 
z"/>
<path fill="#F8F8F8" opacity="1.000000" stroke="none" 
	d="
M128.315445,133.231415 
	C132.693481,132.525726 134.249832,134.151260 133.760376,138.145859 
	C133.502777,140.248108 133.714859,142.407913 133.714859,144.619644 
	C132.626511,144.858246 132.012711,145.091156 131.391037,145.114517 
	C120.159065,145.536224 116.912086,148.799545 116.824860,159.963669 
	C116.764053,167.746628 116.813141,175.530457 116.813141,183.624954 
	C112.699448,183.624954 109.109879,183.624954 105.077522,183.624954 
	C105.077522,167.369125 105.077522,151.016373 105.077522,134.319611 
	C108.559914,134.319611 112.126968,134.319611 115.926430,134.319611 
	C116.157425,136.177994 116.395958,138.097031 116.504547,138.970673 
	C120.239449,137.099060 124.069687,135.179688 128.315445,133.231415 
z"/>
<path fill="#1A1A1A" opacity="1.000000" stroke="none" 
	d="
M381.150757,146.899261 
	C381.580719,144.417725 382.416718,141.787170 383.252716,139.156631 
	C383.590424,139.192825 383.928131,139.229019 384.265839,139.265228 
	C384.265839,141.292511 384.265839,143.319794 384.159241,145.716751 
	C383.220673,146.307693 382.388733,146.528976 381.150757,146.899261 
z"/>
<path fill="#272727" opacity="1.000000" stroke="none" 
	d="
M202.342407,173.840332 
	C198.291962,168.695786 199.576187,164.716705 205.483078,163.459595 
	C210.019104,162.494232 214.635895,161.908310 219.221283,161.152924 
	C221.573532,170.349854 213.166718,176.938080 202.342407,173.840332 
z"/>
<path fill="#2A2A2A" opacity="1.000000" stroke="none" 
	d="
M430.833374,153.873627 
	C425.553284,153.858795 420.748505,153.850571 415.944000,153.813858 
	C415.659271,153.811676 415.376343,153.580566 415.094971,153.450500 
	C415.692017,146.901901 420.338837,143.063141 427.209412,143.439209 
	C433.469482,143.781860 436.723297,147.241425 436.734100,153.873932 
	C434.926208,153.873932 433.117523,153.873932 430.833374,153.873627 
z"/>
<path fill="#2C2C2C" opacity="1.000000" stroke="none" 
	d="
M168.505219,153.857178 
	C161.431091,153.874435 154.811401,153.874435 148.176086,153.874435 
	C148.555557,148.286346 151.236084,145.020126 156.212738,143.827957 
	C161.580170,142.542160 166.986588,144.218765 168.814621,148.248779 
	C169.524002,149.812653 168.949371,151.958939 168.505219,153.857178 
z"/>
<path fill="#2B2B2B" opacity="1.000000" stroke="none" 
	d="
M285.241882,150.783478 
	C289.091980,144.168655 295.424164,141.665665 301.380371,144.287720 
	C305.205322,145.971558 307.396118,148.849503 306.892609,153.864288 
	C300.124023,153.864288 293.378540,153.926315 286.639496,153.747177 
	C286.097382,153.732758 285.599304,152.059540 285.241882,150.783478 
z"/>
</svg>