<?xml version="1.0" standalone="no"?>
<!DOCTYPE svg PUBLIC "-//W3C//DTD SVG 20010904//EN"
 "http://www.w3.org/TR/2001/REC-SVG-20010904/DTD/svg10.dtd">
<svg version="1.0" xmlns="http://www.w3.org/2000/svg"
 width="1536.000000pt" height="1024.000000pt" viewBox="0 0 1536.000000 1024.000000"
 preserveAspectRatio="xMidYMid meet">

<g transform="translate(0.000000,1024.000000) scale(0.100000,-0.100000)"
fill="#000000" stroke="none">
<path d="M370 6909 c-122 -7 -266 -35 -335 -63 l-35 -15 0 -318 0 -319 73 71
c84 82 166 126 280 149 256 53 508 -30 634 -211 49 -70 68 -113 98 -218 l22
-80 267 -3 266 -2 0 27 c0 16 -11 70 -25 122 -78 289 -222 511 -431 663 -139
101 -363 182 -533 194 -42 2 -94 6 -116 8 -22 1 -96 -1 -165 -5z"/>
<path d="M7235 6641 l-230 -58 -5 -234 -5 -234 -119 -3 c-67 -1 -126 -7 -133
-14 -10 -8 -13 -52 -13 -178 0 -93 3 -175 6 -184 5 -13 26 -16 124 -16 84 0
121 -4 127 -12 4 -7 11 -287 14 -623 5 -543 7 -617 23 -669 59 -198 190 -326
379 -370 139 -32 450 -9 478 36 5 7 9 90 9 184 0 215 3 209 -113 201 -137 -10
-209 23 -251 112 -20 45 -21 59 -24 579 -2 395 0 538 9 548 9 11 48 14 183 14
120 0 176 4 184 12 18 18 17 352 -1 367 -8 6 -81 12 -193 13 l-179 3 -3 279
c-2 263 -7 308 -31 305 -3 0 -109 -26 -236 -58z"/>
<path d="M3720 6126 c-308 -57 -541 -264 -663 -591 -59 -157 -71 -233 -72
-455 0 -228 11 -301 70 -467 98 -275 304 -478 566 -558 76 -23 213 -45 284
-45 161 0 378 67 495 154 125 94 240 250 295 401 40 108 46 105 -196 105
l-198 0 -39 -52 c-100 -135 -197 -188 -348 -188 -247 0 -422 182 -436 455 l-3
60 629 3 c444 1 633 5 643 13 19 16 17 249 -2 362 -52 296 -169 517 -347 653
-174 135 -441 194 -678 150z m321 -405 c71 -27 139 -86 178 -154 33 -59 69
-172 73 -232 l3 -40 -407 -3 -408 -2 0 37 c1 142 102 313 221 374 105 53 231
61 340 20z"/>
<path d="M5613 6125 c-216 -38 -413 -158 -517 -314 -74 -110 -133 -293 -106
-326 19 -23 421 -22 444 1 9 8 16 23 16 32 1 30 36 97 70 130 130 131 422 129
538 -2 81 -93 78 -283 -5 -313 -15 -6 -93 -20 -173 -33 -190 -29 -374 -66
-480 -96 -226 -65 -391 -201 -461 -379 -20 -51 -23 -78 -24 -185 0 -146 12
-203 67 -318 125 -264 444 -374 798 -275 134 37 264 137 323 246 l22 42 5
-107 c5 -88 10 -113 27 -135 l20 -28 188 -3 c166 -2 190 0 207 15 18 17 19 39
16 753 -4 732 -4 735 -27 820 -31 115 -81 206 -149 274 -98 97 -196 150 -345
187 -110 27 -339 34 -454 14z m522 -1135 c10 -16 -16 -231 -36 -296 -53 -171
-213 -284 -405 -284 -178 0 -288 92 -288 240 0 75 22 126 76 176 65 62 127 84
368 134 187 39 274 48 285 30z"/>
<path d="M8723 6126 c-184 -35 -314 -104 -449 -240 -57 -58 -107 -120 -137
-171 -256 -434 -208 -1095 103 -1429 195 -209 508 -312 797 -262 109 20 155
33 222 63 177 81 311 214 395 394 49 103 65 167 46 179 -24 15 -393 13 -411
-2 -8 -7 -27 -31 -42 -54 -76 -114 -193 -174 -341 -174 -125 0 -226 41 -304
124 -82 86 -127 199 -134 331 l-3 60 635 5 c349 3 641 9 649 14 23 15 8 304
-23 436 -89 382 -284 614 -594 706 -107 32 -296 41 -409 20z m308 -402 c139
-54 237 -200 256 -381 l6 -53 -413 0 -413 0 6 58 c12 133 89 268 188 332 34
22 65 40 68 40 3 1 29 7 56 15 62 19 185 13 246 -11z"/>
<path d="M2727 6119 c-152 -22 -271 -119 -374 -305 l-38 -69 -5 151 c-4 120
-9 156 -23 177 l-17 27 -193 0 c-137 0 -196 -3 -205 -12 -9 -9 -12 -246 -12
-1003 0 -948 1 -993 18 -1008 16 -15 47 -17 229 -17 188 0 212 2 226 18 14 15
16 82 19 577 4 548 5 562 27 635 70 231 218 339 467 340 56 0 73 3 78 16 3 9
6 116 6 239 0 212 -1 225 -19 235 -23 12 -100 11 -184 -1z"/>
<path d="M1126 4995 c-8 -8 -22 -41 -30 -73 -30 -109 -84 -201 -165 -282 -128
-127 -267 -178 -459 -167 -192 11 -337 81 -445 216 l-27 34 2 -319 3 -318 50
-19 c254 -95 562 -99 839 -11 373 119 662 459 738 869 10 56 10 68 -3 76 -8 5
-121 9 -251 9 -197 0 -239 -3 -252 -15z"/>
</g>
</svg>
