<?xml version="1.0" standalone="no"?>
<!DOCTYPE svg PUBLIC "-//W3C//DTD SVG 20010904//EN"
 "http://www.w3.org/TR/2001/REC-SVG-20010904/DTD/svg10.dtd">
<svg version="1.0" xmlns="http://www.w3.org/2000/svg"
 width="198.000000pt" height="36.000000pt" viewBox="0 0 198.000000 36.000000"
 preserveAspectRatio="xMidYMid meet">

<g transform="translate(0.000000,36.000000) scale(0.100000,-0.100000)"
fill="#000000" stroke="none">
<path d="M105 336 c-125 -54 -124 -260 2 -312 45 -19 80 -17 129 6 27 14 48
33 58 54 22 47 20 56 -14 56 -18 0 -30 -5 -30 -13 0 -27 -47 -59 -86 -59 -30
0 -44 7 -66 31 -56 63 -26 179 52 196 35 8 86 -16 95 -45 6 -20 30 -26 52 -12
10 6 8 16 -5 42 -30 61 -117 87 -187 56z"/>
<path d="M1391 183 l-1 -163 28 0 c19 0 23 3 13 9 -10 7 -13 23 -9 63 3 29 1
78 -4 108 -6 30 -14 75 -18 100 -5 31 -8 -7 -9 -117z"/>
<path d="M1631 298 c-7 -24 -15 -51 -17 -60 -4 -12 0 -18 10 -18 9 0 16 -6 17
-12 0 -7 5 -2 11 12 10 24 10 25 18 4 9 -22 37 -39 43 -26 2 4 4 37 6 75 l3
67 -40 0 c-37 0 -39 -2 -51 -42z"/>
<path d="M1015 308 c-2 -7 -5 -22 -7 -33 -2 -11 -9 -21 -16 -21 -6 -1 -16 -2
-22 -3 -21 -2 -10 -40 13 -43 20 -3 22 -9 27 -86 6 -93 14 -104 70 -100 27 2
35 7 35 23 0 12 -9 21 -25 25 -23 6 -25 10 -25 70 0 60 2 65 23 68 31 5 27 46
-5 50 -18 3 -23 10 -23 33 0 22 -5 29 -20 29 -11 0 -22 -6 -25 -12z"/>
<path d="M347 254 c-4 -4 -7 -58 -7 -121 l0 -113 30 0 30 0 0 79 c0 84 6 96
50 103 19 2 25 9 25 28 0 30 -35 40 -55 15 -15 -18 -31 -20 -27 -3 2 14 -35
23 -46 12z"/>
<path d="M554 250 c-59 -23 -83 -115 -48 -181 18 -37 74 -63 114 -54 30 7 80
47 80 65 0 15 -42 12 -64 -5 -27 -20 -52 -19 -76 5 -34 34 -24 40 66 40 l87 0
-6 36 c-14 83 -80 124 -153 94z m90 -62 c15 -24 5 -30 -53 -26 l-52 3 17 23
c19 27 71 27 88 0z"/>
<path d="M800 253 c-24 -9 -60 -45 -60 -60 0 -18 45 -17 60 2 16 19 76 20 83
1 7 -18 -12 -36 -37 -36 -83 0 -129 -43 -106 -99 18 -44 63 -57 112 -32 30 14
38 16 38 5 0 -8 10 -14 25 -14 25 0 25 0 25 98 0 86 -3 101 -20 117 -20 18
-93 29 -120 18z m90 -128 c0 -2 -5 -16 -12 -30 -19 -43 -88 -47 -88 -6 0 14 9
23 28 27 15 3 32 7 37 9 16 5 35 5 35 0z"/>
<path d="M1200 249 c-57 -21 -83 -128 -46 -184 22 -34 76 -57 115 -49 30 6 81
48 81 65 0 14 -43 10 -64 -6 -27 -20 -52 -19 -76 5 -34 34 -24 40 66 40 l86 0
-7 38 c-15 86 -75 121 -155 91z m88 -51 c26 -26 13 -38 -43 -38 -59 0 -64 4
-38 32 18 20 63 24 81 6z"/>
<path d="M1813 245 c-33 -14 -47 -33 -17 -21 12 4 15 2 11 -9 -5 -12 1 -13 38
-8 29 4 50 1 60 -7 16 -13 17 -60 0 -61 -15 -1 27 -17 47 -18 13 -1 16 6 13
39 -5 51 -23 77 -59 90 -38 13 -54 12 -93 -5z"/>
<path d="M1790 45 c31 -33 105 -35 139 -4 27 26 20 37 -11 17 -25 -16 -95 -15
-112 2 -5 5 -17 10 -25 10 -10 0 -8 -7 9 -25z"/>
<path d="M1558 23 c7 -3 16 -2 19 1 4 3 -2 6 -13 5 -11 0 -14 -3 -6 -6z"/>
</g>
</svg>
