<svg version="1.1" id="Layer_1" xmlns="http://www.w3.org/2000/svg" xmlns:xlink="http://www.w3.org/1999/xlink" x="0px" y="0px"
	 width="100%" viewBox="0 0 1082 322" enable-background="new 0 0 1082 322" xml:space="preserve">
<path fill="#FEFEFE" opacity="1.000000" stroke="none" 
	d="
M1.000000,321.000000 
	C1.000000,214.365036 1.000000,107.730064 1.000000,1.000000 
	C360.694702,1.000000 720.389404,1.000000 1080.542969,1.468657 
	C1081.001709,108.177124 1081.001709,214.416931 1081.001709,321.000000 
	C720.676331,321.000000 360.838165,321.000000 1.000000,321.000000 
M803.440186,142.484421 
	C803.894226,141.308472 804.348267,140.132523 805.004272,138.355682 
	C805.050354,137.936111 805.096375,137.516541 805.943542,137.175949 
	C806.272156,138.702042 806.881287,140.226974 806.887573,141.754379 
	C806.995667,168.072723 806.999023,194.391541 807.164307,220.709381 
	C807.173035,222.101807 808.413086,223.486496 809.992554,225.041748 
	C816.295288,224.961197 822.598022,224.880646 829.600342,224.699356 
	C829.925842,223.747482 830.607971,222.756821 830.509521,221.851013 
	C830.218018,219.169022 829.288940,216.531021 829.203857,213.856873 
	C828.982849,206.914383 829.080017,199.961746 829.142212,192.126144 
	C829.103088,189.752960 829.063965,187.379791 829.144348,184.111923 
	C829.106140,181.409073 829.067871,178.706223 829.184204,175.113739 
	C829.138794,172.412415 829.093445,169.711105 829.200623,166.180176 
	C829.123108,165.062027 829.045593,163.943878 829.325500,162.257111 
	C829.536011,161.484070 829.925720,160.712189 829.930725,159.937820 
	C830.056458,140.473892 830.188660,121.009666 830.168213,101.545631 
	C830.165894,99.386299 829.252808,97.227928 828.771606,95.110634 
	C818.668762,95.110634 809.198242,95.110634 798.830505,95.110634 
	C796.890747,101.593910 794.910034,108.213913 792.212891,115.058746 
	C789.898193,121.696518 787.583496,128.334290 784.926636,135.613297 
	C784.669128,136.749008 784.411621,137.884735 784.011169,139.732513 
	C783.898438,140.447968 783.785706,141.163406 783.228516,141.912888 
	C782.931213,142.076004 782.800964,142.326096 782.134399,142.896912 
	C781.740845,144.229599 781.347290,145.562271 780.298889,147.218231 
	C779.827026,149.080521 779.355164,150.942810 778.148132,153.038849 
	C776.435303,158.365814 774.722412,163.692780 772.299744,169.232819 
	C770.483948,175.070618 768.668213,180.908417 766.216919,186.927628 
	C765.868713,187.631027 765.520508,188.334427 765.044922,189.685547 
	C765.037903,190.125275 765.030945,190.565018 764.355042,191.170624 
	C763.579407,192.273254 762.803772,193.375870 761.984680,194.540359 
	C760.284485,191.205322 758.671326,188.041031 757.003235,184.117172 
	C754.213379,175.738419 751.423462,167.359665 748.617676,158.277527 
	C747.413757,155.850937 746.209839,153.424347 745.027405,150.315750 
	C744.941406,149.872025 744.855347,149.428299 744.772949,148.289505 
	C743.983337,147.065247 742.904480,145.939117 742.450439,144.600998 
	C739.221008,135.083374 736.192810,125.497208 732.934631,115.989708 
	C731.877930,112.906113 730.325684,109.992325 729.000000,107.000000 
	C729.000000,107.000000 729.000000,107.000511 729.059937,106.197990 
	C728.353638,104.557877 727.647339,102.917763 726.426819,100.740944 
	C726.426819,99.005959 726.426819,97.270981 726.426819,95.028870 
	C716.086426,95.028870 706.130310,95.006279 696.175476,95.108002 
	C695.759155,95.112267 695.354614,96.276031 694.195435,97.194000 
	C693.833374,98.383499 693.156616,99.572517 693.154785,100.762566 
	C693.094055,140.371979 693.083313,179.981522 693.164612,219.590820 
	C693.166992,220.726318 694.245544,221.859634 694.979675,223.854233 
	C700.302185,224.204437 705.624634,224.554642 711.826477,225.085770 
	C715.004944,225.561584 715.187744,223.740677 715.182251,221.204346 
	C715.123169,193.917938 715.161926,166.631317 715.195679,139.344757 
	C715.197205,138.096268 715.405884,136.848022 715.532776,135.435822 
	C716.884460,136.171356 717.864624,136.704742 718.836731,138.043045 
	C720.133179,141.837585 719.097717,146.773224 724.011230,149.472824 
	C724.601929,150.920197 725.192627,152.367569 725.221008,154.333832 
	C725.280579,155.628387 725.035583,157.031250 725.451050,158.199203 
	C727.531128,164.046432 729.594360,169.913788 732.044556,175.610153 
	C733.624695,179.283905 735.861572,182.675186 737.863953,186.885101 
	C738.454407,188.265106 739.044922,189.645111 739.463440,191.749588 
	C739.729980,193.518845 739.801758,195.346161 740.307861,197.044022 
	C741.108215,199.729141 742.199524,202.327515 743.190735,205.696976 
	C744.502380,209.455017 745.813965,213.213043 747.122253,217.676605 
	C748.692322,219.456253 750.262451,221.235901 751.974304,223.878342 
	C752.429749,224.266083 752.880371,224.984528 753.341370,224.991211 
	C758.883606,225.071594 764.429504,225.120041 769.968140,224.958359 
	C770.679504,224.937576 771.354980,223.682419 772.637085,222.560226 
	C774.709534,218.676025 776.781982,214.791824 778.996643,210.136063 
	C780.315857,205.752838 781.635132,201.369629 783.114319,196.414871 
	C783.115295,196.020035 783.116272,195.625183 783.766479,195.083649 
	C784.114075,194.378281 784.461670,193.672913 784.992798,192.217743 
	C786.314331,188.474518 787.635864,184.731277 789.214417,180.290619 
	C790.588074,176.567963 791.961670,172.845306 793.910583,168.695709 
	C794.005310,167.504166 794.099976,166.312607 794.851013,164.789093 
	C796.242920,160.862961 797.634766,156.936829 799.605042,152.610764 
	C800.036926,151.319778 800.468811,150.028793 801.373047,148.266602 
	C801.893555,146.498688 802.414001,144.730774 803.005493,142.963730 
	C803.005493,142.963730 802.949646,142.919830 803.440186,142.484421 
M900.512268,128.441269 
	C893.939697,126.778038 887.381714,125.709404 880.325562,128.825317 
	C877.877930,129.546707 875.430359,130.268097 872.209656,131.021805 
	C870.257568,131.757706 868.170105,132.254669 866.376709,133.270706 
	C858.368835,137.807419 851.795105,143.693939 848.194397,153.139847 
	C847.430420,157.417145 846.666382,161.694443 845.268738,166.385117 
	C845.160400,167.888931 845.052063,169.392731 844.208130,171.199219 
	C844.026123,178.257690 843.831238,185.315933 843.716064,192.375488 
	C843.712036,192.621292 844.504700,192.880096 844.887024,193.942764 
	C845.954529,205.045242 854.158081,211.523224 861.661438,219.190536 
	C866.668884,221.726425 871.591553,224.452576 876.711487,226.736252 
	C880.605713,228.473236 897.773010,228.332230 901.664856,226.722198 
	C902.392334,226.421249 902.640015,224.960556 903.858643,224.101089 
	C908.307495,225.556213 911.532654,222.830734 915.663391,220.827148 
	C917.576172,218.914963 919.488953,217.002777 922.059387,215.090485 
	C923.071228,213.791489 924.083130,212.492508 925.783752,210.998016 
	C927.451172,208.479416 929.545898,206.139099 930.688171,203.401382 
	C932.502686,199.052567 930.917419,197.083557 926.031921,197.242813 
	C921.680115,197.384674 917.339539,197.870926 912.032104,198.279190 
	C909.528809,200.613403 906.159363,203.755249 902.185547,206.892105 
	C901.793701,206.975250 901.401917,207.058395 900.166626,207.087189 
	C897.202942,207.717255 894.235962,208.885513 891.276184,208.867798 
	C884.658936,208.828171 878.357483,207.238205 872.802551,202.354355 
	C870.849854,199.910522 868.897217,197.466690 866.932678,194.278641 
	C866.741821,193.832748 866.551025,193.386856 866.407349,192.398911 
	C865.920227,191.940292 865.433105,191.481674 865.013977,190.356415 
	C864.966614,189.913666 864.919312,189.470917 864.964600,188.176376 
	C864.666626,184.354065 867.440552,184.994415 869.678223,184.991501 
	C889.170044,184.966064 908.662292,185.015228 928.153076,184.869095 
	C929.713196,184.857407 931.263550,183.553040 932.935913,181.938995 
	C932.829956,176.521744 932.914551,171.089890 932.501526,165.696167 
	C932.378052,164.083801 930.862854,162.578033 930.058167,160.161728 
	C930.395691,147.748657 917.264648,133.411026 906.361816,130.583344 
	C904.563171,130.063080 902.764526,129.542816 900.512268,128.441269 
M935.820984,131.163315 
	C936.442505,134.373535 937.064026,137.583755 937.685547,140.793991 
	C938.156433,140.739426 938.627380,140.684860 939.098267,140.630310 
	C939.098267,138.695938 938.868652,136.724258 939.174927,134.839691 
	C939.398193,133.465469 940.328064,132.206085 941.784851,131.034592 
	C942.223999,132.813690 942.633423,134.600830 943.111572,136.369415 
	C943.509277,137.840775 943.987549,139.290359 944.430176,140.749573 
	C945.820068,140.180313 947.209961,139.611053 948.078491,139.255310 
	C951.108887,139.938309 953.797546,140.544281 957.067932,141.281372 
	C957.067932,137.094635 957.136230,133.950912 957.010376,130.814957 
	C956.985107,130.186462 956.316833,129.235580 955.766418,129.084763 
	C955.312622,128.960419 954.475769,129.697403 954.016479,130.231445 
	C952.688660,131.775345 951.465698,133.409424 950.023132,135.233826 
	C948.290955,132.035065 950.148987,127.309196 944.194885,128.517960 
	C941.083984,129.149521 937.535400,127.331116 934.257263,127.579391 
	C932.961670,127.677536 931.672241,130.428146 935.820984,131.163315 
M286.181763,141.461914 
	C285.797485,138.662537 285.099701,135.861374 285.115509,133.064255 
	C285.131866,130.162109 283.909058,128.576935 281.250488,128.517792 
	C276.108917,128.403397 270.959869,128.644226 265.813599,128.714523 
	C262.511047,128.759628 261.169250,130.303101 261.178406,133.693130 
	C261.257446,163.000626 261.203644,192.308502 261.299622,221.615906 
	C261.303223,222.716064 262.434021,223.812531 263.500793,225.502869 
	C269.024750,225.849304 274.547943,226.208496 280.072937,226.537781 
	C283.870941,226.764160 285.328186,224.973419 285.262909,221.166946 
	C285.097656,211.527695 284.984192,201.877655 285.260864,192.243744 
	C285.498352,183.974640 286.039215,175.692383 286.952667,167.472260 
	C287.556488,162.038406 290.417969,157.669998 295.234222,154.640656 
	C300.984283,151.023972 307.297852,150.602463 313.767792,150.955658 
	C317.099823,151.137589 318.562561,149.418594 318.649445,146.438675 
	C318.789886,141.621765 319.032379,136.759125 318.498901,131.997910 
	C318.314148,130.348999 316.031097,127.722984 314.565796,127.623909 
	C304.008087,126.910103 293.345642,129.432648 286.181763,141.461914 
M489.074249,224.894119 
	C489.074249,224.894119 489.268951,224.907043 489.615723,225.542511 
	C494.655304,225.877838 499.691803,226.274185 504.735443,226.529022 
	C508.716766,226.730194 510.582184,224.544495 510.508301,220.726974 
	C510.067963,197.967178 509.810059,175.200134 509.004059,152.452774 
	C508.623871,141.722519 498.059845,131.500107 487.248138,129.016510 
	C475.965546,126.424759 464.816254,126.312645 453.745728,129.243729 
	C443.255432,132.021179 434.203735,137.566620 429.201721,147.477081 
	C423.694214,158.389038 422.370667,161.090118 437.259460,160.555359 
	C437.758606,160.537430 438.270691,160.482254 438.756897,160.563492 
	C444.377228,161.502457 448.496216,159.715591 450.935120,154.303558 
	C451.534210,152.974136 452.857269,151.888168 454.033691,150.915482 
	C460.482849,145.583420 468.178741,146.629395 475.646942,146.999222 
	C482.059692,147.316788 485.531342,151.279404 485.538055,157.653641 
	C485.544373,163.654587 482.385864,166.129913 475.524078,167.132751 
	C464.325195,168.769440 452.931641,170.052795 442.132843,173.228378 
	C424.132751,178.521637 418.918182,197.280426 426.378082,212.767807 
	C433.811676,228.200638 455.541351,231.628540 469.091492,225.815140 
	C475.623444,223.012726 481.215088,218.018539 487.229889,214.018555 
	C487.746521,216.968414 488.423645,220.834595 489.074249,224.894119 
M248.749298,177.946411 
	C242.177917,177.651291 235.602646,177.421417 229.036896,177.031403 
	C226.095840,176.856689 225.394882,178.125275 224.657257,180.911652 
	C223.506104,185.260025 221.653458,189.592285 219.262222,193.407501 
	C214.287308,201.345016 206.390030,204.326675 197.404755,206.038574 
	C187.851715,207.858627 179.138184,206.153687 170.995575,201.711090 
	C156.955505,194.050827 152.331207,180.560837 151.175964,165.831833 
	C150.630524,158.877457 151.872604,151.708878 152.890442,144.722702 
	C154.540329,133.398254 161.051895,124.900635 170.555481,119.156082 
	C179.683304,113.638649 189.737457,112.695503 200.448883,114.594444 
	C209.978806,116.283928 221.320969,124.896919 223.268127,134.667374 
	C223.593185,136.298447 226.204880,138.308853 228.026337,138.629105 
	C231.582321,139.254349 235.326538,138.807999 238.992828,138.807236 
	C249.025146,138.805161 248.985977,138.813034 247.136307,129.112137 
	C245.263107,119.287766 240.058716,111.359856 232.708664,104.945053 
	C225.093704,98.299057 216.211700,94.516708 206.062378,92.504250 
	C188.561859,89.034157 172.311844,91.372673 157.214874,100.426491 
	C135.212372,113.621643 127.002861,134.791077 125.604347,159.054596 
	C124.892990,171.396423 127.866837,183.463028 133.087128,194.715881 
	C141.904922,213.723450 156.981445,225.372879 177.513672,228.502777 
	C192.033478,230.716156 206.630920,229.549500 220.453369,223.122192 
	C236.873489,215.487015 250.104401,197.243195 248.749298,177.946411 
M346.858795,193.584686 
	C346.123718,190.900940 345.388611,188.217194 344.481018,184.903717 
	C347.406067,184.903717 349.214539,184.903717 351.023010,184.903717 
	C369.849487,184.903580 388.676758,184.811035 407.501770,184.976135 
	C411.588989,185.011963 413.448669,183.794174 412.988586,179.561096 
	C412.294189,173.172165 412.249939,166.666702 411.014252,160.390945 
	C407.086426,140.441513 393.254547,129.818115 375.420929,127.500450 
	C357.626801,125.187920 342.158997,130.950562 331.234497,145.787277 
	C325.938354,152.980042 323.839661,161.497757 322.500336,170.486938 
	C320.661987,182.825195 322.731445,194.234695 328.135284,204.983490 
	C334.717133,218.075439 345.794861,224.936920 360.393646,227.446686 
	C376.716400,230.252869 390.482117,225.929733 402.161316,214.919220 
	C406.922577,210.430557 411.412903,205.060730 410.962341,196.752335 
	C402.025543,198.449738 391.936890,192.621063 385.219208,202.880890 
	C385.052399,203.135712 384.660675,203.233139 384.402679,203.439941 
	C378.440704,208.218292 371.435516,207.516403 364.525879,207.171234 
	C355.914154,206.741028 350.446198,201.882416 346.858795,193.584686 
M614.500671,131.909195 
	C605.975403,136.242142 599.429077,142.503632 594.853027,151.007156 
	C588.714905,162.413254 588.102234,174.646637 589.286621,187.029831 
	C590.121155,195.755844 592.983887,203.986557 598.670959,210.960297 
	C610.451660,225.406326 625.478333,230.396973 643.791199,227.335342 
	C660.080383,224.612015 671.632751,216.537125 677.775330,200.912323 
	C678.954529,197.912857 677.687866,196.868210 675.603760,197.015335 
	C667.339844,197.598679 658.485962,194.039673 651.563660,202.892548 
	C646.724487,209.081284 638.412964,207.397125 631.234009,207.194717 
	C621.105957,206.909195 610.497498,196.684418 612.945190,184.915100 
	C634.779907,184.915100 656.703857,184.915100 679.036133,184.915100 
	C681.057434,174.099564 679.985168,163.659836 676.266235,154.023529 
	C669.307739,135.993011 653.605408,126.348923 634.572205,127.272049 
	C628.021179,127.589775 621.568115,129.925629 614.500671,131.909195 
M582.034851,214.617218 
	C582.035034,213.784821 582.043640,212.952347 582.033997,212.120056 
	C581.956909,205.435226 581.695496,205.180023 575.023132,205.179260 
	C572.525879,205.178970 570.026794,205.223022 567.531799,205.143585 
	C562.461731,204.982193 559.254822,202.147263 559.204285,197.076767 
	C559.052002,181.785446 559.149353,166.491608 559.149353,150.375168 
	C564.280029,150.375168 569.212646,150.655991 574.084961,150.236679 
	C576.029114,150.069382 579.289490,148.560928 579.466187,147.311584 
	C580.323120,141.252655 581.267517,134.990128 578.320984,128.686066 
	C571.824707,128.686066 565.581604,128.686066 558.865601,128.686066 
	C558.865601,119.282204 558.865601,110.358131 558.865601,100.971832 
	C556.408691,101.141212 554.397034,100.982613 552.556335,101.469856 
	C548.938354,102.427528 545.486755,104.325851 541.836121,104.773865 
	C536.573181,105.419754 534.925781,107.936508 535.233704,112.936440 
	C535.556213,118.172112 535.305847,123.443062 535.305847,128.987564 
	C533.759155,128.987564 532.954529,128.979843 532.150024,128.988693 
	C517.477478,129.150330 517.563171,129.149887 517.714111,144.062897 
	C517.762207,148.814560 519.882996,150.649475 524.458008,150.422104 
	C527.896484,150.251236 531.350281,150.388367 535.307190,150.388367 
	C535.307190,160.835999 535.083435,170.788422 535.371338,180.726013 
	C535.648621,190.295685 536.023621,199.902618 537.180847,209.392563 
	C537.946960,215.675385 542.001953,220.361542 547.920166,223.013962 
	C556.631775,226.918304 565.916687,226.639679 575.168274,226.555450 
	C580.961304,226.502701 582.023132,225.460175 582.051453,219.528015 
	C582.057861,218.196182 582.041382,216.864227 582.034851,214.617218 
z"/>
<path fill="#282828" opacity="1.000000" stroke="none" 
	d="
M1.000000,321.500000 
	C360.838165,321.000000 720.676331,321.000000 1081.001709,321.000000 
	C1081.001709,214.416931 1081.001709,108.177124 1081.000854,1.468660 
	C1081.666626,1.333339 1082.783569,1.548070 1082.909058,2.023960 
	C1083.196411,3.114914 1083.000000,4.333333 1083.000000,5.500000 
	C1083.000000,111.333336 1083.000000,217.166672 1083.000000,323.000000 
	C723.833313,323.000000 364.666656,323.001221 5.500005,322.958771 
	C3.999966,322.958588 2.500001,322.333344 1.000000,321.500000 
z"/>
<path fill="#232323" opacity="1.000000" stroke="none" 
	d="
M248.871338,178.398346 
	C250.104401,197.243195 236.873489,215.487015 220.453369,223.122192 
	C206.630920,229.549500 192.033478,230.716156 177.513672,228.502777 
	C156.981445,225.372879 141.904922,213.723450 133.087128,194.715881 
	C127.866837,183.463028 124.892990,171.396423 125.604347,159.054596 
	C127.002861,134.791077 135.212372,113.621643 157.214874,100.426491 
	C172.311844,91.372673 188.561859,89.034157 206.062378,92.504250 
	C216.211700,94.516708 225.093704,98.299057 232.708664,104.945053 
	C240.058716,111.359856 245.263107,119.287766 247.136307,129.112137 
	C248.985977,138.813034 249.025146,138.805161 238.992828,138.807236 
	C235.326538,138.807999 231.582321,139.254349 228.026337,138.629105 
	C226.204880,138.308853 223.593185,136.298447 223.268127,134.667374 
	C221.320969,124.896919 209.978806,116.283928 200.448883,114.594444 
	C189.737457,112.695503 179.683304,113.638649 170.555481,119.156082 
	C161.051895,124.900635 154.540329,133.398254 152.890442,144.722702 
	C151.872604,151.708878 150.630524,158.877457 151.175964,165.831833 
	C152.331207,180.560837 156.955505,194.050827 170.995575,201.711090 
	C179.138184,206.153687 187.851715,207.858627 197.404755,206.038574 
	C206.390030,204.326675 214.287308,201.345016 219.262222,193.407501 
	C221.653458,189.592285 223.506104,185.260025 224.657257,180.911652 
	C225.394882,178.125275 226.095840,176.856689 229.036896,177.031403 
	C235.602646,177.421417 242.177917,177.651291 248.871338,178.398346 
z"/>
<path fill="#242424" opacity="1.000000" stroke="none" 
	d="
M489.100769,224.700790 
	C488.423645,220.834595 487.746521,216.968414 487.229889,214.018555 
	C481.215088,218.018539 475.623444,223.012726 469.091492,225.815140 
	C455.541351,231.628540 433.811676,228.200638 426.378082,212.767807 
	C418.918182,197.280426 424.132751,178.521637 442.132843,173.228378 
	C452.931641,170.052795 464.325195,168.769440 475.524078,167.132751 
	C482.385864,166.129913 485.544373,163.654587 485.538055,157.653641 
	C485.531342,151.279404 482.059692,147.316788 475.646942,146.999222 
	C468.178741,146.629395 460.482849,145.583420 454.033691,150.915482 
	C452.857269,151.888168 451.534210,152.974136 450.935120,154.303558 
	C448.496216,159.715591 444.377228,161.502457 438.756897,160.563492 
	C438.270691,160.482254 437.758606,160.537430 437.259460,160.555359 
	C422.370667,161.090118 423.694214,158.389038 429.201721,147.477081 
	C434.203735,137.566620 443.255432,132.021179 453.745728,129.243729 
	C464.816254,126.312645 475.965546,126.424759 487.248138,129.016510 
	C498.059845,131.500107 508.623871,141.722519 509.004059,152.452774 
	C509.810059,175.200134 510.067963,197.967178 510.508301,220.726974 
	C510.582184,224.544495 508.716766,226.730194 504.735443,226.529022 
	C499.691803,226.274185 494.655304,225.877838 489.811340,225.110321 
	C490.414551,220.371826 490.822174,216.065521 491.229797,211.759216 
	C490.520142,211.730469 489.810455,211.701721 489.100800,211.672974 
	C489.100800,216.015579 489.100800,220.358185 489.100769,224.700790 
M448.871063,191.590042 
	C445.303802,197.500946 447.295502,204.963120 453.038757,206.915070 
	C458.326935,208.712357 463.346832,209.034225 469.153992,207.577744 
	C480.304382,204.781113 487.613556,193.647324 486.368439,181.653229 
	C485.974823,181.525436 485.500519,181.197067 485.091217,181.264313 
	C476.940277,182.603622 468.708374,183.616348 460.689209,185.521591 
	C456.684204,186.473145 453.070740,189.072693 448.871063,191.590042 
z"/>
<path fill="#242424" opacity="1.000000" stroke="none" 
	d="
M346.881592,193.996124 
	C350.446198,201.882416 355.914154,206.741028 364.525879,207.171234 
	C371.435516,207.516403 378.440704,208.218292 384.402679,203.439941 
	C384.660675,203.233139 385.052399,203.135712 385.219208,202.880890 
	C391.936890,192.621063 402.025543,198.449738 410.962341,196.752335 
	C411.412903,205.060730 406.922577,210.430557 402.161316,214.919220 
	C390.482117,225.929733 376.716400,230.252869 360.393646,227.446686 
	C345.794861,224.936920 334.717133,218.075439 328.135284,204.983490 
	C322.731445,194.234695 320.661987,182.825195 322.500336,170.486938 
	C323.839661,161.497757 325.938354,152.980042 331.234497,145.787277 
	C342.158997,130.950562 357.626801,125.187920 375.420929,127.500450 
	C393.254547,129.818115 407.086426,140.441513 411.014252,160.390945 
	C412.249939,166.666702 412.294189,173.172165 412.988586,179.561096 
	C413.448669,183.794174 411.588989,185.011963 407.501770,184.976135 
	C388.676758,184.811035 369.849487,184.903580 351.023010,184.903717 
	C349.214539,184.903717 347.406067,184.903717 344.481018,184.903717 
	C345.388611,188.217194 346.123718,190.900940 346.881592,193.996124 
M356.449341,150.854935 
	C349.408295,153.744522 347.367737,160.100266 345.347321,166.862610 
	C360.045624,166.862610 374.555542,166.862610 389.012543,166.862610 
	C390.195801,160.222275 386.701538,153.691238 380.542908,150.328110 
	C372.815308,146.108185 364.895569,146.080948 356.449341,150.854935 
M359.507019,169.062988 
	C354.894775,169.062988 350.282562,169.062988 345.670319,169.062988 
	C345.688599,169.482559 345.706909,169.902130 345.725220,170.321701 
	C359.919373,170.321701 374.113556,170.321701 388.307709,170.321701 
	C388.306061,169.902176 388.304413,169.482666 388.302765,169.063141 
	C379.036896,169.063141 369.771057,169.063141 359.507019,169.062988 
z"/>
<path fill="#242424" opacity="1.000000" stroke="none" 
	d="
M614.785461,131.624374 
	C621.568115,129.925629 628.021179,127.589775 634.572205,127.272049 
	C653.605408,126.348923 669.307739,135.993011 676.266235,154.023529 
	C679.985168,163.659836 681.057434,174.099564 679.036133,184.915100 
	C656.703857,184.915100 634.779907,184.915100 612.945190,184.915100 
	C610.497498,196.684418 621.105957,206.909195 631.234009,207.194717 
	C638.412964,207.397125 646.724487,209.081284 651.563660,202.892548 
	C658.485962,194.039673 667.339844,197.598679 675.603760,197.015335 
	C677.687866,196.868210 678.954529,197.912857 677.775330,200.912323 
	C671.632751,216.537125 660.080383,224.612015 643.791199,227.335342 
	C625.478333,230.396973 610.451660,225.406326 598.670959,210.960297 
	C592.983887,203.986557 590.121155,195.755844 589.286621,187.029831 
	C588.102234,174.646637 588.714905,162.413254 594.853027,151.007156 
	C599.429077,142.503632 605.975403,136.242142 614.785461,131.624374 
M618.586548,167.140762 
	C631.207397,167.140762 643.828186,167.140762 656.458252,167.140762 
	C656.088013,155.251038 648.579041,147.630325 635.873169,147.341949 
	C624.111023,147.074997 612.145630,156.273987 613.253784,167.139709 
	C614.675964,167.139709 616.142395,167.139709 618.586548,167.140762 
M614.312317,170.860794 
	C628.315430,170.860794 642.318542,170.860794 656.321594,170.860794 
	C655.898682,169.459610 655.470276,169.139435 655.040894,169.138092 
	C641.932312,169.096909 628.823486,169.066727 615.715210,169.129410 
	C615.024414,169.132706 614.337463,169.964172 614.312317,170.860794 
M638.029053,224.990936 
	C635.240173,224.990936 632.451294,224.990936 629.662415,224.990936 
	C629.693176,225.458725 629.723938,225.926498 629.754700,226.394287 
	C633.290161,226.394287 636.825684,226.394287 640.361145,226.394287 
	C640.392029,226.127457 640.422974,225.860626 640.453857,225.593811 
	C639.921021,225.399170 639.388245,225.204529 638.029053,224.990936 
z"/>
<path fill="#252525" opacity="1.000000" stroke="none" 
	d="
M582.035156,215.074768 
	C582.041382,216.864227 582.057861,218.196182 582.051453,219.528015 
	C582.023132,225.460175 580.961304,226.502701 575.168274,226.555450 
	C565.916687,226.639679 556.631775,226.918304 547.920166,223.013962 
	C542.001953,220.361542 537.946960,215.675385 537.180847,209.392563 
	C536.023621,199.902618 535.648621,190.295685 535.371338,180.726013 
	C535.083435,170.788422 535.307190,160.835999 535.307190,150.388367 
	C531.350281,150.388367 527.896484,150.251236 524.458008,150.422104 
	C519.882996,150.649475 517.762207,148.814560 517.714111,144.062897 
	C517.563171,129.149887 517.477478,129.150330 532.150024,128.988693 
	C532.954529,128.979843 533.759155,128.987564 535.305847,128.987564 
	C535.305847,123.443062 535.556213,118.172112 535.233704,112.936440 
	C534.925781,107.936508 536.573181,105.419754 541.836121,104.773865 
	C545.486755,104.325851 548.938354,102.427528 552.556335,101.469856 
	C554.397034,100.982613 556.408691,101.141212 558.865601,100.971832 
	C558.865601,110.358131 558.865601,119.282204 558.865601,128.686066 
	C565.581604,128.686066 571.824707,128.686066 578.320984,128.686066 
	C581.267517,134.990128 580.323120,141.252655 579.466187,147.311584 
	C579.289490,148.560928 576.029114,150.069382 574.084961,150.236679 
	C569.212646,150.655991 564.280029,150.375168 559.149353,150.375168 
	C559.149353,166.491608 559.052002,181.785446 559.204285,197.076767 
	C559.254822,202.147263 562.461731,204.982193 567.531799,205.143585 
	C570.026794,205.223022 572.525879,205.178970 575.023132,205.179260 
	C581.695496,205.180023 581.956909,205.435226 582.033997,212.120056 
	C582.043640,212.952347 582.035034,213.784821 582.035156,215.074768 
M539.007324,158.630737 
	C539.007324,156.299911 539.007324,153.969101 539.007324,151.638275 
	C538.579956,151.663681 538.152588,151.689087 537.725220,151.714493 
	C537.725220,168.575439 537.725220,185.436386 537.725220,202.297333 
	C538.152588,202.297913 538.579956,202.298508 539.007324,202.299088 
	C539.007324,188.063431 539.007324,173.827789 539.007324,158.630737 
M539.007324,116.611252 
	C539.007324,114.286674 539.007324,111.962097 539.007324,109.637520 
	C538.579468,109.665756 538.151611,109.694000 537.723755,109.722237 
	C537.723755,115.917397 537.723755,122.112564 537.723755,128.307724 
	C538.151611,128.308228 538.579468,128.308731 539.007324,128.309235 
	C539.007324,124.726532 539.007324,121.143822 539.007324,116.611252 
z"/>
<path fill="#242424" opacity="1.000000" stroke="none" 
	d="
M287.087891,141.211182 
	C293.345642,129.432648 304.008087,126.910103 314.565796,127.623909 
	C316.031097,127.722984 318.314148,130.348999 318.498901,131.997910 
	C319.032379,136.759125 318.789886,141.621765 318.649445,146.438675 
	C318.562561,149.418594 317.099823,151.137589 313.767792,150.955658 
	C307.297852,150.602463 300.984283,151.023972 295.234222,154.640656 
	C290.417969,157.669998 287.556488,162.038406 286.952667,167.472260 
	C286.039215,175.692383 285.498352,183.974640 285.260864,192.243744 
	C284.984192,201.877655 285.097656,211.527695 285.262909,221.166946 
	C285.328186,224.973419 283.870941,226.764160 280.072937,226.537781 
	C274.547943,226.208496 269.024750,225.849304 263.296143,224.744446 
	C263.091522,193.083954 263.091522,162.181885 263.091522,131.370667 
	C270.161713,131.370667 276.394257,131.370667 283.002075,131.370667 
	C283.002075,134.928497 282.802856,138.087799 283.096863,141.200516 
	C283.220306,142.507584 284.387482,143.716080 285.080170,144.969391 
	C285.749420,143.716660 286.418671,142.463928 287.087891,141.211182 
z"/>
<path fill="#A7A7A7" opacity="1.000000" stroke="none" 
	d="
M745.005981,150.997742 
	C746.209839,153.424347 747.413757,155.850937 748.335327,158.702255 
	C747.301147,159.628372 746.549316,160.129745 745.648621,160.730377 
	C740.857910,149.837784 735.429199,139.667755 732.767822,128.371002 
	C732.529541,127.359596 731.376709,126.579918 730.707886,125.649994 
	C729.655212,124.186523 728.091125,122.812103 727.727356,121.180603 
	C726.216614,114.405746 720.760498,111.833420 715.385742,109.421440 
	C710.057251,107.030205 704.563293,109.451492 704.511475,114.665749 
	C704.461243,119.712929 706.415649,124.795357 707.712341,129.804642 
	C707.794861,130.123474 710.478699,130.401260 710.801208,129.922577 
	C712.822998,126.921478 715.934570,125.752670 718.435486,127.664742 
	C720.154175,128.978760 720.209412,132.468521 720.662476,135.035065 
	C719.826111,135.802292 719.335449,136.520218 718.844849,137.238129 
	C717.864624,136.704742 716.884460,136.171356 715.532776,135.435822 
	C715.405884,136.848022 715.197205,138.096268 715.195679,139.344757 
	C715.161926,166.631317 715.123169,193.917938 715.182251,221.204346 
	C715.187744,223.740677 715.004944,225.561584 711.355713,224.685104 
	C710.247986,223.868408 709.611084,223.452377 708.980591,222.633514 
	C710.321289,217.936844 712.570923,213.684219 712.766663,209.339081 
	C713.034180,203.402466 711.713135,197.397888 711.138916,191.416122 
	C711.046692,190.455582 711.226746,189.448990 711.403992,188.486328 
	C711.901245,185.785568 712.998962,183.071701 712.875183,180.408752 
	C712.681396,176.239517 711.944702,172.043427 710.958374,167.974960 
	C709.375183,161.444427 707.507507,154.976486 705.564575,148.541107 
	C702.954529,139.896240 697.990173,131.861176 698.926514,122.303726 
	C698.981934,121.738121 698.361206,121.106270 698.055115,120.505249 
	C697.697876,120.569534 697.340576,120.633820 696.983337,120.698105 
	C696.983337,125.126503 696.983337,129.554901 696.981201,134.232117 
	C696.979126,134.480942 696.978516,134.978592 696.586426,135.077942 
	C695.807678,136.352936 695.084961,137.528275 695.083862,138.704269 
	C695.058167,166.824249 695.109863,194.944305 695.057251,223.087952 
	C694.967041,223.111542 694.822266,222.993988 694.822266,222.993988 
	C694.245544,221.859634 693.166992,220.726318 693.164612,219.590820 
	C693.083313,179.981522 693.094055,140.371979 693.154785,100.762566 
	C693.156616,99.572517 693.833374,98.383499 694.656616,97.424713 
	C696.071960,100.568413 697.026062,103.481415 698.069214,106.666313 
	C700.337402,99.239868 702.063416,97.667892 707.767151,99.160271 
	C712.376709,100.366348 717.036743,102.003387 721.117859,104.397751 
	C724.098267,106.146347 726.174011,109.436958 729.000000,112.404572 
	C729.000000,110.542320 729.000000,108.771606 729.000000,107.000885 
	C730.325684,109.992325 731.877930,112.906113 732.934631,115.989708 
	C736.192810,125.497208 739.221008,135.083374 742.450439,144.600998 
	C742.904480,145.939117 743.983337,147.065247 744.493652,148.691254 
	C743.952515,149.441803 743.690735,149.790619 743.428894,150.139420 
	C743.954590,150.425522 744.480286,150.711624 745.005981,150.997742 
z"/>
<path fill="#AFAFAF" opacity="1.000000" stroke="none" 
	d="
M721.008179,134.985779 
	C720.209412,132.468521 720.154175,128.978760 718.435486,127.664742 
	C715.934570,125.752670 712.822998,126.921478 710.801208,129.922577 
	C710.478699,130.401260 707.794861,130.123474 707.712341,129.804642 
	C706.415649,124.795357 704.461243,119.712929 704.511475,114.665749 
	C704.563293,109.451492 710.057251,107.030205 715.385742,109.421440 
	C720.760498,111.833420 726.216614,114.405746 727.727356,121.180603 
	C728.091125,122.812103 729.655212,124.186523 730.707886,125.649994 
	C731.376709,126.579918 732.529541,127.359596 732.767822,128.371002 
	C735.429199,139.667755 740.857910,149.837784 745.648621,160.730377 
	C746.549316,160.129745 747.301147,159.628372 748.343262,159.053955 
	C751.423462,167.359665 754.213379,175.738419 757.006470,184.875275 
	C756.771912,186.588776 756.534058,187.544159 756.442322,187.912842 
	C751.343689,186.526413 755.639771,178.561951 749.325928,178.142776 
	C747.084717,183.362350 745.013184,188.186859 742.614380,192.967667 
	C741.403198,192.291031 740.519287,191.658081 739.635376,191.025116 
	C739.044922,189.645111 738.454407,188.265106 738.119141,186.301697 
	C738.511536,185.422852 738.832458,185.068542 738.759399,184.840469 
	C736.118591,176.596542 733.635803,168.292664 730.648132,160.174866 
	C729.767578,157.782166 727.445068,155.920151 725.783386,153.814941 
	C725.192627,152.367569 724.601929,150.920197 724.178223,148.803467 
	C724.254333,147.094421 724.321350,146.010315 724.043640,145.023163 
	C723.097351,141.658936 722.029602,138.328873 721.008179,134.985779 
z"/>
<path fill="#484848" opacity="1.000000" stroke="none" 
	d="
M792.929321,114.833923 
	C794.910034,108.213913 796.890747,101.593910 798.830505,95.110634 
	C809.198242,95.110634 818.668762,95.110634 828.771606,95.110634 
	C829.252808,97.227928 830.165894,99.386299 830.168213,101.545631 
	C830.188660,121.009666 830.056458,140.473892 829.930725,159.937820 
	C829.925720,160.712189 829.536011,161.484070 829.268311,162.187363 
	C829.119263,161.631470 829.027405,161.145325 829.004883,160.339447 
	C827.242310,155.918381 823.343994,157.470566 820.441040,157.339233 
	C817.052795,157.185959 813.604065,158.369186 810.120850,158.522980 
	C810.074036,155.042114 810.087891,152.010773 810.492004,149.005707 
	C816.023499,150.038284 821.164734,151.044617 827.024902,152.191650 
	C827.024902,149.212936 827.024902,147.118225 827.028442,144.692535 
	C827.034973,143.920242 827.037964,143.478912 827.427002,142.933441 
	C828.159485,142.137024 828.804382,141.446396 828.808228,140.752228 
	C828.875671,128.478821 828.907471,116.204582 828.792236,103.931961 
	C828.782898,102.936897 827.650452,101.952370 827.031982,100.544540 
	C827.300110,97.215012 825.431335,97.069229 823.265564,97.095299 
	C817.209656,97.168198 811.152771,97.160210 804.727051,97.192802 
	C797.619995,109.208641 792.485962,121.322372 802.117004,134.507812 
	C803.474670,134.627182 802.950928,128.096985 805.998657,133.455505 
	C805.689087,134.903305 805.415771,136.000137 805.142456,137.096970 
	C805.096375,137.516541 805.050354,137.936111 804.602417,138.652176 
	C803.799866,138.966187 803.399170,138.983704 802.951294,138.724609 
	C802.609436,138.128525 802.314697,137.809021 802.019958,137.489502 
	C801.845520,137.696594 801.671082,137.903687 801.496643,138.110779 
	C801.998596,138.406784 802.500488,138.702789 802.967651,139.390106 
	C802.938477,140.827560 802.944092,141.873688 802.949646,142.919830 
	C802.949646,142.919830 803.005493,142.963730 802.645325,142.970978 
	C801.852356,142.990387 801.419556,143.002533 800.941040,142.737488 
	C800.604187,142.138046 800.312927,141.815796 800.021729,141.493561 
	C799.848328,141.700272 799.674866,141.906982 799.501404,142.113708 
	C800.005920,142.404541 800.510437,142.695374 800.988892,143.380310 
	C800.865479,144.820587 800.768066,145.866760 800.334106,147.039413 
	C798.700378,149.977081 796.959778,152.905106 793.612122,150.208405 
	C789.259521,146.702194 788.216553,136.859238 789.892761,131.403320 
	C791.530457,126.072350 791.966064,120.372078 792.929321,114.833923 
z"/>
<path fill="#A7A7A7" opacity="1.000000" stroke="none" 
	d="
M864.872009,189.028168 
	C864.919312,189.470917 864.966614,189.913666 864.615967,190.758820 
	C863.820923,192.768082 863.423767,194.374924 862.666199,196.023453 
	C861.353516,197.515045 859.249023,199.475021 859.629700,200.334930 
	C862.941040,207.815369 867.349426,214.280930 877.724487,213.003769 
	C883.532959,212.288773 889.396851,211.878494 895.131042,210.782776 
	C897.245422,210.378738 899.059204,208.401321 901.010071,207.141541 
	C901.401917,207.058395 901.793701,206.975250 902.829407,206.962769 
	C904.033569,208.306763 904.593933,209.580093 904.905151,210.287292 
	C907.922485,209.818985 910.574158,209.362564 913.239563,209.010361 
	C914.873840,208.794403 916.971191,209.335342 918.095703,208.503052 
	C922.147095,205.504578 923.652954,208.016357 925.094971,211.193527 
	C924.083130,212.492508 923.071228,213.791489 921.337769,215.063324 
	C917.284851,215.514236 917.329468,213.701172 918.759094,210.868362 
	C915.009521,211.069702 911.842163,210.930176 908.795837,211.471649 
	C903.435364,212.424438 898.199463,214.376816 892.818909,214.842407 
	C885.887634,215.442200 878.864746,215.034515 871.882690,214.951080 
	C870.630310,214.936127 869.370972,214.436234 868.137451,214.081619 
	C861.234985,212.097366 857.861023,206.824753 854.745239,200.800583 
	C853.316956,198.038940 852.319031,193.491531 847.367676,194.007111 
	C847.052856,192.514847 846.738159,191.023773 846.423462,189.532715 
	C846.125793,189.540634 845.828064,189.548553 845.530334,189.556488 
	C845.328918,190.748611 845.127502,191.940735 844.926025,193.132858 
	C844.504700,192.880096 843.712036,192.621292 843.716064,192.375488 
	C843.831238,185.315933 844.026123,178.257690 844.615295,171.459595 
	C845.060974,174.113724 844.806519,176.738876 848.963074,176.346939 
	C848.963074,173.791290 848.963074,171.378525 848.980347,168.982880 
	C848.997559,169.000000 848.968079,168.964783 849.317322,168.924530 
	C851.217102,166.835754 852.735840,164.762238 854.325623,162.744629 
	C856.639404,159.808304 859.852600,161.183746 860.059509,163.415222 
	C860.518677,168.367508 864.201843,170.193451 866.602661,172.995834 
	C864.750977,172.753479 863.219299,172.728317 861.877319,172.210999 
	C858.463013,170.894928 855.693054,172.195770 855.087097,175.757263 
	C854.838562,177.218582 855.094849,178.758957 854.937317,180.243820 
	C854.281677,186.422852 856.492676,188.060486 862.036133,185.900208 
	C863.053589,187.022476 863.962830,188.025314 864.872009,189.028168 
z"/>
<path fill="#363636" opacity="1.000000" stroke="none" 
	d="
M906.817200,131.080994 
	C917.264648,133.411026 930.395691,147.748657 929.916992,160.888489 
	C929.724060,162.030365 929.672241,162.445465 929.274048,162.898148 
	C923.186157,159.014740 915.199585,160.496826 910.662659,152.393265 
	C906.440247,144.851624 899.062378,138.671097 890.239502,135.336594 
	C887.060913,134.135300 884.065918,132.448242 880.962708,130.981995 
	C880.938232,130.981094 880.932556,130.932480 881.367432,130.975418 
	C884.235107,130.421112 886.667847,129.823853 889.513184,129.195358 
	C891.579163,129.200516 893.232605,129.236893 895.039917,129.627930 
	C899.068359,130.348724 902.942749,130.714859 906.817200,131.080994 
z"/>
<path fill="#7A7A7A" opacity="1.000000" stroke="none" 
	d="
M708.974121,223.036346 
	C709.611084,223.452377 710.247986,223.868408 710.916016,224.594635 
	C705.624634,224.554642 700.302185,224.204437 694.901001,223.424103 
	C694.822266,222.993988 694.967041,223.111542 695.429321,222.953339 
	C696.250488,221.110199 696.915039,219.426514 696.921875,217.740128 
	C697.012390,195.504700 697.010193,173.268921 697.383545,151.094040 
	C700.155212,156.392334 703.642883,161.416428 704.741516,166.917633 
	C706.362305,175.033966 704.981384,183.423080 706.522461,191.879593 
	C708.171875,200.930527 708.610107,210.903030 703.504333,219.779968 
	C703.171082,220.359421 704.479614,221.883224 705.419617,222.980408 
	C706.867920,223.007477 707.921021,223.021912 708.974121,223.036346 
z"/>
<path fill="#C9C9C9" opacity="1.000000" stroke="none" 
	d="
M778.854370,210.907623 
	C776.781982,214.791824 774.709534,218.676025 771.870605,222.780548 
	C765.753418,222.951675 760.402588,222.902466 755.036011,222.460876 
	C754.100769,218.666855 753.629761,215.054535 752.154358,211.914108 
	C750.060669,207.457672 750.881531,203.572006 753.196655,199.738678 
	C754.600281,197.414566 756.270447,196.111984 759.299194,198.057877 
	C760.619812,198.906372 763.157410,198.785538 764.739929,198.131454 
	C769.870850,196.010757 772.057983,196.533936 774.961914,201.218704 
	C775.414307,201.948425 776.292969,202.413925 776.977417,203.433044 
	C777.605042,206.212173 778.229736,208.559891 778.854370,210.907623 
z"/>
<path fill="#B8B8B8" opacity="1.000000" stroke="none" 
	d="
M776.974487,203.001617 
	C776.292969,202.413925 775.414307,201.948425 774.961914,201.218704 
	C772.057983,196.533936 769.870850,196.010757 764.739929,198.131454 
	C763.157410,198.785538 760.619812,198.906372 759.299194,198.057877 
	C756.270447,196.111984 754.600281,197.414566 753.196655,199.738678 
	C750.881531,203.572006 750.060669,207.457672 752.154358,211.914108 
	C753.629761,215.054535 754.100769,218.666855 754.635376,222.508972 
	C753.444519,222.971497 752.638550,222.993530 751.832520,223.015564 
	C750.262451,221.235901 748.692322,219.456253 747.463013,217.374512 
	C748.779846,217.196106 749.755920,217.319794 750.795349,217.451508 
	C750.071838,214.853714 749.675964,212.675003 748.854675,210.670609 
	C747.770020,208.023270 746.351807,205.512573 745.060059,202.549896 
	C744.342529,199.108200 743.642090,196.059769 742.941650,193.011353 
	C745.013184,188.186859 747.084717,183.362350 749.325928,178.142776 
	C755.639771,178.561951 751.343689,186.526413 756.442322,187.912842 
	C756.534058,187.544159 756.771912,186.588776 757.033936,185.255051 
	C758.671326,188.041031 760.284485,191.205322 761.984680,194.540359 
	C762.803772,193.375870 763.579407,192.273254 765.073364,191.083252 
	C769.665833,188.635574 772.594727,189.877380 775.568359,192.966934 
	C778.074646,195.570877 779.195251,200.972427 776.974487,203.001617 
z"/>
<path fill="#A7A7A7" opacity="1.000000" stroke="none" 
	d="
M829.050232,193.013168 
	C829.080017,199.961746 828.982849,206.914383 829.203857,213.856873 
	C829.288940,216.531021 830.218018,219.169022 830.509521,221.851013 
	C830.607971,222.756821 829.925842,223.747482 829.180176,224.383148 
	C826.836548,223.695633 824.913086,223.324341 823.067993,222.578094 
	C823.978088,218.042221 824.809814,213.881332 825.678345,209.536469 
	C818.417419,209.371323 811.897278,213.378189 809.057007,218.345459 
	C809.057007,209.876205 809.057007,201.406967 809.432739,192.890778 
	C811.605347,192.234131 813.444092,191.013336 815.190918,191.132980 
	C819.831848,191.450836 824.433167,192.347000 829.050232,193.013168 
z"/>
<path fill="#AFAFAF" opacity="1.000000" stroke="none" 
	d="
M809.057007,192.937714 
	C809.057007,201.406967 809.057007,209.876205 809.057007,218.345459 
	C811.897278,213.378189 818.417419,209.371323 825.678345,209.536469 
	C824.809814,213.881332 823.978088,218.042221 822.605591,222.605118 
	C818.641846,223.009369 815.210327,222.880554 811.801147,223.099060 
	C810.859985,223.159378 809.985168,224.254471 809.079956,224.874786 
	C808.413086,223.486496 807.173035,222.101807 807.164307,220.709381 
	C806.999023,194.391541 806.995667,168.072723 806.887573,141.754379 
	C806.881287,140.226974 806.272156,138.702042 805.542969,137.136459 
	C805.415771,136.000137 805.689087,134.903305 806.347290,133.535095 
	C811.469910,137.727295 809.359497,143.659195 810.101807,148.979446 
	C810.087891,152.010773 810.074036,155.042114 810.037720,158.750305 
	C810.015198,159.427170 809.861938,159.886154 809.570312,160.196838 
	C809.215698,165.996704 809.152710,171.485855 809.057556,177.416779 
	C809.046631,180.217194 809.067993,182.575867 809.058777,185.382675 
	C809.037842,188.199783 809.047424,190.568741 809.057007,192.937714 
z"/>
<path fill="#979797" opacity="1.000000" stroke="none" 
	d="
M844.906555,193.537811 
	C845.127502,191.940735 845.328918,190.748611 845.530334,189.556488 
	C845.828064,189.548553 846.125793,189.540634 846.423462,189.532715 
	C846.738159,191.023773 847.052856,192.514847 847.367676,194.007111 
	C852.319031,193.491531 853.316956,198.038940 854.745239,200.800583 
	C857.861023,206.824753 861.234985,212.097366 868.137451,214.081619 
	C869.370972,214.436234 870.630310,214.936127 871.882690,214.951080 
	C878.864746,215.034515 885.887634,215.442200 892.818909,214.842407 
	C898.199463,214.376816 903.435364,212.424438 908.795837,211.471649 
	C911.842163,210.930176 915.009521,211.069702 918.759094,210.868362 
	C917.329468,213.701172 917.284851,215.514236 921.008911,215.063385 
	C919.488953,217.002777 917.576172,218.914963 915.247437,220.492584 
	C913.554260,219.771820 912.277161,219.385605 911.000000,218.999695 
	C911.000000,219.000000 911.000000,219.000610 911.036133,218.627319 
	C912.033325,216.015442 911.590088,214.652802 908.863403,215.020264 
	C904.380066,215.624512 899.929382,216.670258 895.431274,216.916489 
	C889.300049,217.252106 883.137329,217.011734 876.544922,217.015503 
	C873.736084,217.010162 871.370361,217.007660 868.686401,217.041122 
	C867.896667,217.696854 867.425293,218.316605 866.612183,218.884201 
	C864.522400,218.328323 862.756531,214.557022 861.035095,218.860870 
	C854.158081,211.523224 845.954529,205.045242 844.906555,193.537811 
z"/>
<path fill="#B8B8B8" opacity="1.000000" stroke="none" 
	d="
M864.918335,188.602264 
	C863.962830,188.025314 863.053589,187.022476 862.036133,185.900208 
	C856.492676,188.060486 854.281677,186.422852 854.937317,180.243820 
	C855.094849,178.758957 854.838562,177.218582 855.087097,175.757263 
	C855.693054,172.195770 858.463013,170.894928 861.877319,172.210999 
	C863.219299,172.728317 864.750977,172.753479 866.932190,173.002991 
	C868.107788,173.006973 868.547424,173.010742 869.064331,173.379822 
	C870.908875,174.441162 872.676147,175.137207 873.612793,175.506088 
	C872.613892,177.523544 871.784241,179.199127 870.547607,180.909607 
	C868.619507,181.057709 867.098450,181.170914 865.577393,181.284119 
	C865.590881,181.806427 865.604309,182.328720 865.617798,182.851028 
	C875.093262,182.851028 884.568787,182.851028 894.504150,182.889938 
	C899.322021,182.897827 903.679932,182.866791 908.501953,182.881012 
	C916.295227,182.875793 923.624329,182.825333 931.263428,182.804306 
	C931.988342,182.838959 932.403442,182.844177 932.818481,182.849396 
	C931.263550,183.553040 929.713196,184.857407 928.153076,184.869095 
	C908.662292,185.015228 889.170044,184.966064 869.678223,184.991501 
	C867.440552,184.994415 864.666626,184.354065 864.918335,188.602264 
z"/>
<path fill="#979797" opacity="1.000000" stroke="none" 
	d="
M788.957397,180.988037 
	C787.635864,184.731277 786.314331,188.474518 784.580078,192.655136 
	C783.817261,193.805130 783.467224,194.517731 783.117249,195.230347 
	C783.116272,195.625183 783.115295,196.020035 782.651733,196.610809 
	C781.797180,194.974045 781.481079,193.120758 780.990967,191.314682 
	C780.538452,189.647003 780.236877,187.793198 779.282532,186.432526 
	C775.591125,181.168915 771.683105,176.063171 773.009521,169.019745 
	C774.722412,163.692780 776.435303,158.365814 778.565002,153.359894 
	C781.323853,161.454803 783.582886,169.255463 786.079712,176.979233 
	C786.561584,178.469818 787.974182,179.659515 788.957397,180.988037 
z"/>
<path fill="#484848" opacity="1.000000" stroke="none" 
	d="
M286.634827,141.336548 
	C286.418671,142.463928 285.749420,143.716660 285.080170,144.969391 
	C284.387482,143.716080 283.220306,142.507584 283.096863,141.200516 
	C282.802856,138.087799 283.002075,134.928497 283.002075,131.370667 
	C276.394257,131.370667 270.161713,131.370667 263.091522,131.370667 
	C263.091522,162.181885 263.091522,193.083954 263.065552,224.448380 
	C262.434021,223.812531 261.303223,222.716064 261.299622,221.615906 
	C261.203644,192.308502 261.257446,163.000626 261.178406,133.693130 
	C261.169250,130.303101 262.511047,128.759628 265.813599,128.714523 
	C270.959869,128.644226 276.108917,128.403397 281.250488,128.517792 
	C283.909058,128.576935 285.131866,130.162109 285.115509,133.064255 
	C285.099701,135.861374 285.797485,138.662537 286.634827,141.336548 
z"/>
<path fill="#676767" opacity="1.000000" stroke="none" 
	d="
M848.907593,152.834167 
	C851.795105,143.693939 858.368835,137.807419 866.376709,133.270706 
	C868.170105,132.254669 870.257568,131.757706 872.943848,131.061859 
	C874.144348,131.154907 874.610718,131.207916 874.968140,131.578033 
	C873.731750,132.563202 872.604248,133.231262 870.881836,134.251877 
	C874.714539,135.294510 877.856079,136.149078 880.998779,137.001831 
	C881.000000,137.000000 880.997131,137.003433 881.071960,137.379425 
	C883.091614,138.176453 885.036499,138.597488 886.990662,139.009262 
	C887.000000,139.000000 886.981445,139.020294 886.980896,139.396454 
	C886.551453,141.355423 886.122559,142.938217 885.593872,144.889053 
	C887.587891,144.889053 889.325562,144.889053 891.469604,144.907623 
	C893.580872,145.628326 895.285889,146.330460 896.529419,147.098328 
	C891.188232,147.183472 886.308533,147.202866 881.060242,147.121292 
	C876.770691,145.009735 874.362793,141.191406 869.421204,139.939590 
	C864.546570,138.704727 861.931335,139.988556 859.001709,143.361755 
	C856.966553,146.133835 855.015930,148.578629 852.976318,151.368896 
	C852.225464,153.437866 851.563660,155.161362 850.545044,156.831543 
	C849.761292,155.463547 849.334412,154.148849 848.907593,152.834167 
z"/>
<path fill="#828282" opacity="1.000000" stroke="none" 
	d="
M869.004700,217.005142 
	C871.370361,217.007660 873.736084,217.010162 876.641418,217.408325 
	C880.794067,218.202774 884.410645,218.571701 888.018250,219.014206 
	C889.589661,219.206970 891.864319,218.996567 892.576355,219.923920 
	C895.360657,223.550034 899.214050,223.686813 903.109131,224.035110 
	C902.640015,224.960556 902.392334,226.421249 901.664856,226.722198 
	C897.773010,228.332230 880.605713,228.473236 876.711487,226.736252 
	C871.591553,224.452576 866.668884,221.726425 861.348267,219.025696 
	C862.756531,214.557022 864.522400,218.328323 866.938904,218.866791 
	C868.073242,218.269424 868.538940,217.637283 869.004700,217.005142 
z"/>
<path fill="#AFAFAF" opacity="1.000000" stroke="none" 
	d="
M925.439331,211.095764 
	C923.652954,208.016357 922.147095,205.504578 918.095703,208.503052 
	C916.971191,209.335342 914.873840,208.794403 913.239563,209.010361 
	C910.574158,209.362564 907.922485,209.818985 904.905151,210.287292 
	C904.593933,209.580093 904.033569,208.306763 903.131592,206.965271 
	C906.159363,203.755249 909.528809,200.613403 912.032104,198.279190 
	C917.339539,197.870926 921.680115,197.384674 926.031921,197.242813 
	C930.917419,197.083557 932.502686,199.052567 930.688171,203.401382 
	C929.545898,206.139099 927.451172,208.479416 925.439331,211.095764 
z"/>
<path fill="#828282" opacity="1.000000" stroke="none" 
	d="
M809.089294,184.934540 
	C809.067993,182.575867 809.046631,180.217194 809.408081,177.349747 
	C812.296631,174.906296 814.544373,172.142792 817.377747,171.260773 
	C820.457275,170.302155 824.549133,169.819916 825.994141,174.736923 
	C826.188843,175.399231 827.978516,175.592773 829.029602,176.003387 
	C829.067871,178.706223 829.106140,181.409073 828.678772,184.559723 
	C821.838562,184.983185 815.463928,184.958862 809.089294,184.934540 
z"/>
<path fill="#979797" opacity="1.000000" stroke="none" 
	d="
M729.000000,107.000443 
	C729.000000,108.771606 729.000000,110.542320 729.000000,112.404572 
	C726.174011,109.436958 724.098267,106.146347 721.117859,104.397751 
	C717.036743,102.003387 712.376709,100.366348 707.767151,99.160271 
	C702.063416,97.667892 700.337402,99.239868 698.069214,106.666313 
	C697.026062,103.481415 696.071960,100.568413 695.031189,97.277519 
	C695.354614,96.276031 695.759155,95.112267 696.175476,95.108002 
	C706.130310,95.006279 716.086426,95.028870 726.426819,95.028870 
	C726.426819,97.270981 726.426819,99.005959 726.687439,101.396317 
	C727.632019,103.701302 728.316040,105.350906 729.000000,107.000511 
	C729.000000,107.000511 729.000000,107.000000 729.000000,107.000443 
z"/>
<path fill="#A7A7A7" opacity="1.000000" stroke="none" 
	d="
M772.654663,169.126282 
	C771.683105,176.063171 775.591125,181.168915 779.282532,186.432526 
	C780.236877,187.793198 780.538452,189.647003 780.990967,191.314682 
	C781.481079,193.120758 781.797180,194.974045 782.571777,196.896576 
	C781.635132,201.369629 780.315857,205.752838 778.925537,210.521851 
	C778.229736,208.559891 777.605042,206.212173 776.977417,203.433029 
	C779.195251,200.972427 778.074646,195.570877 775.568359,192.966934 
	C772.594727,189.877380 769.665833,188.635574 765.407837,191.000305 
	C765.030945,190.565018 765.037903,190.125275 765.429810,189.295288 
	C766.160645,188.185410 766.506531,187.465820 766.852478,186.746216 
	C768.668213,180.908417 770.483948,175.070618 772.654663,169.126282 
z"/>
<path fill="#AFAFAF" opacity="1.000000" stroke="none" 
	d="
M900.588379,207.114365 
	C899.059204,208.401321 897.245422,210.378738 895.131042,210.782776 
	C889.396851,211.878494 883.532959,212.288773 877.724487,213.003769 
	C867.349426,214.280930 862.941040,207.815369 859.629700,200.334930 
	C859.249023,199.475021 861.353516,197.515045 862.860596,196.307068 
	C864.718384,198.383270 865.819763,200.417343 867.382690,201.993729 
	C868.844849,203.468460 870.263245,207.554749 872.985901,203.026443 
	C878.357483,207.238205 884.658936,208.828171 891.276184,208.867798 
	C894.235962,208.885513 897.202942,207.717255 900.588379,207.114365 
z"/>
<path fill="#555555" opacity="1.000000" stroke="none" 
	d="
M792.571167,114.946335 
	C791.966064,120.372078 791.530457,126.072350 789.892761,131.403320 
	C788.216553,136.859238 789.259521,146.702194 793.612122,150.208405 
	C796.959778,152.905106 798.700378,149.977081 800.395386,147.340759 
	C800.828979,147.923004 800.864807,148.330414 800.900696,148.737823 
	C800.468811,150.028793 800.036926,151.319778 798.964966,152.862457 
	C796.731140,155.009247 795.137268,156.904312 792.747498,159.745789 
	C791.373657,156.862793 790.407288,154.259598 788.967407,151.951797 
	C786.946960,148.713348 788.548035,143.579300 783.673035,141.878860 
	C783.785706,141.163406 783.898438,140.447968 784.441040,139.358826 
	C787.830139,137.927658 787.809265,136.574738 785.268738,134.972046 
	C787.583496,128.334290 789.898193,121.696518 792.571167,114.946335 
z"/>
<path fill="#8B8B8B" opacity="1.000000" stroke="none" 
	d="
M903.483887,224.068100 
	C899.214050,223.686813 895.360657,223.550034 892.576355,219.923920 
	C891.864319,218.996567 889.589661,219.206970 888.018250,219.014206 
	C884.410645,218.571701 880.794067,218.202774 877.084595,217.411163 
	C883.137329,217.011734 889.300049,217.252106 895.431274,216.916489 
	C899.929382,216.670258 904.380066,215.624512 908.863403,215.020264 
	C911.590088,214.652802 912.033325,216.015442 910.671143,218.626587 
	C909.328186,219.234650 908.386353,219.470169 907.444519,219.705673 
	C907.677612,220.171082 907.910706,220.636490 908.143799,221.101898 
	C909.095886,220.401062 910.047913,219.700226 911.000000,218.999390 
	C912.277161,219.385605 913.554260,219.771820 914.903198,220.502594 
	C911.532654,222.830734 908.307495,225.556213 903.483887,224.068100 
z"/>
<path fill="#A7A7A7" opacity="1.000000" stroke="none" 
	d="
M935.046753,130.915741 
	C931.672241,130.428146 932.961670,127.677536 934.257263,127.579391 
	C937.535400,127.331116 941.083984,129.149521 944.194885,128.517960 
	C950.148987,127.309196 948.290955,132.035065 950.023132,135.233826 
	C951.465698,133.409424 952.688660,131.775345 954.016479,130.231445 
	C954.475769,129.697403 955.312622,128.960419 955.766418,129.084763 
	C956.316833,129.235580 956.985107,130.186462 957.010376,130.814957 
	C957.136230,133.950912 957.067932,137.094635 957.067932,141.281372 
	C953.797546,140.544281 951.108887,139.938309 948.078491,139.255310 
	C947.209961,139.611053 945.820068,140.180313 944.430176,140.749573 
	C943.987549,139.290359 943.509277,137.840775 943.111572,136.369415 
	C942.633423,134.600830 942.223999,132.813690 941.305908,130.604401 
	C938.685486,128.747314 936.596130,127.726959 935.046753,130.915741 
z"/>
<path fill="#7A7A7A" opacity="1.000000" stroke="none" 
	d="
M829.106934,175.558563 
	C827.978516,175.592773 826.188843,175.399231 825.994141,174.736923 
	C824.549133,169.819916 820.457275,170.302155 817.377747,171.260773 
	C814.544373,172.142792 812.296631,174.906296 809.440308,176.907990 
	C809.152710,171.485855 809.215698,165.996704 809.693970,160.443054 
	C810.380737,160.619461 810.652100,160.860382 810.934998,161.518768 
	C811.056335,165.203461 810.501160,169.281326 815.849670,165.481522 
	C816.665833,164.901718 818.115112,164.897263 819.200317,165.071274 
	C822.501648,165.600571 825.768066,166.347565 829.048035,167.009796 
	C829.093445,169.711105 829.138794,172.412415 829.106934,175.558563 
z"/>
<path fill="#828282" opacity="1.000000" stroke="none" 
	d="
M789.085938,180.639313 
	C787.974182,179.659515 786.561584,178.469818 786.079712,176.979233 
	C783.582886,169.255463 781.323853,161.454803 778.932556,153.243011 
	C779.355164,150.942810 779.827026,149.080521 780.652100,147.503036 
	C783.132935,155.342453 785.260620,162.897064 787.307495,170.164749 
	C789.601196,169.768188 791.468262,169.445419 793.335327,169.122650 
	C791.961670,172.845306 790.588074,176.567963 789.085938,180.639313 
z"/>
<path fill="#676767" opacity="1.000000" stroke="none" 
	d="
M783.450806,141.895874 
	C788.548035,143.579300 786.946960,148.713348 788.967407,151.951797 
	C790.407288,154.259598 791.373657,156.862793 792.747498,159.745789 
	C795.137268,156.904312 796.731140,155.009247 798.675781,153.062439 
	C797.634766,156.936829 796.242920,160.862961 794.243347,164.791260 
	C792.312561,164.449997 790.989380,164.106583 789.376587,163.687988 
	C786.238464,157.384476 781.687012,150.906860 782.837769,142.663177 
	C782.800964,142.326096 782.931213,142.076004 783.450806,141.895874 
z"/>
<path fill="#979797" opacity="1.000000" stroke="none" 
	d="
M809.058777,185.382675 
	C815.463928,184.958862 821.838562,184.983185 828.619019,185.007065 
	C829.063965,187.379791 829.103088,189.752960 829.096191,192.569656 
	C824.433167,192.347000 819.831848,191.450836 815.190918,191.132980 
	C813.444092,191.013336 811.605347,192.234131 809.432739,192.890778 
	C809.047424,190.568741 809.037842,188.199783 809.058777,185.382675 
z"/>
<path fill="#979797" opacity="1.000000" stroke="none" 
	d="
M725.502197,154.074387 
	C727.445068,155.920151 729.767578,157.782166 730.648132,160.174866 
	C733.635803,168.292664 736.118591,176.596542 738.759399,184.840469 
	C738.832458,185.068542 738.511536,185.422852 738.089233,185.955688 
	C735.861572,182.675186 733.624695,179.283905 732.044556,175.610153 
	C729.594360,169.913788 727.531128,164.046432 725.451050,158.199203 
	C725.035583,157.031250 725.280579,155.628387 725.502197,154.074387 
z"/>
<path fill="#7A7A7A" opacity="1.000000" stroke="none" 
	d="
M782.486084,142.780045 
	C781.687012,150.906860 786.238464,157.384476 789.376587,163.687988 
	C790.989380,164.106583 792.312561,164.449997 793.915161,164.957245 
	C794.099976,166.312607 794.005310,167.504166 793.622925,168.909180 
	C791.468262,169.445419 789.601196,169.768188 787.307495,170.164749 
	C785.260620,162.897064 783.132935,155.342453 780.979492,147.341400 
	C781.347290,145.562271 781.740845,144.229599 782.486084,142.780045 
z"/>
<path fill="#676767" opacity="1.000000" stroke="none" 
	d="
M829.124329,166.594986 
	C825.768066,166.347565 822.501648,165.600571 819.200317,165.071274 
	C818.115112,164.897263 816.665833,164.901718 815.849670,165.481522 
	C810.501160,169.281326 811.056335,165.203461 811.406738,161.488388 
	C815.773865,161.067810 819.918701,160.309875 823.504578,161.396439 
	C825.924316,162.129623 827.241150,161.831894 828.935547,160.659180 
	C829.027405,161.145325 829.119263,161.631470 829.089600,162.471680 
	C829.045593,163.943878 829.123108,165.062027 829.124329,166.594986 
z"/>
<path fill="#979797" opacity="1.000000" stroke="none" 
	d="
M872.894226,202.690399 
	C870.263245,207.554749 868.844849,203.468460 867.382690,201.993729 
	C865.819763,200.417343 864.718384,198.383270 863.221069,196.265381 
	C863.423767,194.374924 863.820923,192.768082 864.581970,191.092148 
	C865.433105,191.481674 865.920227,191.940292 866.148804,192.755188 
	C866.241760,193.748581 866.593140,194.385712 866.944580,195.022858 
	C868.897217,197.466690 870.849854,199.910522 872.894226,202.690399 
z"/>
<path fill="#676767" opacity="1.000000" stroke="none" 
	d="
M932.877197,182.394196 
	C932.403442,182.844177 931.988342,182.838959 931.273071,182.367401 
	C930.592590,178.241821 930.212341,174.582611 929.856079,170.479645 
	C929.793518,167.644119 929.706970,165.252350 929.620422,162.860580 
	C929.672241,162.445465 929.724060,162.030365 929.880615,161.319336 
	C930.862854,162.578033 932.378052,164.083801 932.501526,165.696167 
	C932.914551,171.089890 932.829956,176.521744 932.877197,182.394196 
z"/>
<path fill="#A7A7A7" opacity="1.000000" stroke="none" 
	d="
M745.077026,202.943146 
	C746.351807,205.512573 747.770020,208.023270 748.854675,210.670609 
	C749.675964,212.675003 750.071838,214.853714 750.795349,217.451508 
	C749.755920,217.319794 748.779846,217.196106 747.464722,217.021759 
	C745.813965,213.213043 744.502380,209.455017 743.489136,205.287018 
	C744.217285,204.232437 744.647156,203.587784 745.077026,202.943146 
z"/>
<path fill="#828282" opacity="1.000000" stroke="none" 
	d="
M848.550964,152.987000 
	C849.334412,154.148849 849.761292,155.463547 850.576782,157.181915 
	C850.972900,158.051727 850.980347,158.517883 850.918701,159.356812 
	C850.222473,162.807999 849.595276,165.886398 848.968140,168.964783 
	C848.968079,168.964783 848.997559,169.000000 848.654907,168.935410 
	C847.508911,167.904465 846.705688,166.938110 845.902344,165.971741 
	C846.666382,161.694443 847.430420,157.417145 848.550964,152.987000 
z"/>
<path fill="#979797" opacity="1.000000" stroke="none" 
	d="
M720.662476,135.035065 
	C722.029602,138.328873 723.097351,141.658936 724.043640,145.023163 
	C724.321350,146.010315 724.254333,147.094421 724.213867,148.448532 
	C719.097717,146.773224 720.133179,141.837585 718.840820,137.640594 
	C719.335449,136.520218 719.826111,135.802292 720.662476,135.035065 
z"/>
<path fill="#8B8B8B" opacity="1.000000" stroke="none" 
	d="
M894.885986,129.273285 
	C893.232605,129.236893 891.579163,129.200516 889.075073,129.130463 
	C885.913574,129.172607 883.602783,129.248398 881.201050,129.223297 
	C881.110107,129.122421 880.928406,128.920517 880.928406,128.920517 
	C887.381714,125.709404 893.939697,126.778038 900.309692,128.800323 
	C898.366699,129.197357 896.626343,129.235321 894.885986,129.273285 
z"/>
<path fill="#7A7A7A" opacity="1.000000" stroke="none" 
	d="
M809.536255,224.958252 
	C809.985168,224.254471 810.859985,223.159378 811.801147,223.099060 
	C815.210327,222.880554 818.641846,223.009369 822.527222,222.980072 
	C824.913086,223.324341 826.836548,223.695633 828.830383,224.433533 
	C822.598022,224.880646 816.295288,224.961197 809.536255,224.958252 
z"/>
<path fill="#8B8B8B" opacity="1.000000" stroke="none" 
	d="
M751.903442,223.446960 
	C752.638550,222.993530 753.444519,222.971497 754.651184,222.901367 
	C760.402588,222.902466 765.753418,222.951675 771.575684,222.999969 
	C771.354980,223.682419 770.679504,224.937576 769.968140,224.958359 
	C764.429504,225.120041 758.883606,225.071594 753.341370,224.991211 
	C752.880371,224.984528 752.429749,224.266083 751.903442,223.446960 
z"/>
<path fill="#979797" opacity="1.000000" stroke="none" 
	d="
M745.060059,202.549881 
	C744.647156,203.587784 744.217285,204.232437 743.477661,204.919830 
	C742.199524,202.327515 741.108215,199.729141 740.307861,197.044022 
	C739.801758,195.346161 739.729980,193.518845 739.549438,191.387360 
	C740.519287,191.658081 741.403198,192.291031 742.614380,192.967651 
	C743.642090,196.059769 744.342529,199.108200 745.060059,202.549881 
z"/>
<path fill="#979797" opacity="1.000000" stroke="none" 
	d="
M845.585571,166.178436 
	C846.705688,166.938110 847.508911,167.904465 848.637634,168.918274 
	C848.963074,171.378525 848.963074,173.791290 848.963074,176.346939 
	C844.806519,176.738876 845.060974,174.113724 844.983093,171.308258 
	C845.052063,169.392731 845.160400,167.888931 845.585571,166.178436 
z"/>
<path fill="#7A7A7A" opacity="1.000000" stroke="none" 
	d="
M935.433838,131.039520 
	C936.596130,127.726959 938.685486,128.747314 940.885010,130.534866 
	C940.328064,132.206085 939.398193,133.465469 939.174927,134.839691 
	C938.868652,136.724258 939.098267,138.695938 939.098267,140.630310 
	C938.627380,140.684860 938.156433,140.739426 937.685547,140.793991 
	C937.064026,137.583755 936.442505,134.373535 935.433838,131.039520 
z"/>
<path fill="#555555" opacity="1.000000" stroke="none" 
	d="
M895.039917,129.627930 
	C896.626343,129.235321 898.366699,129.197357 900.536499,129.090958 
	C902.764526,129.542816 904.563171,130.063080 906.589478,130.832169 
	C902.942749,130.714859 899.068359,130.348724 895.039917,129.627930 
z"/>
<path fill="#8B8B8B" opacity="1.000000" stroke="none" 
	d="
M875.077087,131.260925 
	C874.610718,131.207916 874.144348,131.154907 873.330322,131.045700 
	C875.430359,130.268097 877.877930,129.546707 880.626953,128.872925 
	C880.928406,128.920517 881.110107,129.122421 881.083740,129.475006 
	C881.015808,130.195892 880.974182,130.564178 880.932556,130.932480 
	C880.932556,130.932480 880.938232,130.981094 880.632263,130.948563 
	C879.885010,130.946304 879.443726,130.976578 878.608276,130.994568 
	C877.168457,131.075165 876.122803,131.168045 875.077087,131.260925 
z"/>
<path fill="#676767" opacity="1.000000" stroke="none" 
	d="
M801.136841,148.502197 
	C800.864807,148.330414 800.828979,147.923004 800.731812,147.214264 
	C800.768066,145.866760 800.865479,144.820587 800.981445,143.387115 
	C801.000000,142.999802 800.986755,143.014694 800.986755,143.014694 
	C801.419556,143.002533 801.852356,142.990387 802.609802,142.970551 
	C802.414001,144.730774 801.893555,146.498688 801.136841,148.502197 
z"/>
<path fill="#A7A7A7" opacity="1.000000" stroke="none" 
	d="
M729.029968,106.599251 
	C728.316040,105.350906 727.632019,103.701302 726.944519,101.664673 
	C727.647339,102.917763 728.353638,104.557877 729.029968,106.599251 
z"/>
<path fill="#676767" opacity="1.000000" stroke="none" 
	d="
M785.097656,135.292664 
	C787.809265,136.574738 787.830139,137.927658 784.512512,139.002808 
	C784.411621,137.884735 784.669128,136.749008 785.097656,135.292664 
z"/>
<path fill="#676767" opacity="1.000000" stroke="none" 
	d="
M802.998474,139.001221 
	C803.399170,138.983704 803.799866,138.966187 804.501465,138.952621 
	C804.348267,140.132523 803.894226,141.308472 803.194946,142.702118 
	C802.944092,141.873688 802.938477,140.827560 802.966431,139.390717 
	C803.000000,139.000000 802.998474,139.001221 802.998474,139.001221 
z"/>
<path fill="#A7A7A7" opacity="1.000000" stroke="none" 
	d="
M866.938599,194.650757 
	C866.593140,194.385712 866.241760,193.748581 866.125244,193.026215 
	C866.551025,193.386856 866.741821,193.832748 866.938599,194.650757 
z"/>
<path fill="#A7A7A7" opacity="1.000000" stroke="none" 
	d="
M783.441895,195.156982 
	C783.467224,194.517731 783.817261,193.805130 784.488281,193.030045 
	C784.461670,193.672913 784.114075,194.378281 783.441895,195.156982 
z"/>
<path fill="#B8B8B8" opacity="1.000000" stroke="none" 
	d="
M766.534668,186.836914 
	C766.506531,187.465820 766.160645,188.185410 765.493530,188.971420 
	C765.520508,188.334427 765.868713,187.631027 766.534668,186.836914 
z"/>
<path fill="#AFAFAF" opacity="1.000000" stroke="none" 
	d="
M745.016724,150.656738 
	C744.480286,150.711624 743.954590,150.425522 743.428894,150.139420 
	C743.690735,149.790619 743.952515,149.441803 744.491821,149.038773 
	C744.855347,149.428299 744.941406,149.872025 745.016724,150.656738 
z"/>
<path fill="#F5F5F5" opacity="1.000000" stroke="none" 
	d="
M449.075623,191.258453 
	C453.070740,189.072693 456.684204,186.473145 460.689209,185.521591 
	C468.708374,183.616348 476.940277,182.603622 485.091217,181.264313 
	C485.500519,181.197067 485.974823,181.525436 486.368439,181.653229 
	C487.613556,193.647324 480.304382,204.781113 469.153992,207.577744 
	C463.346832,209.034225 458.326935,208.712357 453.038757,206.915070 
	C447.295502,204.963120 445.303802,197.500946 449.075623,191.258453 
z"/>
<path fill="#121212" opacity="1.000000" stroke="none" 
	d="
M489.087524,224.797455 
	C489.100800,220.358185 489.100800,216.015579 489.100800,211.672974 
	C489.810455,211.701721 490.520142,211.730469 491.229797,211.759216 
	C490.822174,216.065521 490.414551,220.371826 489.637939,224.792587 
	C489.268951,224.907043 489.074249,224.894119 489.087524,224.797455 
z"/>
<path fill="#F5F5F5" opacity="1.000000" stroke="none" 
	d="
M356.777771,150.653412 
	C364.895569,146.080948 372.815308,146.108185 380.542908,150.328110 
	C386.701538,153.691238 390.195801,160.222275 389.012543,166.862610 
	C374.555542,166.862610 360.045624,166.862610 345.347321,166.862610 
	C347.367737,160.100266 349.408295,153.744522 356.777771,150.653412 
z"/>
<path fill="#121212" opacity="1.000000" stroke="none" 
	d="
M360.006104,169.063065 
	C369.771057,169.063141 379.036896,169.063141 388.302765,169.063141 
	C388.304413,169.482666 388.306061,169.902176 388.307709,170.321701 
	C374.113556,170.321701 359.919373,170.321701 345.725220,170.321701 
	C345.706909,169.902130 345.688599,169.482559 345.670319,169.062988 
	C350.282562,169.062988 354.894775,169.062988 360.006104,169.063065 
z"/>
<path fill="#F5F5F5" opacity="1.000000" stroke="none" 
	d="
M618.097717,167.140228 
	C616.142395,167.139709 614.675964,167.139709 613.253784,167.139709 
	C612.145630,156.273987 624.111023,147.074997 635.873169,147.341949 
	C648.579041,147.630325 656.088013,155.251038 656.458252,167.140762 
	C643.828186,167.140762 631.207397,167.140762 618.097717,167.140228 
z"/>
<path fill="#121212" opacity="1.000000" stroke="none" 
	d="
M613.980530,170.635437 
	C614.337463,169.964172 615.024414,169.132706 615.715210,169.129410 
	C628.823486,169.066727 641.932312,169.096909 655.040894,169.138092 
	C655.470276,169.139435 655.898682,169.459610 656.321594,170.860794 
	C642.318542,170.860794 628.315430,170.860794 613.980530,170.635437 
z"/>
<path fill="#121212" opacity="1.000000" stroke="none" 
	d="
M638.442261,225.000412 
	C639.388245,225.204529 639.921021,225.399170 640.453857,225.593811 
	C640.422974,225.860626 640.392029,226.127457 640.361145,226.394287 
	C636.825684,226.394287 633.290161,226.394287 629.754700,226.394287 
	C629.723938,225.926498 629.693176,225.458725 629.662415,224.990936 
	C632.451294,224.990936 635.240173,224.990936 638.442261,225.000412 
z"/>
<path fill="#121212" opacity="1.000000" stroke="none" 
	d="
M539.007324,159.111435 
	C539.007324,173.827789 539.007324,188.063431 539.007324,202.299088 
	C538.579956,202.298508 538.152588,202.297913 537.725220,202.297333 
	C537.725220,185.436386 537.725220,168.575439 537.725220,151.714493 
	C538.152588,151.689087 538.579956,151.663681 539.007324,151.638275 
	C539.007324,153.969101 539.007324,156.299911 539.007324,159.111435 
z"/>
<path fill="#121212" opacity="1.000000" stroke="none" 
	d="
M539.007324,117.086182 
	C539.007324,121.143822 539.007324,124.726532 539.007324,128.309235 
	C538.579468,128.308731 538.151611,128.308228 537.723755,128.307724 
	C537.723755,122.112564 537.723755,115.917397 537.723755,109.722237 
	C538.151611,109.694000 538.579468,109.665756 539.007324,109.637520 
	C539.007324,111.962097 539.007324,114.286674 539.007324,117.086182 
z"/>
<path fill="#979797" opacity="1.000000" stroke="none" 
	d="
M708.980591,222.633514 
	C707.921021,223.021912 706.867920,223.007477 705.474487,222.627090 
	C707.585999,218.518173 709.389404,214.709442 709.093872,209.931961 
	C708.714478,203.798935 709.048767,197.624146 708.957947,191.469070 
	C708.936768,190.034988 708.345215,188.618713 708.183411,187.175491 
	C707.786316,183.635071 706.112061,179.441101 707.411987,176.660065 
	C710.974426,169.038605 707.326965,162.804199 705.347168,156.069519 
	C703.351501,149.280533 698.049744,143.557343 698.843994,135.837402 
	C698.900391,135.288971 697.634399,134.604507 696.983337,133.983307 
	C696.983337,129.554901 696.983337,125.126503 696.983337,120.698105 
	C697.340576,120.633820 697.697876,120.569534 698.055115,120.505249 
	C698.361206,121.106270 698.981934,121.738121 698.926514,122.303726 
	C697.990173,131.861176 702.954529,139.896240 705.564575,148.541107 
	C707.507507,154.976486 709.375183,161.444427 710.958374,167.974960 
	C711.944702,172.043427 712.681396,176.239517 712.875183,180.408752 
	C712.998962,183.071701 711.901245,185.785568 711.403992,188.486328 
	C711.226746,189.448990 711.046692,190.455582 711.138916,191.416122 
	C711.713135,197.397888 713.034180,203.402466 712.766663,209.339081 
	C712.570923,213.684219 710.321289,217.936844 708.980591,222.633514 
z"/>
<path fill="#8B8B8B" opacity="1.000000" stroke="none" 
	d="
M696.981201,134.232117 
	C697.634399,134.604507 698.900391,135.288971 698.843994,135.837402 
	C698.049744,143.557343 703.351501,149.280533 705.347168,156.069519 
	C707.326965,162.804199 710.974426,169.038605 707.411987,176.660065 
	C706.112061,179.441101 707.786316,183.635071 708.183411,187.175491 
	C708.345215,188.618713 708.936768,190.034988 708.957947,191.469070 
	C709.048767,197.624146 708.714478,203.798935 709.093872,209.931961 
	C709.389404,214.709442 707.585999,218.518173 705.079285,222.614441 
	C704.479614,221.883224 703.171082,220.359421 703.504333,219.779968 
	C708.610107,210.903030 708.171875,200.930527 706.522461,191.879593 
	C704.981384,183.423080 706.362305,175.033966 704.741516,166.917633 
	C703.642883,161.416428 700.155212,156.392334 697.370911,150.623596 
	C696.996765,145.054413 696.987610,140.016510 696.978516,134.978592 
	C696.978516,134.978592 696.979126,134.480942 696.981201,134.232117 
z"/>
<path fill="#979797" opacity="1.000000" stroke="none" 
	d="
M696.586426,135.077942 
	C696.987610,140.016510 696.996765,145.054413 697.018555,150.562775 
	C697.010193,173.268921 697.012390,195.504700 696.921875,217.740128 
	C696.915039,219.426514 696.250488,221.110199 695.519531,222.929749 
	C695.109863,194.944305 695.058167,166.824249 695.083862,138.704269 
	C695.084961,137.528275 695.807678,136.352936 696.586426,135.077942 
z"/>
<path fill="#282828" opacity="1.000000" stroke="none" 
	d="
M827.041016,143.037598 
	C827.037964,143.478912 827.034973,143.920242 826.640137,144.678833 
	C824.034363,145.059128 821.588318,144.531967 819.649841,145.294815 
	C813.613708,147.670181 813.317566,147.484192 812.927490,141.185699 
	C812.594604,135.811035 812.036438,130.500610 805.394958,128.359207 
	C803.527893,127.757210 801.300781,124.735931 801.244751,122.767220 
	C801.116028,118.247162 802.136353,113.678421 802.852295,109.155075 
	C803.486755,105.146790 804.339783,101.173103 805.096313,97.184151 
	C811.152771,97.160210 817.209656,97.168198 823.265564,97.095299 
	C825.431335,97.069229 827.300110,97.215012 827.016479,101.017044 
	C827.019653,115.617821 827.030334,129.327713 827.041016,143.037598 
z"/>
<path fill="#363636" opacity="1.000000" stroke="none" 
	d="
M804.727051,97.192802 
	C804.339783,101.173103 803.486755,105.146790 802.852295,109.155075 
	C802.136353,113.678421 801.116028,118.247162 801.244751,122.767220 
	C801.300781,124.735931 803.527893,127.757210 805.394958,128.359207 
	C812.036438,130.500610 812.594604,135.811035 812.927490,141.185699 
	C813.317566,147.484192 813.613708,147.670181 819.649841,145.294815 
	C821.588318,144.531967 824.034363,145.059128 826.636597,145.009811 
	C827.024902,147.118225 827.024902,149.212936 827.024902,152.191650 
	C821.164734,151.044617 816.023499,150.038284 810.491943,149.005707 
	C809.359497,143.659195 811.469910,137.727295 806.383545,133.184113 
	C802.950928,128.096985 803.474670,134.627182 802.117004,134.507812 
	C792.485962,121.322372 797.619995,109.208641 804.727051,97.192802 
z"/>
<path fill="#363636" opacity="1.000000" stroke="none" 
	d="
M827.427002,142.933441 
	C827.030334,129.327713 827.019653,115.617821 827.024475,101.435440 
	C827.650452,101.952370 828.782898,102.936897 828.792236,103.931961 
	C828.907471,116.204582 828.875671,128.478821 828.808228,140.752228 
	C828.804382,141.446396 828.159485,142.137024 827.427002,142.933441 
z"/>
<path fill="#555555" opacity="1.000000" stroke="none" 
	d="
M829.004944,160.339447 
	C827.241150,161.831894 825.924316,162.129623 823.504578,161.396439 
	C819.918701,160.309875 815.773865,161.067810 811.395264,161.070923 
	C810.652100,160.860382 810.380737,160.619461 809.985596,160.132355 
	C809.861938,159.886154 810.015198,159.427170 810.098389,159.199844 
	C813.604065,158.369186 817.052795,157.185959 820.441040,157.339233 
	C823.343994,157.470566 827.242310,155.918381 829.004944,160.339447 
z"/>
<path fill="#676767" opacity="1.000000" stroke="none" 
	d="
M803.001221,138.999390 
	C802.500488,138.702789 801.998596,138.406784 801.496643,138.110779 
	C801.671082,137.903687 801.845520,137.696594 802.019958,137.489502 
	C802.314697,137.809021 802.609436,138.128525 802.951294,138.724609 
	C802.998474,139.001221 803.000000,139.000000 803.001221,138.999390 
z"/>
<path fill="#676767" opacity="1.000000" stroke="none" 
	d="
M801.007446,142.993011 
	C800.510437,142.695374 800.005920,142.404541 799.501404,142.113708 
	C799.674866,141.906982 799.848328,141.700272 800.021729,141.493561 
	C800.312927,141.815796 800.604187,142.138046 800.941040,142.737488 
	C800.986755,143.014694 801.000000,142.999802 801.007446,142.993011 
z"/>
<path fill="#979797" opacity="1.000000" stroke="none" 
	d="
M849.317383,168.924545 
	C849.595276,165.886398 850.222473,162.807999 851.266357,159.303680 
	C852.096741,158.614716 852.484375,158.291656 852.928528,158.098724 
	C855.190674,157.116135 857.888123,154.955093 859.617920,155.555511 
	C861.268799,156.128510 861.873718,159.613617 863.023376,161.773407 
	C863.633850,162.920273 864.424438,163.971268 865.186035,165.423096 
	C867.404236,166.817871 869.523804,168.616806 871.744385,168.751587 
	C878.812622,169.180603 885.918396,168.990265 892.964600,169.364563 
	C892.290222,170.783798 891.661011,171.877701 890.561401,172.984619 
	C883.056335,173.003281 876.021729,173.008896 868.987061,173.014511 
	C868.547424,173.010742 868.107788,173.006973 867.338623,172.996063 
	C864.201843,170.193451 860.518677,168.367508 860.059509,163.415222 
	C859.852600,161.183746 856.639404,159.808304 854.325623,162.744629 
	C852.735840,164.762238 851.217102,166.835754 849.317383,168.924545 
z"/>
<path fill="#484848" opacity="1.000000" stroke="none" 
	d="
M879.002441,131.006851 
	C879.443726,130.976578 879.885010,130.946304 880.656738,130.949463 
	C884.065918,132.448242 887.060913,134.135300 890.239502,135.336594 
	C899.062378,138.671097 906.440247,144.851624 910.662659,152.393265 
	C915.199585,160.496826 923.186157,159.014740 929.274048,162.898148 
	C929.706970,165.252350 929.793518,167.644119 929.490051,170.499359 
	C923.487671,168.499802 917.963257,165.281006 911.638000,168.943283 
	C911.519531,169.011902 911.317505,168.936295 911.145386,168.626648 
	C911.113525,167.922867 911.090698,167.520462 911.075073,167.075836 
	C911.082336,167.033630 911.160583,167.068436 911.497559,166.997559 
	C911.619019,165.612457 911.403503,164.298233 911.088257,162.603607 
	C909.704712,154.043152 903.884155,150.043640 896.990845,147.032593 
	C895.285889,146.330460 893.580872,145.628326 891.448364,144.496185 
	C891.137451,141.212952 891.301758,138.321579 886.981445,139.020294 
	C886.981445,139.020294 887.000000,139.000000 886.922485,138.630646 
	C884.895630,137.841995 882.946411,137.422714 880.997131,137.003448 
	C880.997131,137.003433 881.000000,137.000000 880.943604,136.646133 
	C880.258911,134.530472 879.630676,132.768661 879.002441,131.006851 
z"/>
<path fill="#555555" opacity="1.000000" stroke="none" 
	d="
M881.367432,130.975418 
	C880.974182,130.564178 881.015808,130.195892 881.174683,129.575897 
	C883.602783,129.248398 885.913574,129.172607 888.662537,129.161713 
	C886.667847,129.823853 884.235107,130.421112 881.367432,130.975418 
z"/>
<path fill="#8B8B8B" opacity="1.000000" stroke="none" 
	d="
M868.686401,217.041122 
	C868.538940,217.637283 868.073242,218.269424 867.280762,218.918961 
	C867.425293,218.316605 867.896667,217.696854 868.686401,217.041122 
z"/>
<path fill="#A7A7A7" opacity="1.000000" stroke="none" 
	d="
M869.064331,173.379822 
	C876.021729,173.008896 883.056335,173.003281 890.889038,172.989990 
	C892.124695,172.988083 892.562317,172.993835 893.046875,173.327972 
	C893.717957,176.076157 894.342102,178.495972 894.729736,180.947021 
	C894.493164,180.978241 894.020447,181.044312 893.551636,181.009445 
	C885.706787,180.941284 878.330688,180.908005 870.954590,180.874725 
	C871.784241,179.199127 872.613892,177.523544 873.612793,175.506088 
	C872.676147,175.137207 870.908875,174.441162 869.064331,173.379822 
z"/>
<path fill="#555555" opacity="1.000000" stroke="none" 
	d="
M911.154541,168.927979 
	C911.317505,168.936295 911.519531,169.011902 911.638000,168.943283 
	C917.963257,165.281006 923.487671,168.499802 929.466064,170.943115 
	C930.212341,174.582611 930.592590,178.241821 930.963196,182.337952 
	C923.624329,182.825333 916.295227,182.875793 908.490479,182.589050 
	C908.025879,181.861862 908.036804,181.471878 908.479919,181.063843 
	C910.940613,181.029831 912.969055,181.013870 915.372803,181.008057 
	C916.498718,181.011780 917.249329,181.005371 918.373047,180.997406 
	C919.491699,180.991714 920.237305,180.987595 921.430542,180.994583 
	C922.863953,181.006332 923.942383,181.264114 924.814392,180.949615 
	C926.259338,180.428482 927.571472,179.538956 928.939514,178.804596 
	C927.953125,177.448730 927.204651,175.788788 925.934814,174.795120 
	C922.406250,172.034027 918.432922,170.441162 913.753906,170.887512 
	C912.956970,170.963531 912.024414,169.617188 911.154541,168.927979 
z"/>
<path fill="#7A7A7A" opacity="1.000000" stroke="none" 
	d="
M870.547607,180.909607 
	C878.330688,180.908005 885.706787,180.941284 893.542114,181.310577 
	C894.015686,182.048050 894.029968,182.449539 894.044250,182.851028 
	C884.568787,182.851028 875.093262,182.851028 865.617798,182.851028 
	C865.604309,182.328720 865.590881,181.806427 865.577393,181.284119 
	C867.098450,181.170914 868.619507,181.057709 870.547607,180.909607 
z"/>
<path fill="#676767" opacity="1.000000" stroke="none" 
	d="
M894.504150,182.889938 
	C894.029968,182.449539 894.015686,182.048050 894.010925,181.345428 
	C894.020447,181.044312 894.493164,180.978241 895.173340,180.989380 
	C898.217285,180.976501 900.581116,180.952515 903.370056,180.956940 
	C905.212708,181.017548 906.630188,181.049728 908.047729,181.081909 
	C908.036804,181.471878 908.025879,181.861862 908.026367,182.543793 
	C903.679932,182.866791 899.322021,182.897827 894.504150,182.889938 
z"/>
<path fill="#F5F5F5" opacity="1.000000" stroke="none" 
	d="
M896.529419,147.098343 
	C903.884155,150.043640 909.704712,154.043152 911.032959,163.009445 
	C911.105103,164.886597 911.132874,165.977509 911.160583,167.068436 
	C911.160583,167.068436 911.082336,167.033630 910.709595,167.173126 
	C907.228271,167.889420 904.119751,168.466217 900.575562,168.942291 
	C897.763245,168.907440 895.386475,168.973312 893.009705,169.039215 
	C885.918396,168.990265 878.812622,169.180603 871.744385,168.751587 
	C869.523804,168.616806 867.404236,166.817871 865.542725,165.332733 
	C866.882141,162.254196 867.917297,159.623566 869.103577,156.718185 
	C869.262573,156.029190 869.270447,155.614975 869.306030,155.210648 
	C869.333862,155.220551 869.388184,155.243332 869.741699,155.242935 
	C872.479614,153.204758 874.864136,151.166977 877.613892,149.140381 
	C879.129089,148.508484 880.278931,147.865372 881.428833,147.222260 
	C886.308533,147.202866 891.188232,147.183472 896.529419,147.098343 
z"/>
<path fill="#828282" opacity="1.000000" stroke="none" 
	d="
M877.248596,149.129196 
	C874.864136,151.166977 872.479614,153.204758 869.598145,154.913269 
	C867.295044,152.980194 865.709412,150.910538 863.613708,149.918762 
	C861.912048,149.113464 859.577148,149.387589 857.562805,149.586075 
	C856.031311,149.736969 854.562195,150.521057 853.065369,151.023422 
	C855.015930,148.578629 856.966553,146.133835 859.437256,143.351990 
	C867.067749,141.244797 871.532715,146.955795 877.248596,149.129196 
z"/>
<path fill="#8B8B8B" opacity="1.000000" stroke="none" 
	d="
M852.976318,151.368896 
	C854.562195,150.521057 856.031311,149.736969 857.562805,149.586075 
	C859.577148,149.387589 861.912048,149.113464 863.613708,149.918762 
	C865.709412,150.910538 867.295044,152.980194 869.244629,154.913666 
	C869.388184,155.243332 869.333862,155.220551 868.982666,155.172485 
	C868.227356,155.476242 867.823303,155.828064 867.419189,156.179871 
	C867.930237,156.450882 868.441345,156.721909 868.952393,156.992950 
	C867.917297,159.623566 866.882141,162.254196 865.490356,164.975189 
	C864.424438,163.971268 863.633850,162.920273 863.023376,161.773407 
	C861.873718,159.613617 861.268799,156.128510 859.617920,155.555511 
	C857.888123,154.955093 855.190674,157.116135 852.928528,158.098724 
	C852.484375,158.291656 852.096741,158.614716 851.335388,158.930878 
	C850.980347,158.517883 850.972900,158.051727 850.933716,157.235229 
	C851.563660,155.161362 852.225464,153.437866 852.976318,151.368896 
z"/>
<path fill="#7A7A7A" opacity="1.000000" stroke="none" 
	d="
M877.613892,149.140381 
	C871.532715,146.955795 867.067749,141.244797 859.521790,143.024719 
	C861.931335,139.988556 864.546570,138.704727 869.421204,139.939590 
	C874.362793,141.191406 876.770691,145.009735 881.060242,147.121292 
	C880.278931,147.865372 879.129089,148.508484 877.613892,149.140381 
z"/>
<path fill="#555555" opacity="1.000000" stroke="none" 
	d="
M878.608276,130.994568 
	C879.630676,132.768661 880.258911,134.530472 880.942383,136.647964 
	C877.856079,136.149078 874.714539,135.294510 870.881836,134.251877 
	C872.604248,133.231262 873.731750,132.563202 874.968140,131.578033 
	C876.122803,131.168045 877.168457,131.075165 878.608276,130.994568 
z"/>
<path fill="#555555" opacity="1.000000" stroke="none" 
	d="
M886.980896,139.396454 
	C891.301758,138.321579 891.137451,141.212952 891.041992,144.477600 
	C889.325562,144.889053 887.587891,144.889053 885.593872,144.889053 
	C886.122559,142.938217 886.551453,141.355423 886.980896,139.396454 
z"/>
<path fill="#555555" opacity="1.000000" stroke="none" 
	d="
M881.071960,137.379425 
	C882.946411,137.422714 884.895630,137.841995 886.913086,138.639893 
	C885.036499,138.597488 883.091614,138.176453 881.071960,137.379425 
z"/>
<path fill="#979797" opacity="1.000000" stroke="none" 
	d="
M911.000000,218.999695 
	C910.047913,219.700226 909.095886,220.401062 908.143799,221.101898 
	C907.910706,220.636490 907.677612,220.171082 907.444519,219.705673 
	C908.386353,219.470169 909.328186,219.234650 910.635010,218.999878 
	C911.000000,219.000610 911.000000,219.000000 911.000000,218.999695 
z"/>
<path fill="#828282" opacity="1.000000" stroke="none" 
	d="
M892.964600,169.364563 
	C895.386475,168.973312 897.763245,168.907440 900.521973,169.284637 
	C899.634949,170.780411 898.365845,171.833115 896.686890,172.924377 
	C895.184692,172.975174 894.092346,172.987381 893.000000,172.999588 
	C892.562317,172.993835 892.124695,172.988083 891.359375,172.976959 
	C891.661011,171.877701 892.290222,170.783798 892.964600,169.364563 
z"/>
<path fill="#676767" opacity="1.000000" stroke="none" 
	d="
M897.096802,172.885818 
	C898.365845,171.833115 899.634949,170.780411 900.957581,169.385345 
	C904.119751,168.466217 907.228271,167.889420 910.702393,167.215332 
	C911.090698,167.520462 911.113525,167.922867 911.145447,168.626617 
	C912.024414,169.617188 912.956970,170.963531 913.753906,170.887512 
	C918.432922,170.441162 922.406250,172.034027 925.934814,174.795120 
	C927.204651,175.788788 927.953125,177.448730 928.939514,178.804596 
	C927.571472,179.538956 926.259338,180.428482 924.814392,180.949615 
	C923.942383,181.264114 922.863953,181.006332 921.388245,180.660156 
	C919.932129,180.542725 918.966064,180.770844 918.000000,180.998962 
	C917.249329,181.005371 916.498718,181.011780 915.389221,180.675232 
	C915.031921,179.887939 915.033447,179.443604 915.282837,178.777313 
	C915.479309,173.473587 911.603333,175.404129 909.001709,174.997620 
	C909.000000,175.000000 909.004883,174.996338 908.927368,174.621582 
	C906.898438,173.834732 904.947144,173.422638 902.598877,173.000641 
	C901.144714,172.981934 900.087524,172.973114 898.707458,172.952606 
	C897.955383,172.922562 897.526062,172.904190 897.096802,172.885818 
z"/>
<path fill="#555555" opacity="1.000000" stroke="none" 
	d="
M911.497559,166.997559 
	C911.132874,165.977509 911.105103,164.886597 911.132690,163.389832 
	C911.403503,164.298233 911.619019,165.612457 911.497559,166.997559 
z"/>
<path fill="#979797" opacity="1.000000" stroke="none" 
	d="
M896.686890,172.924377 
	C897.526062,172.904190 897.955383,172.922562 898.753052,173.305115 
	C900.395996,176.089035 901.670471,178.508789 902.944946,180.928528 
	C900.581116,180.952515 898.217285,180.976501 895.409851,180.958160 
	C894.342102,178.495972 893.717957,176.076157 893.046875,173.327972 
	C894.092346,172.987381 895.184692,172.975174 896.686890,172.924377 
z"/>
<path fill="#828282" opacity="1.000000" stroke="none" 
	d="
M903.370056,180.956955 
	C901.670471,178.508789 900.395996,176.089035 899.075928,173.316788 
	C900.087524,172.973114 901.144714,172.981934 902.678711,173.374512 
	C905.105286,174.170959 907.055115,174.583633 909.004883,174.996338 
	C909.004883,174.996338 909.000000,175.000000 909.041016,175.373291 
	C909.709778,179.313446 912.382874,179.137146 915.035034,178.999283 
	C915.033447,179.443604 915.031921,179.887939 915.013977,180.665100 
	C912.969055,181.013870 910.940613,181.029831 908.479919,181.063843 
	C906.630188,181.049728 905.212708,181.017548 903.370056,180.956955 
z"/>
<path fill="#7A7A7A" opacity="1.000000" stroke="none" 
	d="
M918.373047,180.997406 
	C918.966064,180.770844 919.932129,180.542725 920.940552,180.649048 
	C920.237305,180.987595 919.491699,180.991714 918.373047,180.997406 
z"/>
<path fill="#828282" opacity="1.000000" stroke="none" 
	d="
M869.103577,156.718170 
	C868.441345,156.721909 867.930237,156.450882 867.419189,156.179871 
	C867.823303,155.828064 868.227356,155.476242 868.954834,155.162567 
	C869.270447,155.614975 869.262573,156.029190 869.103577,156.718170 
z"/>
<path fill="#7A7A7A" opacity="1.000000" stroke="none" 
	d="
M915.282776,178.777313 
	C912.382874,179.137146 909.709778,179.313446 909.042664,175.370911 
	C911.603333,175.404129 915.479309,173.473587 915.282776,178.777313 
z"/>
<path fill="#7A7A7A" opacity="1.000000" stroke="none" 
	d="
M908.927368,174.621582 
	C907.055115,174.583633 905.105286,174.170959 903.075684,173.384399 
	C904.947144,173.422638 906.898438,173.834732 908.927368,174.621582 
z"/>
</svg>