<?xml version="1.0" standalone="no"?>
<!DOCTYPE svg PUBLIC "-//W3C//DTD SVG 20010904//EN"
 "http://www.w3.org/TR/2001/REC-SVG-20010904/DTD/svg10.dtd">
<svg version="1.0" xmlns="http://www.w3.org/2000/svg"
 width="1244.000000pt" height="933.000000pt" viewBox="0 0 1244.000000 933.000000"
 preserveAspectRatio="xMidYMid meet">

<g transform="translate(0.000000,933.000000) scale(0.100000,-0.100000)"
fill="#000000" stroke="none">
<path d="M3622 9304 c-1 -14 2 -34 8 -43 8 -16 4 -19 -37 -25 -25 -3 -844 -6
-1819 -6 l-1774 0 0 -4615 0 -4615 6220 0 6220 0 0 4615 0 4615 -2227 0
c-1226 0 -2245 3 -2266 7 -25 4 -34 9 -26 14 10 6 10 13 1 34 -7 15 -10 31 -7
36 4 5 -202 9 -524 9 -367 0 -531 -3 -531 -11 0 -5 -5 -7 -12 -3 -6 4 -37 9
-69 12 -47 3 -60 1 -65 -12 -3 -8 1 -23 10 -31 9 -9 16 -21 16 -26 0 -5 10
-10 23 -10 16 -1 17 -3 5 -6 -22 -6 -58 14 -58 32 0 8 -4 15 -10 15 -5 0 -10
-4 -10 -9 0 -6 5 -13 10 -16 6 -3 10 -13 10 -21 0 -8 -4 -14 -10 -14 -5 0 -10
6 -10 14 0 9 -8 12 -25 8 -14 -2 -25 -9 -25 -14 0 -11 -60 -1 -74 13 -14 13
-29 11 -20 -2 4 -7 -1 -7 -16 1 -17 9 -21 9 -15 0 4 -7 2 -10 -6 -9 -8 1 -32
-1 -53 -6 -27 -5 -46 -4 -59 5 -15 9 -21 9 -27 0 -4 -7 -13 -9 -19 -6 -6 4 -9
12 -6 17 4 5 1 9 -5 9 -6 0 -13 -7 -17 -16 -5 -14 -42 -15 -324 -13 -248 3
-320 6 -323 16 -3 7 -10 13 -16 13 -6 0 -9 -4 -6 -9 6 -9 -40 -21 -84 -21 -24
0 -27 3 -23 28 l4 27 -25 -27 c-23 -26 -56 -30 -56 -7 0 5 -7 9 -15 9 -8 0
-15 4 -15 8 0 14 34 10 53 -6 20 -17 21 -14 7 24 -8 21 -14 24 -22 16 -7 -7
-21 -12 -31 -12 -16 0 -17 3 -8 14 7 8 8 16 4 19 -16 9 -228 4 -240 -6 -9 -6
-13 -6 -13 2 0 7 -221 11 -783 11 l-783 0 -2 -26z m1788 -5 c0 -5 -12 -9 -27
-9 -26 0 -26 1 -8 14 20 14 35 12 35 -5z m-120 1 c0 -5 -4 -10 -10 -10 -5 0
-10 5 -10 10 0 6 5 10 10 10 6 0 10 -4 10 -10z m60 0 c0 -5 -5 -10 -11 -10 -5
0 -7 5 -4 10 3 6 8 10 11 10 2 0 4 -4 4 -10z m1509 -31 c3 -9 -1 -8 -13 4 -10
9 -24 17 -32 17 -8 0 -12 5 -9 11 8 12 46 -10 54 -32z m41 28 c-14 -8 -27 -12
-30 -10 -7 6 23 23 40 23 8 0 4 -6 -10 -13z m-1580 -17 c0 -5 -2 -10 -4 -10
-3 0 -8 5 -11 10 -3 6 -1 10 4 10 6 0 11 -4 11 -10z m-50 -10 c0 -5 -5 -10
-11 -10 -5 0 -7 5 -4 10 3 6 8 10 11 10 2 0 4 -4 4 -10z m1541 -13 c-13 -13
-26 -3 -16 12 3 6 11 8 17 5 6 -4 6 -10 -1 -17z m99 14 c0 -5 -6 -14 -14 -20
-12 -10 -13 -8 -9 8 5 21 23 30 23 12z m-1740 -21 c0 -5 -5 -10 -11 -10 -5 0
-7 5 -4 10 3 6 8 10 11 10 2 0 4 -4 4 -10z m280 -10 c0 -5 -21 -9 -47 -8 l-48
1 45 7 c25 4 46 8 48 8 1 1 2 -2 2 -8z m-1628 -4097 c119 -56 199 -156 215
-268 l6 -45 -91 0 -90 0 -12 36 c-32 97 -125 149 -254 142 -175 -8 -278 -135
-278 -343 0 -226 120 -355 318 -343 118 8 194 64 219 165 l12 48 89 0 89 0 -2
-48 c-3 -107 -94 -235 -205 -289 -75 -37 -127 -47 -234 -48 -274 0 -454 179
-471 470 -15 262 105 460 325 537 58 21 82 23 182 20 104 -3 122 -6 182 -34z
m3903 -350 c72 -199 134 -365 137 -368 3 -3 63 153 133 347 70 194 132 361
137 371 8 16 22 17 121 15 l112 -3 0 -490 0 -490 -80 0 -80 0 -5 340 -5 340
-119 -325 c-65 -179 -123 -333 -128 -343 -8 -15 -21 -17 -90 -15 l-81 3 -123
335 -123 335 -1 -326 c0 -268 -3 -329 -14 -338 -9 -7 -41 -11 -83 -9 l-68 3
-3 480 c-1 264 0 486 3 493 3 9 33 12 116 10 l112 -3 132 -362z m-1371 301 c3
-9 6 -56 6 -104 l0 -89 73 -3 72 -3 0 -75 0 -75 -72 -3 -73 -3 0 -189 c0 -224
-2 -220 96 -220 l64 0 0 -80 0 -80 -82 0 c-145 1 -196 22 -235 100 -22 42 -23
56 -23 257 l0 212 -62 3 -63 3 -3 78 -3 77 66 0 65 0 0 85 0 84 43 11 c23 6
53 15 67 20 39 13 57 11 64 -6z m-1796 -268 c3 -92 0 -96 -73 -96 -62 0 -113
-26 -140 -71 -18 -30 -21 -57 -25 -259 l-5 -225 -85 0 -85 0 0 360 0 360 83 3
82 3 1 -58 c0 -49 2 -55 12 -39 46 73 107 107 187 103 l45 -2 3 -79z m535 50
c110 -53 169 -162 171 -316 l1 -75 -252 -3 c-286 -3 -273 2 -230 -82 51 -102
226 -123 294 -36 19 24 27 26 96 26 42 0 78 -4 81 -8 9 -15 -32 -90 -71 -129
-22 -22 -62 -50 -89 -64 -43 -21 -63 -24 -159 -24 -100 0 -115 2 -161 27 -119
63 -184 182 -184 338 0 180 82 311 230 364 73 26 201 18 273 -18z m736 18 c36
-10 66 -29 96 -58 61 -62 67 -97 63 -406 l-3 -255 -74 -3 c-84 -3 -91 1 -91
63 l0 39 -37 -36 c-57 -55 -115 -78 -201 -78 -81 0 -132 17 -175 58 -45 43
-60 81 -61 152 -1 54 4 73 26 112 40 67 103 95 263 119 140 20 162 29 171 65
21 83 -98 132 -204 84 -24 -11 -50 -32 -60 -50 -17 -29 -18 -30 -99 -30 -94 0
-97 4 -64 75 34 74 111 134 198 154 63 15 195 12 252 -5z m1209 1 c68 -21 151
-97 183 -167 17 -40 24 -77 27 -150 l4 -98 -252 0 -253 0 6 -37 c12 -75 70
-124 152 -131 67 -5 138 18 162 54 14 22 22 24 94 24 89 0 93 -4 60 -68 -25
-48 -84 -104 -141 -133 -62 -31 -206 -39 -279 -14 -79 26 -144 83 -181 158
-92 187 -37 433 118 529 77 48 203 62 300 33z m1925 -19 c108 -52 166 -158
170 -309 l2 -82 -252 -3 c-286 -3 -273 2 -230 -82 49 -99 201 -122 284 -44 34
32 40 34 109 34 40 0 75 -4 78 -9 12 -19 -51 -117 -100 -154 -68 -52 -136 -70
-243 -65 -106 5 -167 34 -234 108 -59 66 -87 149 -87 260 0 180 82 310 230
364 71 26 201 17 273 -18z m287 24 c0 -5 -11 -10 -25 -10 -24 0 -25 -2 -25
-65 0 -37 -4 -65 -10 -65 -6 0 -10 28 -10 65 0 63 -1 65 -26 65 -14 0 -23 4
-19 10 3 6 31 10 61 10 30 0 54 -4 54 -10z m70 -50 c13 -34 24 -59 26 -57 2 2
12 28 23 58 26 79 45 72 49 -18 2 -44 -1 -73 -7 -73 -5 0 -11 24 -13 53 l-3
52 -20 -52 c-11 -29 -25 -53 -32 -53 -6 0 -20 24 -30 53 l-18 52 -3 -52 c-4
-77 -22 -65 -22 15 0 104 17 111 50 22z"/>
<path d="M4876 4750 c-34 -11 -73 -45 -92 -82 -30 -58 -29 -58 147 -58 l162 0
-6 36 c-14 85 -112 133 -211 104z"/>
<path d="M5795 4504 c-5 -2 -59 -13 -120 -24 -93 -16 -114 -23 -132 -45 -77
-89 57 -170 178 -109 38 19 77 69 84 108 8 41 3 74 -10 70z"/>
<path d="M6840 4738 c-42 -22 -70 -56 -85 -105 l-6 -23 167 0 167 0 -7 33
c-20 100 -134 146 -236 95z"/>
<path d="M8745 4749 c-41 -11 -93 -67 -101 -107 l-6 -32 162 0 163 0 -6 36
c-14 86 -111 133 -212 103z"/>
<path d="M5464 9322 c5 -8 76 -4 76 4 0 2 -18 4 -41 4 -22 0 -38 -4 -35 -8z"/>
<path d="M5590 9315 c0 -8 6 -16 13 -17 25 -3 33 -5 60 -18 15 -7 27 -17 27
-22 0 -4 7 -8 15 -8 8 0 15 5 15 10 0 6 -6 10 -13 10 -8 0 -25 9 -38 21 -19
17 -21 22 -9 29 8 6 10 10 5 10 -6 0 -21 -7 -33 -16 -20 -14 -22 -14 -22 0 0
9 -4 16 -10 16 -5 0 -10 -7 -10 -15z"/>
<path d="M6454 9310 c0 -10 6 -16 13 -13 7 3 13 9 13 13 0 4 -6 10 -13 13 -7
3 -13 -3 -13 -13z"/>
<path d="M6496 9321 c-4 -5 1 -8 9 -7 21 3 31 16 12 16 -9 0 -18 -4 -21 -9z"/>
<path d="M6600 9319 c0 -5 5 -7 10 -4 6 3 10 8 10 11 0 2 -4 4 -10 4 -5 0 -10
-5 -10 -11z"/>
<path d="M6636 9315 c-3 -10 2 -12 20 -9 22 4 23 3 12 -15 -8 -14 -16 -17 -24
-10 -8 6 -13 5 -17 -5 -15 -39 44 -23 64 18 l17 32 -34 1 c-18 1 -35 -5 -38
-12z"/>
<path d="M6421 9304 c0 -11 3 -14 6 -6 3 7 2 16 -1 19 -3 4 -6 -2 -5 -13z"/>
<path d="M5510 9294 c0 -8 5 -12 10 -9 6 4 8 11 5 16 -9 14 -15 11 -15 -7z"/>
<path d="M5790 9290 c0 -11 4 -20 9 -20 5 0 7 9 4 20 -3 11 -7 20 -9 20 -2 0
-4 -9 -4 -20z"/>
<path d="M6360 9299 c0 -5 5 -7 10 -4 6 3 10 8 10 11 0 2 -4 4 -10 4 -5 0 -10
-5 -10 -11z"/>
<path d="M5573 9276 c1 -17 9 -31 17 -33 10 -3 11 -2 4 4 -7 4 -14 19 -17 33
-4 22 -5 21 -4 -4z"/>
<path d="M5738 9293 c7 -3 16 -2 19 1 4 3 -2 6 -13 5 -11 0 -14 -3 -6 -6z"/>
<path d="M6510 9285 c0 -8 5 -15 10 -15 6 0 10 7 10 15 0 8 -4 15 -10 15 -5 0
-10 -7 -10 -15z"/>
<path d="M6590 9290 c0 -5 5 -10 10 -10 6 0 10 5 10 10 0 6 -4 10 -10 10 -5 0
-10 -4 -10 -10z"/>
<path d="M6390 9271 c0 -6 5 -13 10 -16 6 -3 10 1 10 9 0 9 -4 16 -10 16 -5 0
-10 -4 -10 -9z"/>
<path d="M6450 9270 c0 -5 7 -10 15 -10 8 0 15 5 15 10 0 6 -7 10 -15 10 -8 0
-15 -4 -15 -10z"/>
<path d="M5925 9260 c27 -12 43 -12 25 0 -8 5 -22 9 -30 9 -10 0 -8 -3 5 -9z"/>
<path d="M5855 9250 c3 -5 8 -10 11 -10 2 0 4 5 4 10 0 6 -5 10 -11 10 -5 0
-7 -4 -4 -10z"/>
</g>
</svg>
