<svg version="1.1" id="Layer_1" xmlns="http://www.w3.org/2000/svg" xmlns:xlink="http://www.w3.org/1999/xlink" x="0px" y="0px"
	 width="100%" viewBox="0 0 592 240" enable-background="new 0 0 592 240" xml:space="preserve">
<path fill="#000000" opacity="1.000000" stroke="none" 
	d="
M82.999863,125.351334 
	C73.872932,125.351204 65.245995,125.351204 55.971516,125.351204 
	C56.610771,135.865921 59.051598,145.291000 63.940109,153.846390 
	C79.769043,181.548584 103.640686,195.541748 135.699768,193.564606 
	C159.673553,192.086060 178.159256,180.228821 191.799484,160.595795 
	C192.945541,158.946198 193.441467,155.709991 196.072418,156.449646 
	C199.525681,157.420471 203.098160,158.909348 205.553528,161.678940 
	C206.802902,163.088181 205.015564,164.785706 204.171890,166.120316 
	C191.467407,186.217651 173.649017,199.857117 150.452805,204.741180 
	C112.422470,212.748611 81.090591,201.068298 57.837345,169.570175 
	C46.792217,154.608810 42.469234,137.258224 41.985985,118.894669 
	C41.822372,112.677292 42.656673,112.090294 48.920494,112.082771 
	C67.249016,112.060753 85.578316,111.980141 103.905502,112.135529 
	C107.526840,112.166222 109.532257,110.945312 111.384972,107.804489 
	C121.123520,91.295189 143.377289,91.425430 153.054169,108.020081 
	C154.679428,110.807236 156.436142,112.157608 159.690308,112.126770 
	C172.852417,112.002045 186.016678,111.977821 199.178940,112.077232 
	C203.118073,112.106987 204.026718,110.472275 203.401993,106.828148 
	C197.640350,73.219093 170.251968,47.817619 135.996338,45.205944 
	C107.153923,43.006969 84.587708,54.543941 67.994255,78.092216 
	C66.926498,79.607513 66.311981,82.463593 63.810543,81.576172 
	C60.424278,80.374863 56.672188,79.309189 54.395706,76.301697 
	C53.277401,74.824287 55.079185,73.215988 55.956219,71.878212 
	C69.916985,50.583347 89.331795,37.185272 114.441528,32.815437 
	C164.718948,24.065685 210.964813,58.559132 217.165665,109.079742 
	C219.163635,125.357971 219.163620,125.357155 203.110977,125.355560 
	C189.114594,125.354164 175.117111,125.450371 161.122589,125.288948 
	C157.534882,125.247559 155.384048,126.220184 153.763962,129.673630 
	C149.456497,138.855545 141.905380,143.401306 131.777634,143.280334 
	C121.574577,143.158463 114.434280,138.060883 110.265450,128.907639 
	C109.025223,126.184570 107.352875,125.269211 104.493416,125.324394 
	C97.498001,125.459404 90.498009,125.357826 82.999863,125.351334 
M121.512383,121.028969 
	C121.838646,121.973221 122.076950,122.959625 122.505974,123.854622 
	C124.690453,128.411774 129.326920,130.868164 133.931137,129.965790 
	C139.042953,128.963928 142.626419,124.956024 142.861496,119.977699 
	C143.104614,114.829208 140.132355,110.754387 135.006622,109.209023 
	C128.141388,107.139214 122.575371,111.671379 121.512383,121.028969 
z"/>
<path fill="#000000" opacity="1.000000" stroke="none" 
	d="
M332.876587,81.943932 
	C337.976105,71.439659 343.157837,61.379742 347.760651,51.061565 
	C349.828369,46.426373 353.196198,46.516056 357.123444,46.634769 
	C360.928986,46.749805 360.985809,49.730667 361.597321,52.204502 
	C365.939819,69.772171 370.246582,87.348824 374.486359,104.941505 
	C374.984741,107.009460 376.536713,109.574860 373.086029,110.790291 
	C369.499390,112.053627 365.408569,110.517876 364.370087,107.269958 
	C363.513336,104.590401 362.851868,101.806549 362.495605,99.018852 
	C361.988434,95.049698 359.899750,93.575188 356.077026,94.100731 
	C355.261353,94.212868 354.396271,94.228745 353.587860,94.090523 
	C342.466248,92.188980 334.424713,95.043907 331.068085,107.115692 
	C329.857697,111.468819 325.541107,112.017036 319.531921,109.452209 
	C323.935974,100.381233 328.329376,91.332130 332.876587,81.943932 
M355.703674,67.729897 
	C355.126404,65.343391 354.549133,62.956886 353.608032,59.066280 
	C349.297668,68.590576 345.598938,76.763329 341.694641,85.390320 
	C347.889221,85.390320 353.265594,85.390320 359.013947,85.390320 
	C358.991089,79.289528 356.924011,73.994385 355.703674,67.729897 
z"/>
<path fill="#000000" opacity="1.000000" stroke="none" 
	d="
M300.128082,70.912354 
	C302.775024,71.999763 305.076050,72.966957 307.419739,73.816582 
	C322.843109,79.407791 321.445526,92.606461 315.545044,101.748459 
	C308.385437,112.841370 291.605835,114.724861 281.612488,106.147461 
	C279.036987,103.936905 278.221802,101.901344 280.600281,98.995110 
	C282.900940,96.183990 285.164948,96.149940 287.884796,98.254181 
	C291.813782,101.293922 295.937988,103.428581 301.228912,101.811684 
	C306.179718,100.298721 308.577576,97.136993 308.984955,92.047935 
	C309.388092,87.011887 306.345306,84.915985 302.307953,83.433022 
	C300.591980,82.802719 298.910736,82.074753 297.227844,81.358009 
	C283.645203,75.573219 281.504913,59.583881 293.070129,50.329590 
	C300.585083,44.316242 312.359039,44.283890 319.498016,50.190838 
	C321.676025,51.992989 322.833679,53.759537 320.845428,56.510944 
	C318.965210,59.112911 316.984924,60.034531 314.167725,57.968121 
	C311.091797,55.711926 307.656799,54.678272 303.828613,55.220078 
	C299.646362,55.812000 296.657806,58.054611 295.551575,62.132843 
	C294.488953,66.050171 296.292877,68.900223 300.128082,70.912354 
z"/>
<path fill="#000000" opacity="1.000000" stroke="none" 
	d="
M238.207062,96.327324 
	C237.289001,83.718605 240.884171,73.507729 251.684860,66.830986 
	C256.407593,63.911503 261.677399,63.245937 267.069061,64.965424 
	C271.914276,66.510635 275.247040,69.564941 275.670654,74.863693 
	C276.088928,80.095642 273.551392,83.844887 268.948364,86.117241 
	C264.289520,88.417137 259.260590,89.511574 254.181061,90.544403 
	C251.818100,91.024872 247.843857,90.184174 248.210648,94.760643 
	C248.550507,99.000862 250.407532,102.068893 255.000595,102.736290 
	C258.633545,103.264175 261.926086,102.394226 264.963837,100.357124 
	C266.203583,99.525780 267.482452,98.698097 268.851410,98.127625 
	C270.658264,97.374695 272.048035,98.277145 273.191864,99.681580 
	C274.333954,101.083923 274.262512,102.409874 272.998871,103.672089 
	C266.944153,109.719910 259.716278,112.644180 251.207611,110.936661 
	C243.624741,109.414932 239.696548,104.126549 238.207062,96.327324 
M252.564590,83.535782 
	C256.124603,82.755478 259.788574,82.298813 263.059387,80.554222 
	C265.222900,79.400246 267.051697,77.714233 266.315002,75.040352 
	C265.566956,72.325157 263.064087,71.976837 260.646027,72.034920 
	C256.135834,72.143257 250.822388,76.786087 249.919373,81.140976 
	C249.550598,82.919487 250.067184,83.675468 252.564590,83.535782 
z"/>
<path fill="#000000" opacity="1.000000" stroke="none" 
	d="
M417.881226,55.392105 
	C403.213226,55.561047 406.421570,53.376797 404.384735,67.732704 
	C402.587067,80.402885 401.319855,93.151672 400.000244,105.884605 
	C399.494476,110.765030 396.443542,111.264549 392.599548,110.962250 
	C388.126770,110.610504 389.069397,107.666557 389.441833,104.755302 
	C391.485809,88.777031 393.435883,72.786736 395.462616,56.442219 
	C391.447968,54.536659 387.258179,55.693951 383.239136,55.413246 
	C380.634125,55.231308 377.617676,55.931618 377.838715,51.615822 
	C378.032013,47.841652 379.780457,46.525612 383.566193,46.577736 
	C395.723328,46.745113 407.884735,46.583572 420.044312,46.612770 
	C422.024170,46.617523 425.051392,45.668709 424.801483,49.140934 
	C424.610046,51.800369 425.116211,55.671963 420.350922,55.378490 
	C419.687592,55.337639 419.018829,55.385014 417.881226,55.392105 
z"/>
<path fill="#000000" opacity="1.000000" stroke="none" 
	d="
M420.332001,184.255035 
	C420.216766,167.839325 420.195587,151.858978 420.062134,135.879562 
	C420.030884,132.134888 421.351654,130.397934 425.348633,130.665680 
	C429.492035,130.943222 433.668488,130.720901 437.830505,130.728760 
	C448.130524,130.748215 454.681580,134.108139 456.904327,140.502350 
	C459.679871,148.486603 457.630280,153.942200 448.888367,161.280411 
	C454.049072,163.349365 458.507782,166.080917 460.142975,171.705963 
	C463.046631,181.694534 456.899445,191.114792 446.249359,193.098618 
	C438.620239,194.519714 430.982330,193.505646 423.345093,193.336945 
	C421.240784,193.290466 420.375519,192.156693 420.377533,190.173065 
	C420.379395,188.345627 420.382507,186.518173 420.332001,184.255035 
M447.309662,189.112961 
	C454.246643,186.356155 457.042175,182.353577 456.748810,175.598480 
	C456.502655,169.931305 452.936554,166.037933 446.032623,164.152664 
	C439.824921,162.457504 433.463715,163.464844 427.169983,163.332703 
	C424.697845,163.280807 424.233887,165.046631 424.233673,167.067612 
	C424.232910,173.388214 424.272705,179.709305 424.205048,186.029221 
	C424.175781,188.764664 425.358429,189.983749 428.098541,189.901108 
	C434.240845,189.715820 440.405457,190.326462 447.309662,189.112961 
M424.212006,151.410187 
	C424.223907,153.075363 424.265961,154.741013 424.240265,156.405594 
	C424.205841,158.635529 425.188110,159.875168 427.495178,159.848465 
	C432.487915,159.790710 437.531158,160.135818 442.461273,159.544785 
	C449.971863,158.644394 454.269562,153.040070 453.867401,145.629227 
	C453.496338,138.791107 448.987122,134.673584 441.168976,134.274445 
	C437.181519,134.070877 433.170441,134.318893 429.184540,134.099197 
	C425.584473,133.900787 423.958618,135.178711 424.169769,138.946182 
	C424.383789,142.764343 424.214294,146.604019 424.212006,151.410187 
z"/>
<path fill="#000000" opacity="1.000000" stroke="none" 
	d="
M400.520386,181.329239 
	C392.504028,192.474808 379.926605,196.791763 367.262024,192.995331 
	C355.543671,189.482559 347.262848,178.502106 346.830597,165.063965 
	C346.414825,152.138077 349.239563,140.426819 361.740479,133.560135 
	C381.215210,122.862816 404.019104,135.642075 405.301941,157.860886 
	C405.771118,165.987579 404.832764,173.808289 400.520386,181.329239 
M351.251129,168.332123 
	C354.298065,185.056381 367.260956,193.857590 383.214294,189.624390 
	C395.153259,186.456390 399.998505,177.293884 401.354309,165.949921 
	C402.821320,153.675308 398.329742,138.638443 383.683899,134.439026 
	C363.390198,128.620224 347.644897,145.613495 351.251129,168.332123 
z"/>
<path fill="#000000" opacity="1.000000" stroke="none" 
	d="
M289.264709,138.714355 
	C280.707214,132.705505 271.740387,131.684860 262.376007,135.065475 
	C249.949326,139.551620 243.297134,152.239258 245.492020,166.683411 
	C248.610504,187.205399 268.939636,197.279526 287.455536,187.559601 
	C290.460419,185.982208 292.112762,183.946686 291.643005,180.456909 
	C291.532898,179.638748 291.630859,178.792999 291.627289,177.959976 
	C291.581177,167.216537 292.371063,168.301025 282.436584,168.390533 
	C280.874329,168.404617 278.981720,168.910080 278.356964,166.634644 
	C280.507507,164.931488 291.895203,164.033813 293.891754,165.369980 
	C295.201447,166.246490 295.207611,167.608826 295.218750,168.936844 
	C295.252197,172.935165 294.911591,176.968323 295.326569,180.923935 
	C295.876129,186.161942 293.373322,188.809692 288.931946,190.803329 
	C279.839539,194.884735 270.601105,195.571518 261.209503,192.408112 
	C249.616852,188.503296 243.258362,180.099396 241.828384,168.117905 
	C241.319473,163.853806 241.330185,159.406982 241.909729,155.153381 
	C245.540848,128.503128 275.548523,124.720634 290.633331,134.976624 
	C291.830750,135.790741 293.499664,136.620377 292.857574,138.433334 
	C292.217468,140.240707 290.796753,139.613403 289.264709,138.714355 
z"/>
<path fill="#000000" opacity="1.000000" stroke="none" 
	d="
M472.988098,177.086884 
	C478.865448,162.883118 484.576569,149.023132 490.341919,135.185745 
	C491.075714,133.424606 491.380402,130.942184 493.964722,130.994476 
	C496.528351,131.046356 496.736572,133.549103 497.469604,135.307739 
	C504.390289,151.910690 511.306854,168.515686 518.112732,185.165817 
	C519.076599,187.523880 520.790466,189.822845 519.939148,192.824600 
	C517.137817,193.579468 516.470093,191.460083 515.738464,189.728683 
	C513.923279,185.433197 512.168457,181.108353 510.541016,176.738846 
	C509.585175,174.172424 507.955505,173.216934 505.230804,173.261337 
	C497.733612,173.383545 490.231415,173.372787 482.734283,173.240387 
	C479.783661,173.188293 478.100647,174.396011 477.094971,177.095383 
	C475.525665,181.307495 473.816193,185.468781 472.096527,189.622803 
	C471.359222,191.403931 470.817047,193.539780 467.133209,193.121246 
	C468.149170,187.419022 470.867462,182.541351 472.988098,177.086884 
M504.917511,163.410416 
	C501.368225,154.698364 497.818939,145.986313 493.817078,136.163376 
	C489.597626,148.082550 484.098633,158.152283 480.853973,169.590881 
	C489.783722,169.590881 498.178528,169.590881 506.556061,169.590881 
	C507.085236,167.278748 505.571350,165.845810 504.917511,163.410416 
z"/>
<path fill="#000000" opacity="1.000000" stroke="none" 
	d="
M536.018066,145.010818 
	C536.026001,158.478531 536.155273,171.450653 535.970886,184.418304 
	C535.912354,188.534180 537.294678,190.044434 541.441101,189.889313 
	C548.249207,189.634628 555.074280,189.794510 561.891602,189.848724 
	C563.316772,189.860062 565.270447,189.636520 565.314697,191.758514 
	C565.358948,193.879425 563.372131,193.779846 561.970276,193.813446 
	C552.993835,194.028534 544.020386,193.964462 535.053101,193.369476 
	C531.576782,193.138824 531.792847,190.682129 531.788574,188.344803 
	C531.760620,172.880112 531.756104,157.415375 531.750183,141.950653 
	C531.749146,139.290314 531.732239,136.628601 531.811829,133.970184 
	C531.852356,132.614975 532.088623,131.111557 533.873230,131.140564 
	C535.640869,131.169281 535.874878,132.727661 535.917236,134.039856 
	C536.029846,137.528519 535.994568,141.021957 536.018066,145.010818 
z"/>
<path fill="#000000" opacity="1.000000" stroke="none" 
	d="
M317.466248,189.790894 
	C325.402283,189.817734 332.888641,189.782867 340.373810,189.860580 
	C341.893829,189.876358 344.268646,189.370956 344.158234,191.836090 
	C344.057526,194.085815 341.708435,193.759903 340.182495,193.764236 
	C331.548218,193.788818 322.913330,193.613449 314.279144,193.641586 
	C311.204712,193.651611 310.183746,192.158905 310.182159,189.341232 
	C310.172089,171.550919 310.117889,153.760666 310.092743,135.970367 
	C310.091339,134.976837 310.131348,133.967148 310.309631,132.993851 
	C310.495789,131.977402 310.985199,131.074371 312.225220,131.078354 
	C313.447845,131.082291 314.008453,131.919464 314.109314,132.978485 
	C314.250885,134.464844 314.265717,135.967026 314.266144,137.462463 
	C314.270691,153.099838 314.234894,168.737320 314.287048,184.374496 
	C314.294250,186.525620 313.424622,189.337646 317.466248,189.790894 
z"/>
</svg>