<?xml version="1.0" standalone="no"?>
<!DOCTYPE svg PUBLIC "-//W3C//DTD SVG 20010904//EN"
 "http://www.w3.org/TR/2001/REC-SVG-20010904/DTD/svg10.dtd">
<svg version="1.0" xmlns="http://www.w3.org/2000/svg"
 width="400.000000pt" height="142.000000pt" viewBox="0 0 400.000000 142.000000"
 preserveAspectRatio="xMidYMid meet">

<g transform="translate(0.000000,142.000000) scale(0.100000,-0.100000)"
fill="#000000" stroke="none">
<path d="M562 1345 c-82 -18 -193 -73 -265 -130 -52 -42 -147 -155 -147 -176
0 -9 53 -39 69 -39 5 0 13 9 16 20 14 43 139 155 216 192 93 46 152 60 255 60
251 0 482 -181 539 -423 8 -35 15 -70 15 -76 0 -10 -44 -13 -189 -13 l-189 0
-12 31 c-7 16 -29 42 -48 57 -30 23 -45 27 -102 27 -57 0 -72 -4 -102 -27 -19
-15 -41 -41 -48 -57 l-12 -31 -249 0 -249 0 0 -56 c0 -30 7 -87 16 -127 52
-233 223 -412 460 -483 72 -22 235 -25 314 -5 94 23 210 84 282 150 57 53 128
141 128 161 0 3 -16 14 -34 23 l-35 16 -36 -49 c-136 -185 -373 -271 -589
-215 -215 56 -388 248 -413 457 l-6 48 205 0 204 0 13 -35 c7 -19 29 -47 48
-62 31 -24 46 -28 102 -28 78 0 120 24 151 86 l20 39 231 0 232 0 -7 73 c-10
105 -23 152 -69 247 -32 69 -55 100 -121 166 -90 89 -144 123 -256 161 -94 32
-244 40 -338 18z m187 -546 c31 -11 61 -52 61 -84 0 -31 -30 -73 -60 -83 -111
-39 -169 124 -60 167 14 5 25 10 26 10 1 1 15 -4 33 -10z"/>
<path d="M1929 1227 c-45 -30 -71 -82 -65 -130 6 -50 20 -65 91 -97 76 -34 89
-50 81 -95 -13 -66 -96 -91 -157 -46 l-31 23 -22 -21 -21 -22 25 -19 c111 -86
270 -14 270 122 0 48 -25 77 -89 105 -70 31 -91 49 -91 80 0 60 80 92 140 56
24 -14 31 -14 44 -4 23 19 20 29 -16 51 -46 28 -115 26 -159 -3z"/>
<path d="M2230 1025 c-61 -125 -110 -229 -110 -231 0 -2 14 -4 31 -4 28 0 33
5 57 60 l27 61 94 -3 95 -3 7 -30 c4 -16 10 -42 13 -57 5 -23 12 -28 36 -28
18 0 30 5 30 13 -1 6 -24 109 -53 227 l-52 215 -33 3 -32 3 -110 -226z m160
45 c11 -52 20 -98 20 -102 0 -4 -34 -8 -75 -8 l-74 0 35 78 c20 42 43 93 51
112 9 19 17 31 19 25 2 -5 12 -53 24 -105z"/>
<path d="M2550 1230 c0 -11 -1 -23 -2 -27 -2 -4 25 -6 58 -4 34 1 64 -1 67 -6
2 -4 -6 -91 -19 -193 -13 -102 -23 -191 -23 -197 -1 -8 11 -13 29 -13 34 0 30
-15 61 229 11 91 22 168 25 173 4 5 34 8 68 7 60 -3 61 -2 64 24 l3 27 -165 0
c-159 0 -166 -1 -166 -20z"/>
<path d="M1634 1109 c-18 -5 -48 -27 -67 -48 -67 -74 -75 -187 -18 -245 28
-27 38 -31 85 -30 42 0 64 6 96 28 38 25 41 29 27 43 -14 14 -19 14 -50 -6
-67 -41 -137 -16 -137 49 0 22 5 30 18 30 35 0 137 31 155 48 48 43 40 104
-18 127 -38 17 -47 17 -91 4z m84 -71 c4 -31 -26 -51 -95 -63 -48 -8 -52 -1
-28 45 20 38 42 50 85 47 30 -2 35 -6 38 -29z"/>
<path d="M1675 618 c-103 -37 -158 -147 -135 -270 23 -119 112 -185 239 -176
36 3 83 14 104 24 l37 18 0 78 0 78 -57 -2 -58 -2 53 -3 52 -4 0 -68 0 -67
-36 -17 c-52 -25 -115 -31 -174 -17 -201 48 -201 372 -1 420 61 14 124 7 169
-20 37 -23 46 -25 36 -9 -24 40 -159 61 -229 37z"/>
<path d="M2052 403 l-2 -233 114 0 c66 0 117 4 121 10 4 6 -35 10 -109 10
l-116 0 -3 223 -2 222 -3 -232z"/>
<path d="M2432 609 c-79 -40 -117 -116 -110 -227 7 -123 71 -198 180 -209 95
-10 168 29 210 111 17 31 22 59 22 116 0 81 -20 134 -66 177 -59 55 -161 69
-236 32z m166 -4 c82 -35 122 -102 122 -205 0 -42 -7 -79 -19 -105 -65 -143
-270 -150 -343 -12 -18 33 -23 59 -23 117 0 110 39 176 122 206 51 18 96 17
141 -1z"/>
<path d="M2862 403 l3 -228 95 1 c114 1 154 17 177 71 27 66 -5 132 -74 149
l-24 6 30 19 c64 39 77 121 27 168 -30 28 -81 40 -169 41 l-67 0 2 -227z m219
178 c22 -23 29 -39 29 -68 -1 -73 -46 -103 -152 -103 l-78 0 0 100 0 100 86 0
c81 0 87 -1 115 -29z m-17 -195 c42 -18 66 -51 66 -94 0 -76 -42 -102 -165
-102 l-85 0 0 105 0 105 75 0 c42 0 90 -6 109 -14z"/>
<path d="M3300 405 c-51 -124 -90 -228 -88 -231 3 -3 19 28 36 68 l31 73 119
3 120 3 15 -38 c37 -92 48 -115 53 -110 7 6 -164 427 -181 445 -9 10 -31 -35
-105 -213z m154 71 c28 -69 49 -127 48 -131 -3 -10 -207 -8 -207 2 0 13 99
253 105 253 3 0 27 -56 54 -124z"/>
<path d="M3692 403 l-2 -233 114 0 c66 0 117 4 121 10 4 6 -35 10 -109 10
l-116 0 -3 223 -2 222 -3 -232z"/>
</g>
</svg>
