<?xml version="1.0" standalone="no"?>
<!DOCTYPE svg PUBLIC "-//W3C//DTD SVG 20010904//EN"
 "http://www.w3.org/TR/2001/REC-SVG-20010904/DTD/svg10.dtd">
<svg version="1.0" xmlns="http://www.w3.org/2000/svg"
 width="2700.000000pt" height="1414.000000pt" viewBox="0 0 2700.000000 1414.000000"
 preserveAspectRatio="xMidYMid meet">

<g transform="translate(0.000000,1414.000000) scale(0.100000,-0.100000)"
fill="#000000" stroke="none">
<path d="M12725 11844 c-134 -15 -337 -47 -380 -60 -28 -9 -60 -17 -73 -19
-22 -3 -132 -43 -202 -73 -283 -121 -530 -308 -690 -525 -33 -45 -64 -86 -68
-92 -20 -26 -83 -137 -117 -205 -53 -107 -126 -320 -139 -402 -3 -21 -10 -57
-15 -80 -36 -163 -43 -440 -16 -623 9 -60 18 -117 21 -126 2 -9 7 -33 9 -53
12 -90 91 -309 161 -444 146 -281 394 -539 657 -683 107 -59 237 -119 258
-119 10 0 20 -4 23 -8 3 -5 33 -16 68 -26 35 -9 77 -21 93 -26 56 -16 110 -29
145 -34 19 -2 71 -10 115 -18 105 -17 474 -17 580 0 44 8 94 15 110 18 67 9
215 49 302 80 132 48 375 167 393 193 3 4 32 26 65 48 243 164 465 461 577
768 39 108 68 200 72 232 2 15 14 82 25 148 30 167 30 452 0 622 -12 65 -22
127 -24 138 -1 11 -13 53 -25 94 -12 41 -23 81 -25 90 -5 21 -55 139 -94 221
-143 299 -386 553 -691 726 -58 32 -106 58 -108 56 -1 -1 -29 11 -62 28 -33
17 -60 28 -60 26 0 -3 -30 6 -67 20 -38 14 -76 28 -87 30 -10 2 -42 10 -70 18
-135 39 -525 74 -661 60z m415 -644 c47 -12 92 -23 100 -25 8 -2 56 -20 105
-42 186 -80 344 -209 460 -373 185 -264 259 -633 197 -981 -34 -190 -85 -317
-187 -469 -148 -221 -363 -372 -637 -446 -97 -27 -114 -28 -313 -29 -198 0
-216 2 -310 28 -55 15 -109 31 -120 37 -11 5 -47 21 -80 35 -158 68 -339 222
-438 373 -41 61 -80 130 -82 142 0 3 -7 16 -14 29 -30 53 -74 203 -92 311 -21
128 -25 318 -8 420 6 36 12 76 14 90 16 122 90 304 181 440 72 107 113 154
199 227 132 110 275 182 455 227 135 35 128 34 315 31 137 -2 186 -7 255 -25z"/>
<path d="M19870 11840 c-364 -47 -601 -171 -774 -405 -155 -210 -223 -494
-181 -760 55 -353 237 -552 678 -741 42 -18 77 -31 77 -29 0 2 21 -5 48 -16
26 -12 94 -36 152 -55 58 -19 114 -38 125 -44 11 -5 54 -25 95 -44 217 -98
325 -230 338 -414 16 -228 -124 -414 -366 -488 -62 -18 -270 -18 -337 0 -158
43 -285 111 -383 204 -62 58 -154 181 -167 221 -4 12 -10 21 -15 19 -4 -2
-104 -97 -223 -212 l-215 -209 41 -60 c124 -178 335 -355 557 -467 61 -31 231
-89 279 -95 22 -2 59 -9 83 -15 24 -6 111 -13 193 -16 125 -5 172 -3 280 15
72 12 162 32 200 44 62 19 282 121 295 136 3 3 32 26 65 51 189 140 317 343
383 605 24 99 27 128 27 285 0 160 -2 184 -28 279 -62 230 -180 408 -342 518
-115 77 -325 185 -387 198 -10 2 -32 11 -50 19 -39 18 -135 52 -198 71 -25 7
-67 22 -93 34 -27 12 -54 21 -60 21 -6 0 -57 23 -112 50 -114 57 -190 123
-226 197 -17 36 -23 64 -22 122 0 94 5 120 38 187 39 79 127 155 217 188 250
90 507 28 707 -172 46 -46 87 -80 91 -75 3 4 22 28 40 53 19 25 37 47 40 50 4
3 39 50 80 105 41 55 77 102 80 105 14 10 100 132 100 141 0 5 -10 17 -21 27
-12 9 -36 31 -53 47 -34 33 -51 45 -148 110 -150 99 -316 165 -503 199 -108
20 -315 28 -405 16z"/>
<path d="M9710 11762 c-7 -3 -10 -238 -10 -673 l0 -669 -735 0 -735 0 0 670 0
670 -340 0 -340 0 0 -1735 0 -1735 340 0 340 0 0 775 0 775 735 0 735 0 0
-775 0 -775 340 0 340 0 0 1735 0 1734 -330 3 c-182 2 -335 2 -340 0z"/>
<path d="M15351 10668 c0 -601 4 -1156 8 -1233 9 -143 31 -256 78 -400 121
-368 428 -643 853 -764 41 -11 91 -23 110 -26 19 -3 85 -12 145 -21 188 -28
479 -6 670 51 223 66 435 186 574 325 142 142 269 373 306 560 54 267 49 136
53 1423 l3 1177 -343 0 -343 0 0 -1173 0 -1172 -33 -100 c-54 -164 -138 -279
-269 -369 -180 -123 -459 -154 -677 -76 -158 57 -274 149 -350 280 -34 58 -82
182 -93 240 -4 19 -9 560 -10 1203 l-4 1167 -339 0 -340 0 1 -1092z"/>
<path d="M21720 10025 l0 -1735 970 0 970 0 0 295 0 295 -627 0 -628 -1 0 468
0 468 598 3 597 2 0 290 0 290 -597 2 -598 3 0 385 0 385 628 3 627 2 0 290 0
290 -970 0 -970 0 0 -1735z"/>
<path d="M4498 11668 c-40 -45 -84 -94 -98 -108 -14 -14 -67 -73 -119 -130
-52 -58 -117 -130 -145 -160 -28 -30 -96 -104 -150 -165 -55 -60 -143 -157
-196 -215 -53 -58 -116 -127 -139 -155 -24 -27 -48 -54 -54 -60 -7 -5 -75 -80
-152 -165 -77 -85 -160 -177 -186 -205 -25 -27 -117 -129 -204 -225 -88 -96
-162 -177 -165 -180 -34 -30 -118 -139 -112 -145 4 -5 2 -6 -4 -2 -5 3 -22 -7
-37 -23 l-27 -28 0 -1066 0 -1066 565 0 565 0 0 855 0 855 615 0 615 0 2
-1845 3 -1844 80 88 c44 48 170 186 280 306 110 120 274 300 364 399 90 100
211 231 268 292 56 61 112 122 123 136 20 26 20 40 20 1468 l1 1442 -180 227
c-99 124 -300 377 -446 561 -146 184 -275 343 -286 353 -22 20 -149 176 -214
261 -22 29 -57 72 -77 97 -35 42 -124 152 -140 174 -4 6 -27 33 -50 62 -24 28
-57 71 -75 95 -18 24 -42 54 -55 69 -13 14 -28 34 -35 45 -6 10 -16 18 -22 17
-6 -2 -10 3 -8 10 1 6 -4 11 -11 9 -8 -1 -11 2 -7 8 7 11 -11 40 -25 40 -5 0
-41 -37 -82 -82z"/>
<path d="M24943 11056 c-142 -35 -271 -135 -325 -253 -56 -125 -58 -144 -58
-783 0 -642 2 -669 60 -786 41 -83 128 -164 227 -212 72 -34 86 -37 184 -40
79 -3 122 0 165 13 73 20 184 86 224 132 34 38 81 110 84 127 1 6 7 20 13 31
27 48 33 191 33 738 0 539 -6 660 -31 723 -7 16 -13 35 -15 42 -1 7 -16 35
-34 62 -106 165 -332 253 -527 206z m157 -277 c65 -15 118 -53 141 -102 18
-40 19 -74 19 -655 0 -658 0 -652 -51 -702 -45 -43 -106 -63 -171 -56 -88 9
-135 39 -172 114 -15 29 -16 93 -14 655 l3 623 27 41 c30 45 93 80 168 92 3 0
25 -4 50 -10z"/>
<path d="M25822 10023 l3 -1028 140 0 140 0 3 443 2 442 255 0 255 0 0 129 0
129 -75 7 c-42 4 -156 5 -255 3 l-180 -5 0 317 c0 286 2 318 16 324 9 4 138 6
287 6 148 -1 272 2 276 5 3 4 6 61 6 128 l0 122 -438 3 -437 2 2 -1027z"/>
<path d="M1335 8219 c-77 -85 -189 -207 -250 -273 -60 -66 -128 -140 -150
-165 -22 -25 -114 -127 -205 -226 -270 -296 -336 -368 -365 -403 l-28 -34 7
-1556 7 -1557 850 -851 851 -851 46 51 c63 68 117 127 253 276 62 69 132 145
155 170 23 25 137 151 255 280 323 355 742 814 748 820 3 3 24 25 45 50 22 25
85 94 140 154 55 59 106 116 112 125 8 11 13 219 18 696 3 374 9 854 13 1068
l6 387 -566 0 -567 0 0 -850 0 -850 -605 0 c-333 0 -608 0 -612 0 -5 0 -10
831 -13 1846 l-5 1846 -140 -153z"/>
<path d="M15180 7417 c-3 -2 -32 -7 -65 -10 -270 -25 -566 -198 -714 -416 -75
-111 -156 -308 -166 -406 -21 -193 -10 -391 25 -485 12 -30 23 -62 25 -70 1
-9 20 -47 41 -85 39 -71 215 -265 240 -265 8 0 14 -4 14 -9 0 -12 145 -97 250
-145 84 -38 170 -71 385 -145 238 -83 357 -150 450 -253 57 -64 78 -105 95
-186 12 -58 10 -150 -5 -226 -10 -49 -76 -158 -126 -207 -74 -72 -191 -124
-314 -139 -302 -37 -598 105 -776 373 l-58 88 -221 -208 c-121 -114 -220 -214
-220 -221 0 -20 139 -189 216 -263 38 -36 106 -93 152 -127 107 -81 341 -200
423 -216 13 -2 60 -14 104 -25 104 -27 340 -37 495 -22 360 35 685 218 855
481 84 130 126 225 162 370 24 94 27 124 27 290 1 173 -1 192 -28 290 -106
393 -307 568 -896 783 -52 19 -113 40 -135 47 -22 7 -44 15 -50 19 -5 3 -18 7
-27 8 -34 5 -244 111 -270 135 -15 14 -30 28 -35 29 -15 7 -64 78 -83 121 -54
119 6 329 119 417 48 37 141 80 194 89 52 9 248 9 302 1 56 -9 141 -43 206
-82 75 -46 104 -72 200 -179 l25 -28 72 97 c39 54 83 112 96 128 14 17 62 79
106 139 l81 109 -33 34 c-137 144 -359 269 -593 334 -102 28 -126 31 -325 36
-118 3 -217 3 -220 0z"/>
<path d="M20640 7417 c-3 -3 -41 -7 -85 -10 -218 -15 -575 -133 -761 -252 -30
-19 -59 -35 -64 -35 -5 0 -13 -6 -17 -13 -4 -7 -35 -30 -67 -52 -88 -60 -240
-208 -318 -310 -37 -49 -72 -95 -77 -101 -25 -30 -103 -169 -138 -244 -54
-115 -114 -290 -128 -375 -3 -16 -15 -84 -27 -150 -28 -159 -30 -418 -4 -585
10 -63 20 -127 22 -142 6 -49 66 -250 96 -327 54 -136 157 -324 241 -436 97
-131 183 -220 292 -300 44 -33 82 -62 85 -65 11 -13 150 -90 220 -123 107 -50
214 -84 375 -118 131 -28 156 -30 380 -32 132 -1 272 -1 310 1 91 4 269 38
370 70 44 14 87 27 95 28 8 2 23 7 35 13 11 6 51 24 88 40 188 83 403 250 530
410 28 36 55 68 59 69 5 2 8 10 8 17 0 7 4 15 9 17 19 7 178 301 185 343 1 6
11 37 23 70 78 218 121 448 130 693 l6 182 -811 0 -812 0 0 -290 0 -290 33 0
c17 0 221 0 453 0 232 0 424 -3 427 -6 6 -6 -43 -151 -75 -219 -61 -130 -213
-306 -313 -362 -119 -67 -302 -137 -385 -148 -186 -24 -258 -27 -374 -16 -408
41 -720 259 -891 625 -91 194 -121 363 -112 636 5 141 10 182 36 283 47 179
88 272 184 419 96 147 220 254 393 341 267 134 631 164 904 74 70 -23 169 -65
180 -77 3 -3 35 -25 72 -49 100 -64 256 -238 290 -324 9 -22 30 -17 103 23 28
15 86 47 130 70 312 166 375 201 375 209 0 4 -19 37 -41 72 -117 182 -262 333
-444 466 -167 122 -471 243 -672 269 -62 8 -516 18 -523 11z"/>
<path d="M7550 5586 l0 -1766 584 0 c321 0 630 5 687 10 57 6 126 12 153 15
86 9 333 69 350 86 6 5 18 9 28 9 10 0 26 4 36 10 9 5 60 29 112 54 302 141
590 405 743 681 43 77 116 239 121 266 1 8 12 43 24 79 12 36 23 76 26 90 2
14 15 77 28 140 20 98 23 145 23 320 0 225 -16 338 -76 546 -100 341 -281 616
-560 847 -205 169 -552 314 -824 342 -33 4 -94 11 -135 17 -41 6 -355 12 -697
15 l-623 5 0 -1766z m1200 1149 c154 -19 283 -57 414 -121 145 -72 219 -132
350 -284 36 -41 107 -159 122 -203 8 -22 18 -45 23 -51 12 -15 70 -204 76
-246 28 -216 28 -307 -1 -500 -21 -141 -147 -425 -223 -501 -9 -9 -45 -47 -81
-85 -36 -37 -94 -88 -130 -112 -75 -52 -252 -139 -300 -147 -19 -3 -36 -8 -40
-10 -53 -32 -326 -65 -552 -65 l-168 0 0 1170 0 1170 198 0 c111 0 247 -6 312
-15z"/>
<path d="M11370 5585 l0 -1765 975 0 975 0 0 295 0 295 -635 0 -635 0 0 480 0
480 610 0 610 0 0 295 0 295 -610 0 -610 0 0 395 0 395 635 0 635 0 0 300 0
300 -975 0 -975 0 0 -1765z"/>
<path d="M17350 5585 l0 -1765 345 0 345 0 0 1765 0 1765 -345 0 -345 0 0
-1765z"/>
<path d="M23420 5585 l0 -1765 345 0 345 0 0 1173 0 1172 58 -60 c31 -33 153
-168 271 -300 118 -132 231 -256 251 -275 21 -19 117 -125 215 -235 97 -110
193 -216 213 -236 49 -49 168 -180 337 -369 76 -85 186 -207 245 -270 127
-138 200 -217 300 -330 75 -83 133 -146 211 -227 l41 -43 239 0 239 0 0 1765
0 1765 -345 0 -345 0 0 -1170 c0 -643 -4 -1170 -9 -1170 -4 0 -82 82 -171 183
-90 100 -175 194 -189 208 -54 54 -144 152 -361 394 -124 138 -228 251 -232
253 -4 2 -62 65 -129 140 -67 75 -137 153 -155 172 -18 19 -69 76 -114 127
-45 51 -85 93 -89 95 -3 2 -108 115 -231 253 -124 137 -241 265 -260 285 -20
19 -76 79 -124 133 l-88 97 -234 0 -234 0 0 -1765z"/>
<path d="M9048 2989 c-84 -13 -209 -84 -192 -110 4 -7 3 -9 -4 -5 -13 8 -45
-36 -73 -100 -27 -64 -24 -205 8 -275 56 -124 203 -209 343 -196 108 9 214 75
266 163 36 61 45 98 45 188 0 69 -4 88 -31 142 -67 136 -214 214 -362 193z
m162 -139 c71 -36 120 -123 120 -211 0 -164 -188 -273 -337 -195 -27 13 -110
86 -99 86 3 0 -2 16 -10 35 -47 113 21 256 143 301 48 18 131 10 183 -16z"/>
<path d="M11616 2989 c-140 -22 -241 -113 -281 -253 -23 -80 -16 -158 24 -240
104 -216 383 -261 557 -89 24 23 44 50 44 58 0 8 4 15 8 15 16 0 42 107 42
169 0 147 -89 275 -222 320 -70 24 -113 29 -172 20z m122 -122 c161 -58 210
-258 94 -379 -49 -52 -105 -71 -185 -66 -77 5 -132 36 -174 100 -25 37 -28 51
-28 123 0 72 3 86 27 122 63 95 170 135 266 100z"/>
<path d="M14951 2988 c-184 -27 -318 -221 -281 -405 35 -168 173 -283 341
-283 63 0 176 41 210 77 l27 28 -36 37 -35 37 -41 -24 c-63 -36 -103 -43 -166
-31 -106 22 -180 113 -180 224 0 183 172 288 334 203 l56 -30 35 37 35 37 -27
23 c-67 57 -174 84 -272 70z"/>
<path d="M16897 2989 c-80 -13 -139 -61 -158 -132 -27 -102 24 -178 166 -247
91 -45 107 -56 123 -87 21 -38 14 -69 -20 -98 -40 -34 -85 -30 -170 14 l-59
30 -26 -40 c-25 -37 -25 -40 -9 -58 23 -25 105 -60 160 -67 67 -10 129 3 180
38 52 34 75 70 81 128 10 99 -37 158 -179 226 -103 49 -136 80 -136 125 0 70
92 92 186 44 27 -14 52 -25 56 -25 4 0 19 17 32 37 24 34 24 38 9 55 -18 20
-102 53 -153 60 -19 2 -57 1 -83 -3z"/>
<path d="M23852 2989 c-77 -13 -143 -51 -201 -115 -62 -70 -84 -130 -83 -229
2 -141 67 -247 190 -307 59 -29 76 -33 152 -33 71 0 94 4 140 26 173 84 246
265 179 444 -25 67 -99 149 -165 183 -35 18 -59 24 -139 36 -11 2 -44 -1 -73
-5z m129 -123 c73 -26 141 -99 154 -165 8 -44 7 -88 -4 -114 -6 -16 -11 -32
-11 -38 0 -18 -74 -91 -111 -110 -46 -23 -144 -26 -192 -5 -18 7 -45 27 -61
44 -16 17 -34 28 -40 25 -6 -3 -8 -3 -4 2 4 4 -2 25 -12 46 -24 45 -27 134 -7
182 47 112 178 172 288 133z"/>
<path d="M25003 2993 c-9 -3 -12 -90 -13 -344 l0 -340 52 3 53 3 3 213 c1 116
6 212 10 212 5 0 21 -13 37 -30 15 -16 33 -27 38 -23 6 3 7 2 4 -4 -7 -10 4
-23 130 -161 48 -53 111 -121 138 -152 100 -111 95 -126 95 269 0 221 -4 341
-10 343 -6 2 -31 2 -55 0 l-45 -4 0 -205 c0 -171 -2 -204 -14 -201 -8 2 -85
78 -171 171 -88 94 -161 164 -167 161 -7 -4 -8 -2 -4 4 9 15 -65 92 -81 85z"/>
<path d="M26453 2989 c-59 -11 -98 -34 -130 -76 -24 -31 -28 -46 -28 -102 0
-100 35 -139 196 -217 80 -39 113 -76 105 -119 -7 -34 -36 -62 -74 -72 -29 -7
-112 19 -153 48 -14 9 -29 15 -35 11 -15 -11 -44 -60 -44 -74 0 -20 79 -64
138 -78 108 -25 201 3 260 79 27 36 32 51 32 97 0 98 -43 147 -195 219 -110
53 -136 84 -114 136 6 17 20 34 30 39 32 18 98 11 150 -16 28 -14 56 -23 63
-21 6 3 20 21 31 40 l19 36 -25 20 c-46 37 -159 63 -226 50z"/>
<path d="M18078 2975 c-51 -19 -130 -74 -122 -86 3 -5 0 -8 -7 -7 -17 4 -65
-67 -85 -126 -12 -35 -15 -71 -12 -130 3 -68 9 -91 38 -145 43 -80 108 -133
197 -161 82 -25 134 -25 215 0 103 32 184 113 221 222 30 90 3 254 -51 310 -9
9 -26 29 -37 43 -11 13 -25 25 -31 25 -6 0 -19 9 -29 20 -40 44 -215 65 -297
35z m219 -123 c142 -73 168 -264 50 -374 -60 -56 -140 -72 -231 -47 -35 10
-137 92 -134 108 1 3 -4 26 -11 51 -15 52 -11 99 14 155 10 22 17 45 16 50 -2
6 0 7 4 4 3 -4 18 4 33 18 69 65 172 79 259 35z"/>
<path d="M20376 2980 l-39 -5 2 -235 c1 -129 6 -251 11 -271 6 -20 30 -57 57
-85 107 -111 278 -112 385 -1 70 73 80 121 76 382 l-3 210 -57 3 -58 3 0 -209
c0 -115 -3 -224 -7 -242 -3 -19 -23 -50 -45 -72 -35 -35 -42 -38 -97 -38 -50
0 -65 4 -92 27 -55 46 -59 69 -59 312 0 245 4 232 -74 221z"/>
<path d="M22768 2982 l-48 -3 0 -335 0 -334 49 0 c28 0 53 5 56 10 9 15 7 652
-2 659 -5 3 -29 5 -55 3z"/>
<path d="M7562 2648 l3 -333 49 -3 c32 -2 52 1 57 10 5 7 9 68 9 136 l0 123
58 -3 57 -3 69 -132 69 -133 59 0 c40 0 58 4 58 13 0 6 -24 55 -52 107 -85
154 -84 153 -71 157 6 2 32 19 56 38 99 75 102 221 8 308 -44 41 -77 47 -264
47 l-167 0 2 -332z m334 213 c41 -25 60 -70 45 -112 -6 -17 -8 -36 -4 -43 3
-6 2 -8 -2 -3 -5 4 -17 -1 -28 -10 -15 -14 -41 -19 -123 -21 l-104 -4 0 106 0
106 93 0 c72 0 99 -4 123 -19z"/>
<path d="M10179 2963 c-1 -10 -1 -21 0 -25 0 -4 1 -147 1 -318 l1 -312 158 4
c155 3 158 3 206 33 55 34 85 83 85 138 0 48 -25 111 -41 101 -7 -4 -9 -3 -5
4 7 12 -39 52 -60 52 -22 0 -17 11 25 49 48 45 57 64 60 124 2 51 -13 84 -53
121 -43 39 -80 46 -231 46 -131 0 -145 -2 -146 -17z m264 -95 c34 -18 46 -39
47 -81 0 -27 -7 -45 -25 -62 -21 -22 -33 -25 -100 -25 l-75 0 0 90 0 90 66 0
c36 0 75 -5 87 -12z m23 -288 c38 -24 48 -48 40 -95 -11 -55 -43 -68 -158 -66
l-58 1 0 90 0 90 71 0 c55 0 79 -5 105 -20z"/>
<path d="M12660 2929 l0 -51 80 4 c60 2 81 0 85 -10 3 -8 5 -137 5 -288 l0
-275 58 3 57 3 3 283 2 282 80 0 80 0 0 50 0 50 -225 0 -225 0 0 -51z"/>
<path d="M13820 2645 l0 -335 49 0 c28 0 52 4 56 9 3 5 5 155 6 333 l0 323
-55 3 -56 3 0 -336z"/>
<path d="M19270 2645 l1 -335 189 0 c105 0 190 3 191 8 0 4 2 23 4 42 5 57 -3
60 -146 60 l-129 0 -1 263 c-1 144 -1 270 0 280 2 14 -6 17 -54 17 l-55 0 0
-335z"/>
<path d="M21562 2933 l3 -48 80 -5 80 -5 3 -283 2 -283 58 3 57 3 3 283 2 282
80 0 80 0 0 50 0 50 -226 0 -225 0 3 -47z"/>
</g>
</svg>
