<?xml version="1.0" standalone="no"?>
<!DOCTYPE svg PUBLIC "-//W3C//DTD SVG 20010904//EN"
 "http://www.w3.org/TR/2001/REC-SVG-20010904/DTD/svg10.dtd">
<svg version="1.0" xmlns="http://www.w3.org/2000/svg"
 width="2790.000000pt" height="602.000000pt" viewBox="0 0 2790.000000 602.000000"
 preserveAspectRatio="xMidYMid meet">

<g transform="translate(0.000000,602.000000) scale(0.100000,-0.100000)"
fill="#000000" stroke="none">
<path d="M11327 5039 c-77 -26 -122 -55 -180 -118 -156 -167 -153 -432 8 -600
92 -97 197 -136 344 -129 78 4 99 9 164 41 351 173 311 692 -62 807 -84 26
-196 26 -274 -1z"/>
<path d="M7740 3000 l0 -1990 1320 0 1320 0 0 375 0 375 -905 0 -905 0 0 1615
0 1615 -415 0 -415 0 0 -1990z"/>
<path d="M14215 3854 c-250 -34 -396 -98 -546 -242 -44 -41 -105 -113 -136
-159 l-58 -85 -3 216 -2 216 -395 0 -395 0 0 -1132 c0 -623 3 -1251 7 -1395
l6 -263 394 0 393 0 0 748 c0 817 3 866 58 1026 66 191 187 301 378 341 306
65 536 -63 623 -347 36 -119 41 -241 41 -1014 l0 -744 396 0 396 0 -5 873 c-5
941 -6 973 -61 1202 -55 226 -132 374 -265 505 -131 130 -272 199 -474 234
-88 16 -298 28 -352 20z"/>
<path d="M20220 3849 c-338 -35 -614 -162 -835 -383 -241 -242 -374 -545 -407
-929 -40 -460 108 -894 406 -1193 185 -184 390 -293 674 -357 86 -19 126 -22
352 -21 274 0 364 10 539 61 323 93 534 273 701 600 28 53 50 101 50 107 0 9
-524 228 -670 281 -11 4 -25 -14 -49 -61 -41 -79 -122 -170 -191 -214 -91 -59
-186 -82 -352 -88 -113 -3 -163 -1 -221 12 -90 20 -195 69 -263 124 -98 77
-180 235 -198 380 l-7 52 999 0 999 0 7 118 c20 351 -71 706 -249 971 -262
390 -749 594 -1285 540z m275 -664 c98 -21 205 -76 267 -137 60 -61 113 -166
126 -250 l9 -58 -559 0 c-471 0 -558 2 -558 14 0 8 9 43 20 78 54 174 207 313
390 352 86 19 218 19 305 1z"/>
<path d="M23925 3854 c-250 -34 -396 -98 -546 -242 -44 -41 -105 -113 -136
-159 l-58 -85 -3 216 -2 216 -395 0 -395 0 0 -1132 c0 -623 3 -1251 7 -1395
l6 -263 394 0 393 0 0 748 c0 610 3 765 15 846 28 184 95 331 189 412 151 133
449 164 628 67 61 -33 148 -124 181 -189 39 -77 65 -175 77 -285 6 -60 10
-402 10 -845 l0 -744 396 0 396 0 -5 873 c-5 941 -6 973 -61 1202 -55 226
-132 374 -265 505 -131 130 -272 199 -474 234 -88 16 -298 28 -352 20z"/>
<path d="M26595 3849 c-187 -19 -402 -90 -529 -174 -233 -155 -355 -375 -373
-675 -20 -338 145 -608 470 -771 130 -65 238 -97 562 -168 305 -67 364 -86
425 -138 76 -65 92 -155 44 -244 -30 -54 -76 -90 -155 -121 -74 -29 -272 -36
-379 -14 -193 41 -348 162 -435 341 -26 51 -28 54 -50 42 -95 -52 -505 -304
-505 -311 0 -19 83 -172 124 -230 126 -175 329 -317 546 -379 140 -40 232 -51
425 -51 286 1 467 38 670 139 181 89 298 201 375 361 67 136 83 214 84 404 1
147 -2 173 -22 240 -81 257 -268 430 -572 528 -107 35 -154 45 -465 102 -121
23 -241 48 -266 56 -166 53 -241 197 -174 331 44 87 130 135 273 153 155 20
314 -20 418 -105 50 -41 115 -135 140 -202 9 -27 20 -51 24 -56 4 -4 132 51
286 123 224 104 278 133 276 148 -10 48 -72 175 -124 253 -143 213 -374 354
-663 403 -117 20 -317 27 -430 15z"/>
<path d="M11080 2400 l0 -1390 395 0 395 0 0 1390 0 1390 -395 0 -395 0 0
-1390z"/>
<path d="M15983 3708 c30 -46 230 -352 446 -680 l392 -598 -43 -62 c-23 -35
-238 -349 -478 -698 -240 -349 -439 -641 -444 -647 -6 -10 82 -13 427 -13
l435 0 297 450 c164 248 300 449 302 446 3 -2 136 -204 297 -448 l293 -443
437 -3 438 -2 -20 27 c-11 16 -233 335 -495 710 l-475 682 460 658 c253 362
467 668 475 681 l15 22 -454 0 -455 0 -254 -415 c-140 -228 -257 -414 -261
-413 -5 2 -122 188 -262 413 l-254 410 -436 3 -436 2 53 -82z"/>
</g>
</svg>
