<?xml version="1.0" encoding="UTF-8" standalone="no"?>
<svg
   xmlns:dc="http://purl.org/dc/elements/1.1/"
   xmlns:cc="http://creativecommons.org/ns#"
   xmlns:rdf="http://www.w3.org/1999/02/22-rdf-syntax-ns#"
   xmlns:svg="http://www.w3.org/2000/svg"
   xmlns="http://www.w3.org/2000/svg"
   version="1.1"
   id="svg4164"
   viewBox="0 0 427.87074 56.727624"
   height="16.009796mm"
   width="120.75463mm">
  <defs
     id="defs4166">
    <clipPath
       id="clipPath30"
       clipPathUnits="userSpaceOnUse">
      <path
         id="path32"
         d="m 96,684.102 199.259,0 0,26.419 -199.259,0 0,-26.419 z" />
    </clipPath>
  </defs>
  <metadata
     id="metadata4169">
    <rdf:RDF>
      <cc:Work
         rdf:about="">
        <dc:format>image/svg+xml</dc:format>
        <dc:type
           rdf:resource="http://purl.org/dc/dcmitype/StillImage" />
        <dc:title></dc:title>
      </cc:Work>
    </rdf:RDF>
  </metadata>
  <g
     transform="translate(-161.17741,-315.00294)"
     id="layer1">
    <g
       clip-path="url(#clipPath30)"
       id="g28"
       transform="matrix(2.1473095,0,0,-2.1473095,-44.964304,1840.7095)">
      <g
         transform="translate(101.9339,684.1021)"
         id="g34">
        <path
           id="path36"
           style="fill:#ffffff;fill-opacity:1;fill-rule:nonzero;stroke:none"
           d="m 0,0 c -3.277,0 -5.934,2.657 -5.934,5.936 l 0,14.546 c 0,3.278 2.657,5.936 5.934,5.936 l 187.389,0 c 3.278,0 5.937,-2.658 5.937,-5.936 l 0,-14.546 C 193.326,2.657 190.667,0 187.389,0 L 0,0 Z" />
      </g>
      <g
         transform="translate(288.5489,708.7487)"
         id="g38">
        <path
           id="path40"
           style="fill:#ef2c30;fill-opacity:1;fill-rule:nonzero;stroke:none"
           d="m 0,0 -185.859,0 c -2.731,0 -4.946,-2.216 -4.946,-4.949 l 0,-12.964 c 0,-2.734 2.215,-4.949 4.946,-4.949 l 127.395,0 0.054,2.87 -127.35,0 c -1.093,0 -1.978,0.886 -1.978,1.98 l 0,13.163 c 0,1.092 0.885,1.979 1.978,1.979 l 185.661,0 c 1.094,0 1.979,-0.887 1.979,-1.979 l 0,-13.163 c 0,-1.094 -0.885,-1.98 -1.979,-1.98 l -58.557,0 c -0.027,-2.009 -0.644,-2.37 -1.539,-2.87 l 60.195,0 c 2.733,0 4.948,2.215 4.948,4.949 l 0,12.964 C 4.948,-2.216 2.733,0 0,0" />
      </g>
      <g
         transform="translate(103.7092,690.8653)"
         id="g42">
        <path
           id="path44"
           style="fill:#231f20;fill-opacity:1;fill-rule:nonzero;stroke:none"
           d="m 0,0 0,3.479 0,5.913 c 0,1.16 -0.232,2.26 0.925,2.942 0.877,0.517 2.048,0.606 3.001,0.255 0.493,-0.183 1.139,-0.589 1.28,-1.141 0,-0.001 1.635,-6.404 1.635,-6.404 0,0 1.728,6.357 1.728,6.358 0.133,0.491 0.641,0.897 1.073,1.112 0.888,0.443 2.029,0.44 2.924,0.019 0.42,-0.197 0.844,-0.506 1.003,-0.951 0.243,-0.676 0.114,-1.38 0.114,-2.079 l 0,-5.948 0,-3.509 -3.341,0 0,7.578 L 8.569,0.899 C 8.177,-0.254 5.643,-0.346 5.09,0.899 L 3.271,7.578 3.271,0.046 0,0 Z" />
      </g>
      <g
         transform="translate(120.7088,690.8886)"
         id="g46">
        <path
           id="path48"
           style="fill:#231f20;fill-opacity:1;fill-rule:nonzero;stroke:none"
           d="m 0,0 c -1.244,0.115 -2.234,0.967 -2.396,2.165 l 0,7.256 3.179,0 0,-5.805 C 0.737,2.948 1.52,2.648 1.566,2.648 L 3.064,2.603 c 0.345,0.16 0.852,0.46 0.852,1.013 l 0,5.805 3.155,0 0,-7.21 C 6.933,0.967 5.897,0.115 4.837,0 L 0,0 Z" />
      </g>
      <g
         transform="translate(149.1333,690.8886)"
         id="g50">
        <path
           id="path52"
           style="fill:#231f20;fill-opacity:1;fill-rule:nonzero;stroke:none"
           d="m 0,0 c -1.382,0 -2.419,0.99 -2.672,2.188 l 0.046,5.044 c 0.138,1.314 1.198,2.189 2.534,2.189 l 3.801,0 c 1.405,0 2.326,-0.829 2.488,-2.12 l 0,-3.363 -5.252,0 0,1.751 2.465,0 -0.047,0.668 c 0,0.369 -0.184,0.737 -0.645,0.829 L 0.852,7.14 C 0.553,7.048 0.3,6.772 0.3,6.426 l 0,-2.995 C 0.346,3.063 0.553,2.902 0.899,2.763 l 5.298,0 0,-2.809 L 0,0 Z" />
      </g>
      <g
         transform="translate(131.3044,690.8886)"
         id="g54">
        <path
           id="path56"
           style="fill:#231f20;fill-opacity:1;fill-rule:nonzero;stroke:none"
           d="m 0,0 c -1.382,0 -2.419,0.99 -2.672,2.188 l 0.046,5.044 c 0.161,1.314 1.198,2.189 2.534,2.189 l 3.824,0 c 1.382,0 2.326,-0.829 2.465,-2.12 l 0,-3.363 -5.252,0 0,1.751 2.487,0 -0.046,0.668 c 0,0.369 -0.207,0.737 -0.645,0.829 L 0.853,7.14 C 0.553,7.048 0.3,6.772 0.3,6.426 l 0,-2.995 C 0.346,3.063 0.461,2.902 0.899,2.763 l 5.298,0 0,-2.809 L 0,0 Z" />
      </g>
      <g
         transform="translate(138.4918,690.7965)"
         id="g58">
        <path
           id="path60"
           style="fill:#231f20;fill-opacity:1;fill-rule:nonzero;stroke:none"
           d="m 0,0 0,12.599 3.086,0 0,-12.553 L 0,0 Z" />
      </g>
      <g
         transform="translate(142.4535,690.7965)"
         id="g62">
        <path
           id="path64"
           style="fill:#231f20;fill-opacity:1;fill-rule:nonzero;stroke:none"
           d="m 0,0 0,12.599 3.017,0 0,-12.553 L 0,0 Z" />
      </g>
      <g
         transform="translate(156.0671,690.8424)"
         id="g66">
        <path
           id="path68"
           style="fill:#231f20;fill-opacity:1;fill-rule:nonzero;stroke:none"
           d="m 0,0 0,7.233 c 0.046,1.197 1.128,2.188 2.28,2.28 l 2.81,0 0,-2.949 -1.128,0 C 3.755,6.564 3.501,6.496 3.455,5.873 l 0,-5.804 L 0,0 Z" />
      </g>
      <g
         transform="translate(185.9175,699.8685)"
         id="g70">
        <path
           id="path72"
           style="fill:#231f20;fill-opacity:1;fill-rule:evenodd;stroke:none"
           d="m 0,0 c 1.298,-0.3 2.097,-1.073 2.047,-2.521 l 0,-4.543 C 1.972,-8.287 1.074,-8.96 -0.025,-9.035 l -4.443,0 c -0.999,0.05 -1.623,0.275 -1.946,1.397 l 0,2.645 c 0.099,0.974 0.724,1.573 1.747,1.748 l 3.269,0 0,-2.272 -1.522,0 c -0.225,0 -0.4,-0.025 -0.45,-0.249 l 0,-0.674 c 0.101,-0.249 0.3,-0.224 0.525,-0.249 l 1.597,0 c 0.3,0.025 0.424,0.174 0.424,0.448 l 0,2.746 c -0.075,0.599 -0.498,0.849 -1.098,0.849 L -5.565,-2.621 -5.565,0 0,0 Z" />
      </g>
      <g
         transform="translate(251.9655,690.8886)"
         id="g74">
        <path
           id="path76"
           style="fill:#231f20;fill-opacity:1;fill-rule:nonzero;stroke:none"
           d="m 0,0 c -1.221,0.115 -2.234,0.967 -2.372,2.165 l 0,7.256 3.179,0 0,-5.805 C 0.761,2.948 1.544,2.648 1.59,2.648 L 3.087,2.603 c 0.346,0.16 0.829,0.46 0.829,1.013 l 0,5.805 3.179,0 0,-7.21 C 6.957,0.967 5.898,0.115 4.861,0 L 0,0 Z" />
      </g>
      <g
         transform="translate(234.4791,697.476)"
         id="g78">
        <path
           id="path80"
           style="fill:#231f20;fill-opacity:1;fill-rule:nonzero;stroke:none"
           d="m 0,0 c -0.415,0 -0.738,-0.346 -0.738,-0.76 l 0,-2.027 c 0,-0.415 0.323,-0.76 0.738,-0.76 l 1.589,0 c 0.415,0 0.737,0.345 0.737,0.76 l 0,2.027 C 2.326,-0.346 2.004,0 1.589,0 L 0,0 Z m -1.382,2.833 4.03,0 c 1.314,0 2.397,-1.105 2.397,-2.464 l 0,-4.515 c 0,-1.359 -1.083,-2.488 -2.397,-2.488 l -4.03,0 c -1.337,0 -2.396,1.129 -2.396,2.488 l 0,4.515 c 0,1.359 1.059,2.464 2.396,2.464" />
      </g>
      <g
         transform="translate(219.5961,701.6896)"
         id="g82">
        <path
           id="path84"
           style="fill:#231f20;fill-opacity:1;fill-rule:nonzero;stroke:none"
           d="m 0,0 c -0.378,0 -0.711,-0.311 -0.711,-0.733 l 0,-1.932 c 0,-0.4 0.333,-0.711 0.711,-0.711 l 1.532,0 c 0.399,0 0.733,0.311 0.733,0.711 l 0,1.932 C 2.265,-0.311 1.931,0 1.532,0 L 0,0 Z m -1.333,2.71 3.886,0 c 1.289,0 2.311,-1.066 2.311,-2.355 l 0,-4.308 c 0,-1.311 -1.022,-2.377 -2.311,-2.377 l -3.886,0 c -1.266,0 -2.31,1.066 -2.31,2.377 l 0,4.308 c 0,1.289 1.044,2.355 2.31,2.355" />
      </g>
      <g
         transform="translate(225.0781,690.7965)"
         id="g86">
        <path
           id="path88"
           style="fill:#231f20;fill-opacity:1;fill-rule:nonzero;stroke:none"
           d="m 0,0 0,7.186 c 0.047,1.175 1.129,2.166 2.28,2.258 l 2.788,0 0,-2.926 -1.129,0 C 3.755,6.518 3.501,6.449 3.455,5.85 l 0,-5.804 L 0,0 Z" />
      </g>
      <path
         id="path90"
         style="fill:#231f20;fill-opacity:1;fill-rule:nonzero;stroke:none"
         d="m 215.953,701.734 2.909,0 0,-10.771 -2.909,0 0,10.771 z" />
      <g
         transform="translate(248.8716,703.1503)"
         id="g92">
        <path
           id="path94"
           style="fill:#231f20;fill-opacity:1;fill-rule:evenodd;stroke:none"
           d="m 0,0 0,-10.235 c -0.077,-1.273 -1.013,-1.974 -2.155,-2.051 l -4.625,0 c -1.039,0.051 -1.688,0.285 -2.027,1.453 l 0,6.157 c 0.105,1.014 0.754,1.637 1.819,1.819 l 3.404,0 0,-2.65 -1.429,0 c -0.416,0 -0.572,-0.13 -0.623,-0.494 l 0,-3.013 c 0.129,-0.364 0.286,-0.519 0.7,-0.519 l 1.507,0 c 0.312,0.025 0.441,0.181 0.441,0.467 L -2.988,0 0,0 Z" />
      </g>
      <g
         transform="translate(261.8922,690.9285)"
         id="g96">
        <path
           id="path98"
           style="fill:#231f20;fill-opacity:1;fill-rule:nonzero;stroke:none"
           d="m 0,0 c -1.221,0.023 -2.004,0.967 -2.072,2.028 l 0,5.208 c 0.068,1.245 0.851,2.005 2.118,2.051 l 5.621,0 0,-2.604 -4.447,0 C 0.876,6.66 0.737,6.384 0.737,6.084 l 0,-2.628 C 0.783,3.111 0.945,2.926 1.29,2.88 l 4.377,0 0,-2.857 L 0,0 Z" />
      </g>
      <g
         transform="translate(287.3735,696.5276)"
         id="g100">
        <path
           id="path102"
           style="fill:#231f20;fill-opacity:1;fill-rule:nonzero;stroke:none"
           d="m 0,0 0,-3.224 -0.003,0 0,-0.285 c -0.256,-1.313 -1.238,-2.17 -2.621,-2.17 l -6.196,0.008 0,2.757 5.298,0 c 0.438,0.138 0.553,0.3 0.599,0.669 l 0,0.492 -0.048,0.015 -5.849,0 0,3.364 c 0.138,1.291 1.083,2.121 2.465,2.121 l 6.36,0 L 0.003,1.474 -5.365,1.473 C -5.803,1.381 -6.01,1.05 -6.01,0.682 l 0,-0.666 L 0,0 Z" />
      </g>
      <path
         id="path104"
         style="fill:#231f20;fill-opacity:1;fill-rule:nonzero;stroke:none"
         d="m 271.206,703.47 3.225,0 0,-12.646 -3.225,0 0,12.646 z" />
      <path
         id="path106"
         style="fill:#231f20;fill-opacity:1;fill-rule:nonzero;stroke:none"
         d="m 268.181,700.111 9.67,0 0,-2.594 -9.67,0 0,2.594 z" />
      <g
         transform="translate(178.9766,703.5615)"
         id="g108">
        <path
           id="path110"
           style="fill:#231f20;fill-opacity:1;fill-rule:nonzero;stroke:none"
           d="m 0,0 0,-3.479 0,-5.913 c 0,-1.16 0.232,-2.26 -0.925,-2.942 -0.877,-0.517 -2.049,-0.606 -3.001,-0.254 -0.492,0.181 -1.139,0.588 -1.28,1.14 0,0 -1.636,6.403 -1.636,6.403 0,0 -1.727,-6.357 -1.727,-6.357 -0.133,-0.49 -0.642,-0.896 -1.074,-1.112 -0.887,-0.442 -2.028,-0.44 -2.922,-0.019 -0.421,0.197 -0.846,0.506 -1.004,0.95 -0.243,0.677 -0.114,1.38 -0.114,2.08 l 0,5.947 0,3.51 3.341,0 0,-7.579 1.773,4.316 c 0.392,1.151 2.925,1.243 3.478,0 l 1.82,-4.269 0,7.532 L 0,0 Z" />
      </g>
      <path
         id="path112"
         style="fill:#231f20;fill-opacity:1;fill-rule:nonzero;stroke:none"
         d="m 191.307,703.417 3.225,0 0,-12.646 -3.225,0 0,12.646 z" />
      <path
         id="path114"
         style="fill:#231f20;fill-opacity:1;fill-rule:nonzero;stroke:none"
         d="m 188.282,700.378 9.67,0 0,-2.394 -9.67,0 0,2.394 z" />
      <g
         transform="translate(200.8938,690.7038)"
         id="g116">
        <path
           id="path118"
           style="fill:#231f20;fill-opacity:1;fill-rule:nonzero;stroke:none"
           d="m 0,0 c -1.382,0 -2.419,0.99 -2.672,2.188 l 0.046,5.044 c 0.138,1.314 1.198,2.189 2.534,2.189 l 3.801,0 c 1.405,0 2.326,-0.829 2.487,-2.119 l 0,-3.363 -5.251,0 0,1.751 2.464,0 -0.046,0.668 c 0,0.368 -0.184,0.736 -0.645,0.829 L 0.852,7.141 C 0.553,7.049 0.299,6.772 0.299,6.427 l 0,-2.995 C 0.346,3.063 0.553,2.902 0.898,2.764 l 5.298,0 0,-2.81 L 0,0 Z" />
      </g>
      <g
         transform="translate(207.8268,690.6576)"
         id="g120">
        <path
           id="path122"
           style="fill:#231f20;fill-opacity:1;fill-rule:nonzero;stroke:none"
           d="m 0,0 0,7.233 c 0.047,1.198 1.129,2.188 2.281,2.28 l 2.81,0 0,-2.948 -1.129,0 c -0.207,0 -0.46,-0.069 -0.506,-0.691 l 0,-5.805 L 0,0 Z" />
      </g>
    </g>
  </g>
</svg>
