<svg version="1.1" id="Layer_1" xmlns:x="ns_extend;" xmlns:i="ns_ai;" xmlns:graph="ns_graphs;" xmlns="http://www.w3.org/2000/svg" xmlns:xlink="http://www.w3.org/1999/xlink" x="0px" y="0px" viewBox="0 0 415.5 191.5" style="enable-background:new 0 0 415.5 191.5;" xml:space="preserve">
 <style type="text/css">
  .st0{fill:#288DC1;}
	.st1{fill:#696057;}
 </style>
 <metadata>
  <sfw xmlns="ns_sfw;">
   <slices>
   </slices>
   <sliceSourceBounds bottomLeftOrigin="true" height="191.5" width="415.5" x="5.2" y="6.2">
   </sliceSourceBounds>
  </sfw>
 </metadata>
 <g>
  <path id="XMLID_277_" class="st0" d="M312.1,50.7l-58.8-38.4l-58.7,38.5c-2,1.3-4.6,0.7-5.9-1.2l-1.5-2.3c-1.3-2-0.7-4.6,1.2-5.9
		l61.8-40.5c1.9-1.2,4.3-1.2,6.2,0l61.9,40.4c2,1.3,2.5,3.9,1.2,5.9l-1.5,2.3C316.7,51.5,314.1,52,312.1,50.7">
  </path>
  <path id="XMLID_1_" class="st1" d="M371.7,17.6h-2.5c-2.8,0-5.1,2.3-5.1,5.1v115c0,2.8,2.3,5.1,5.1,5.1h2.5c2.8,0,5.1-2.3,5.1-5.1
		V22.8C376.8,19.9,374.5,17.6,371.7,17.6z">
  </path>
  <path id="XMLID_2_" class="st1" d="M410.4,0.4h-2.5c-2.8,0-5.1,2.3-5.1,5.1v132.2c0,2.8,2.3,5.1,5.1,5.1h2.5c2.8,0,5.1-2.3,5.1-5.1
		V5.6C415.5,2.7,413.2,0.4,410.4,0.4z">
  </path>
  <path id="XMLID_3_" class="st1" d="M117.9,65.9c-10.5,0-19.6,4-26.2,11.4c-6.2,7-9.6,16.6-9.6,26.9v1.3c0.1,10.3,3.6,19.7,9.8,26.5
		c6.5,7.2,15.5,11.1,26,11.1c11.2,0,19.8-4.1,25.3-7.1c1.2-0.7,2.1-1.8,2.4-3.2c0.3-1.4,0-2.8-0.8-4l-1.1-1.5
		c-1.4-2-4.1-2.6-6.2-1.5c-0.5,0.3-1,0.5-1.5,0.8c-4,2.1-8.9,4.8-16.7,4.8c-15.5,0-24.1-12.5-24.1-21.2l-0.1-0.7
		c0-0.6,0.2-1.1,0.6-1.5s0.8-0.5,1.3-0.5h50.2c1.8,0,3.2-1.4,3.4-3.2c0.2-1.3,0.4-3.7,0.4-4.9c0-9.3-3.3-17.8-9.3-23.9
		C135.6,69.3,127.1,65.9,117.9,65.9L117.9,65.9z M137.6,96.5c-0.3,0.3-0.7,0.5-1.2,0.5H96.9c-0.5,0-0.9-0.2-1.2-0.6
		s-0.4-0.8-0.3-1.3c2.1-10.5,11.4-17.9,22.5-17.9c4.9,0,9.7,1.9,13.4,5.4c3.6,3.3,6,7.8,6.7,12.6C138,95.7,137.9,96.1,137.6,96.5z">
  </path>
  <path id="XMLID_6_" class="st1" d="M311.2,65.9c-10.5,0-19.6,4-26.2,11.4c-6.2,7-9.6,16.6-9.6,26.9v1.3c0.1,10.3,3.6,19.7,9.8,26.5
		c6.5,7.2,15.5,11.1,26,11.1c11.2,0,19.8-4.1,25.3-7.1c1.2-0.7,2.1-1.8,2.4-3.2s0-2.8-0.8-4l-1.1-1.5c-1.4-2-4.1-2.6-6.2-1.5
		c-0.5,0.3-1,0.5-1.5,0.8c-4,2.1-8.9,4.8-16.7,4.8c-15.5,0-24.1-12.5-24.1-21.2l-0.1-0.7c0-0.6,0.2-1.1,0.6-1.5s0.8-0.6,1.3-0.6
		h50.2c1.8,0,3.2-1.4,3.4-3.2c0.2-1.3,0.4-3.7,0.4-4.9c0-9.3-3.3-17.8-9.3-23.9C328.8,69.3,320.4,65.9,311.2,65.9L311.2,65.9z
		 M288.7,95.2c2.2-10.5,11.4-17.9,22.5-17.9c4.9,0,9.7,1.9,13.4,5.4c3.6,3.3,6,7.8,6.7,12.6c0.1,0.4-0.1,0.9-0.4,1.2
		c-0.3,0.3-0.7,0.5-1.2,0.5h-39.5c-0.5,0-0.9-0.2-1.2-0.6C288.7,96.1,288.6,95.6,288.7,95.2z">
  </path>
  <path id="XMLID_9_" class="st1" d="M260.3,66h-2.9c-2.1,0-3.9,1.4-4.5,3.4l-13.5,48.8l-20.1-48.8c-0.7-1.7-2.4-2.9-4.3-2.9h-2.9
		c-1.9,0-3.6,1.1-4.3,2.9l-20.1,48.8l-13.5-48.7c-0.6-2-2.4-3.4-4.5-3.4h-2.9c-1.5,0-2.8,0.7-3.7,1.8c-0.9,1.2-1.2,2.6-0.8,4
		l18.7,67.6c0.6,2,2.4,3.4,4.5,3.4h1.7c1.9,0,3.6-1.1,4.3-2.9l22-53.5l22,53.4c0.7,1.7,2.4,2.9,4.3,2.9h1.7c2.1,0,3.9-1.4,4.5-3.4
		l18.7-67.6c0.4-1.4,0.1-2.9-0.8-4C263.1,66.7,261.7,66,260.3,66z">
  </path>
  <path id="XMLID_10_" class="st1" d="M30.5,66c-10.1,0-18.4,2.5-25.2,5C2.2,72,0,74.9,0,78v59.9c0,2.8,2.3,5,5,5h2.6
		c2.8,0,5-2.3,5-5V83.3c0-1.1,0.7-2.1,1.7-2.5c2.8-1.2,8.7-3.1,16-3.1c6.3,0,12.1,1.9,16.3,5.4s6.5,8.4,6.5,13.8v40.9
		c0,2.8,2.3,5,5,5h2.6c2.8,0,5-2.3,5-5V96.9C65.9,78.8,51.4,66,30.5,66z">
  </path>
  <g id="XMLID_11_">
   <path id="XMLID_12_" class="st0" d="M186.9,165.9h-8.4c-0.5,0-0.9,0.3-1,0.8l-5.5,23.6c-0.1,0.2,0,0.4,0.1,0.6s0.3,0.3,0.6,0.3
			h8.8c4.8,0,9-2.9,9.9-7c0.8-3.5-1.8-5.2-3.2-5.8c1.3-0.6,4.3-2.5,5-5.6c0.4-1.7,0.1-3.3-0.9-4.5
			C191.3,166.7,189.3,165.9,186.9,165.9L186.9,165.9z M180.9,169.5h5c1.1,0,2,0.3,2.5,1c0.5,0.6,0.6,1.5,0.4,2.5
			c-0.5,2.2-2.4,3.7-4.6,3.7h-4.9L180.9,169.5z M187.1,183.8c-0.5,2.2-2.6,3.8-4.8,3.8h-5.6l1.7-7.4h5c1.3,0,2.5,0.5,3.2,1.3
			C187.1,182.2,187.3,183,187.1,183.8L187.1,183.8z">
   </path>
   <path id="XMLID_16_" class="st0" d="M214.8,165.9h-10.2c-0.5,0-0.9,0.3-1,0.8l-5.5,23.6c-0.1,0.2,0,0.4,0.1,0.6s0.3,0.3,0.6,0.3
			h2.4c0.4,0,0.9-0.4,1-0.8l2.1-9h5.5l2.8,9.4c0.1,0.2,0.3,0.4,0.6,0.4h2.9c0.4,0,0.7-0.2,0.9-0.4s0.2-0.5,0.1-0.8l-3-8.9
			c3.7-1.3,6.5-4.1,7.2-7.3c0.5-2,0.1-3.9-1.1-5.4C219.1,166.8,217.1,165.9,214.8,165.9L214.8,165.9z M217.2,173.7
			c-0.5,2.3-3.1,4.3-5.5,4.3h-6.5l1.9-8.4h6.6c1.2,0,2.2,0.5,2.9,1.3S217.5,172.7,217.2,173.7L217.2,173.7z">
   </path>
   <path id="XMLID_19_" class="st0" d="M241.7,166c-0.1-0.3-0.4-0.5-0.7-0.5h-0.4c-0.2,0-0.6,0.2-0.8,0.4l-17.1,24
			c-0.2,0.3-0.2,0.6-0.1,0.8c0.1,0.2,0.3,0.3,0.7,0.3h2.4c0.5,0,0.9-0.3,1.1-0.6c0.6-0.8,1.2-1.7,1.8-2.5c0.5-0.8,1.1-1.5,1.6-2.3
			h12.1l1.2,4.8c0.1,0.4,0.4,0.6,0.9,0.6h2.4c0.3,0,0.6-0.1,0.8-0.4c0.2-0.2,0.2-0.5,0.2-0.7L241.7,166L241.7,166z M241.5,182.4h-9
			l6.7-9.5L241.5,182.4z">
   </path>
   <path id="XMLID_22_" class="st0" d="M279.9,165.9h-2.4c-0.4,0-0.9,0.3-1,0.8l-3.8,16.6l-12-17.7v-0.1h-1c-0.4,0-0.9,0.3-1,0.7
			l-5.5,24c0,0.2,0,0.4,0.1,0.6s0.3,0.3,0.6,0.3h2.4c0.5,0,0.9-0.3,1-0.8l4-17.1l12,18.3h1c0.5,0,0.9-0.3,1-0.7l5.5-24
			c0-0.2,0-0.4-0.1-0.6C280.3,166,280.1,165.9,279.9,165.9L279.9,165.9z">
   </path>
   <path id="XMLID_23_" class="st0" d="M299.8,165.9h-8.6c-0.4,0-0.9,0.4-1,0.8l-5.5,23.6c-0.1,0.2,0,0.4,0.1,0.6s0.3,0.2,0.5,0.2
			h8.6c7.3,0,14.6-5.7,16.2-12.6c0.8-3.3,0.1-6.4-1.8-8.8C306.5,167.3,303.4,165.9,299.8,165.9L299.8,165.9z M305.8,178.5
			c-1.2,5.2-6.1,9-11.5,9h-4.8l4.1-17.9h4.9c2.7,0,4.9,0.9,6.2,2.6C306,173.8,306.4,176,305.8,178.5L305.8,178.5z">
   </path>
   <path id="XMLID_26_" class="st0" d="M335.4,168.2c0-0.2-0.1-0.4-0.3-0.5c-0.6-0.5-3-2.1-6.5-2.1c-6.1,0-9.3,4-9.9,6.7
			c-1,4.3,1.9,6.3,5.2,7.7c3.6,1.6,4.9,2.9,4.5,4.8s-2.5,3.2-4.9,3.2c-2.7,0-4.9-2-5.4-2.4c-0.4-0.4-1-0.2-1.5,0.3l-0.7,0.7
			c0,0-0.4,0.5-0.6,0.7c-0.6,0.7-0.3,1,0,1.3c0.4,0.5,2.8,2.9,7.5,2.9c4.8,0,9.2-2.9,10.1-6.8c1.1-4.6-2.7-6.6-6.3-8.1
			c-3-1.3-4.1-2.5-3.7-4.4c0.2-1.1,1.6-3.1,4.9-3.1c0.9,0,2.4,0.3,4.5,1.7l0.1,0.1c0.5,0.3,1.1,0.2,1.6-0.4c0.2-0.2,0.4-0.4,0.5-0.6
			c0.2-0.3,0.5-0.5,0.7-0.8C335.4,168.7,335.4,168.4,335.4,168.2L335.4,168.2z">
   </path>
  </g>
 </g>
</svg>