<?xml version="1.0" standalone="no"?>
<!DOCTYPE svg PUBLIC "-//W3C//DTD SVG 20010904//EN"
 "http://www.w3.org/TR/2001/REC-SVG-20010904/DTD/svg10.dtd">
<svg version="1.0" xmlns="http://www.w3.org/2000/svg"
 width="350.000000pt" height="139.000000pt" viewBox="0 0 350.000000 139.000000"
 preserveAspectRatio="xMidYMid meet">

<g transform="translate(0.000000,139.000000) scale(0.100000,-0.100000)"
fill="#000000" stroke="none">
<path d="M10 988 c0 -374 1 -395 21 -438 37 -83 113 -142 198 -156 l41 -7 0
497 0 496 -130 0 -130 0 0 -392z"/>
<path d="M320 885 l0 -495 130 0 130 0 0 495 0 495 -130 0 -130 0 0 -495z"/>
<path d="M630 885 l0 -495 131 0 130 0 -3 403 c-3 390 -4 403 -25 442 -41 76
-137 144 -205 145 l-28 0 0 -495z"/>
<path d="M1095 1356 c-58 -27 -99 -65 -129 -121 -20 -39 -21 -53 -24 -442 l-3
-403 131 0 130 0 0 495 0 495 -27 0 c-16 0 -50 -11 -78 -24z"/>
<path d="M1250 885 l0 -495 130 0 130 0 0 495 0 495 -130 0 -130 0 0 -495z"/>
<path d="M1560 885 c0 -559 -8 -510 82 -479 58 19 122 74 151 128 21 40 22 50
22 351 0 299 -1 311 -22 351 -41 76 -137 144 -204 144 l-29 0 0 -495z"/>
<path d="M1900 1270 c0 -135 10 -161 74 -185 54 -21 104 -9 136 32 17 22 20
41 20 144 l0 119 -45 0 -44 0 -3 -107 c-3 -93 -5 -108 -20 -111 -15 -3 -18 9
-20 105 l-3 108 -47 3 -48 3 0 -111z"/>
<path d="M2255 1368 c-48 -26 -55 -46 -55 -175 l0 -123 45 0 45 0 0 109 c0
109 5 125 38 114 8 -3 12 -35 12 -114 l0 -109 45 0 45 0 0 121 c0 66 -5 129
-10 140 -23 42 -117 64 -165 37z"/>
<path d="M2500 1225 l0 -156 48 3 47 3 0 150 0 150 -47 3 -48 3 0 -156z"/>
<path d="M2735 1366 c-16 -8 -43 -28 -60 -45 -26 -28 -30 -40 -30 -86 0 -57
18 -91 67 -128 31 -23 115 -34 156 -19 16 6 35 6 44 1 23 -13 52 26 56 75 8
96 6 116 -14 143 -48 64 -147 91 -219 59z m131 -92 c20 -19 24 -31 20 -52 -15
-63 -97 -84 -135 -36 -28 36 -26 68 5 93 36 29 79 27 110 -5z"/>
<path d="M3037 1373 c-2 -5 -3 -56 -3 -115 1 -92 4 -110 22 -135 47 -63 156
-63 194 0 17 27 20 51 20 145 l0 113 -47 -3 -48 -3 -3 -108 c-2 -96 -5 -108
-20 -105 -15 3 -17 18 -20 111 l-3 107 -44 0 c-24 0 -46 -3 -48 -7z"/>
<path d="M3340 1360 c-23 -23 -28 -98 -8 -118 10 -10 10 -17 0 -32 -6 -11 -12
-37 -12 -59 0 -57 33 -81 111 -81 l59 0 0 39 0 40 -52 3 c-45 3 -53 6 -53 23
0 17 8 20 53 23 48 3 52 5 52 28 0 23 -3 24 -56 24 -52 0 -55 1 -52 23 3 19
10 22 56 25 l52 3 0 40 0 39 -65 0 c-52 0 -69 -4 -85 -20z"/>
<path d="M1941 1004 l-31 -26 0 -124 0 -124 45 0 44 0 3 106 c2 87 6 109 20
117 12 8 21 7 32 -2 13 -11 16 -35 16 -117 l0 -104 40 0 40 0 0 105 c0 88 3
105 17 114 11 6 24 6 35 0 16 -8 18 -24 18 -114 l0 -105 45 0 45 0 0 121 c0
120 0 121 -29 150 -34 34 -92 39 -142 14 -27 -14 -32 -14 -51 0 -37 25 -111
20 -147 -11z"/>
<path d="M2370 880 l0 -150 45 0 45 0 0 150 0 150 -45 0 -45 0 0 -150z"/>
<path d="M2592 1010 c-69 -42 -94 -139 -52 -207 25 -42 87 -73 145 -73 45 0
45 0 45 35 0 34 -1 35 -40 35 -53 0 -90 34 -90 83 0 47 34 77 88 77 41 0 42 1
42 35 l0 35 -52 0 c-35 0 -64 -7 -86 -20z"/>
<path d="M2820 880 l0 -150 45 0 45 0 0 109 c0 66 4 112 10 116 13 8 60 -21
60 -36 0 -5 -11 -21 -25 -35 -14 -14 -25 -34 -25 -46 0 -11 11 -29 25 -40 14
-11 25 -30 25 -44 0 -22 4 -24 46 -24 l47 0 -7 33 c-3 17 -14 43 -24 57 -18
24 -18 26 0 55 28 46 23 88 -13 124 -30 30 -33 31 -120 31 l-89 0 0 -150z"/>
<path d="M3235 1016 c-41 -18 -85 -71 -86 -104 -3 -78 13 -114 69 -152 48 -34
146 -35 189 -4 99 74 96 201 -6 254 -46 23 -121 26 -166 6z m135 -86 c43 -43
7 -120 -57 -120 -36 0 -86 54 -78 82 16 56 95 78 135 38z"/>
<path d="M1914 687 c-2 -7 -3 -74 -2 -148 l3 -134 43 -3 42 -3 0 110 0 111 30
0 c35 0 80 -38 80 -67 0 -33 -29 -63 -61 -63 -28 0 -29 -2 -29 -46 l0 -47 40
6 c78 10 130 68 130 145 0 53 -20 93 -63 126 -30 23 -43 26 -121 26 -62 0 -88
-4 -92 -13z"/>
<path d="M2281 674 c-25 -31 -27 -71 -6 -101 13 -19 13 -24 0 -50 -19 -36 -19
-57 0 -93 17 -32 53 -44 120 -38 38 3 40 5 43 41 l3 37 -48 0 c-51 0 -75 13
-66 36 3 10 22 14 59 14 51 0 54 1 54 25 0 24 -3 25 -54 25 -35 0 -56 5 -59
13 -9 27 6 37 59 37 l54 0 0 40 0 40 -69 0 c-63 0 -71 -2 -90 -26z"/>
<path d="M2570 671 c-35 -35 -40 -80 -13 -135 13 -29 14 -38 3 -51 -7 -8 -19
-15 -27 -15 -10 0 -13 -10 -11 -37 3 -35 6 -38 35 -41 44 -4 91 22 110 63 16
33 16 37 -5 88 -27 65 -27 65 4 77 21 8 25 15 22 42 -3 31 -6 33 -46 36 -36 3
-47 -1 -72 -27z"/>
<path d="M2762 548 l3 -153 45 0 45 0 3 153 3 152 -51 0 -51 0 3 -152z"/>
<path d="M3022 683 c-79 -38 -110 -126 -74 -207 27 -61 83 -88 170 -84 l57 3
0 65 0 65 -37 3 c-36 3 -38 2 -38 -27 0 -26 -4 -31 -24 -31 -30 0 -66 43 -66
77 0 13 11 35 25 48 20 21 34 25 80 25 l55 0 0 34 c0 26 -5 35 -22 40 -40 10
-92 6 -126 -11z"/>
<path d="M3290 672 c-33 -34 -43 -81 -38 -197 l3 -80 43 -3 42 -3 0 104 c0 81
3 107 15 117 12 10 18 10 30 0 12 -10 15 -36 15 -117 l0 -104 43 3 42 3 0 123
0 124 -33 29 c-27 24 -41 29 -83 29 -42 0 -55 -5 -79 -28z"/>
<path d="M2676 289 c-3 -8 -15 -56 -26 -108 -18 -85 -19 -114 -5 -99 9 8 47
209 41 215 -3 3 -8 0 -10 -8z"/>
<path d="M286 282 c-3 -5 -12 -44 -21 -88 -9 -43 -18 -87 -21 -96 -5 -16 2
-18 48 -17 49 2 50 2 15 8 -44 7 -42 5 -33 54 7 35 9 37 46 37 22 0 40 5 40
10 0 6 -16 10 -35 10 -28 0 -35 4 -35 19 0 40 11 51 51 51 21 0 39 5 39 10 0
12 -87 14 -94 2z"/>
<path d="M750 280 c0 -5 5 -10 10 -10 6 0 10 5 10 10 0 6 -4 10 -10 10 -5 0
-10 -4 -10 -10z"/>
<path d="M1410 280 c0 -5 5 -10 10 -10 6 0 10 5 10 10 0 6 -4 10 -10 10 -5 0
-10 -4 -10 -10z"/>
<path d="M1887 280 c-8 -25 -37 -169 -37 -187 0 -10 3 -13 8 -7 12 13 45 179
39 196 -4 10 -6 10 -10 -2z"/>
<path d="M2115 280 c-4 -6 5 -10 19 -10 31 0 32 -10 11 -95 -17 -69 -18 -95
-7 -95 5 0 17 43 27 95 17 94 18 95 46 95 16 0 29 5 29 10 0 6 -26 10 -59 10
-33 0 -63 -4 -66 -10z"/>
<path d="M2355 266 c-30 -30 -24 -57 21 -91 38 -29 42 -46 17 -70 -11 -12 -26
-15 -50 -12 -18 3 -33 2 -33 -4 0 -5 20 -9 43 -9 80 0 103 59 41 106 -27 21
-34 33 -32 53 3 23 9 27 48 31 33 4 40 7 27 13 -32 13 -57 8 -82 -17z"/>
<path d="M3015 280 c-3 -5 1 -10 9 -10 9 0 16 5 16 10 0 6 -4 10 -9 10 -6 0
-13 -4 -16 -10z"/>
<path d="M2903 243 c-12 -12 -16 -24 -10 -26 7 -2 7 -19 0 -57 -13 -66 -9 -80
26 -79 l26 0 -24 10 c-17 7 -22 15 -18 32 3 12 9 39 12 60 6 28 12 37 29 38
16 1 17 2 4 6 -9 2 -18 12 -20 21 -3 15 -6 14 -25 -5z"/>
<path d="M464 226 c-12 -10 -23 -11 -31 -5 -8 7 -16 -9 -27 -60 -19 -81 -19
-81 -8 -81 5 0 14 24 21 54 13 58 39 90 68 84 20 -4 22 -25 9 -97 -5 -28 -5
-41 2 -37 5 3 13 23 17 43 3 21 9 47 11 59 3 12 -2 28 -11 38 -20 20 -26 20
-51 2z"/>
<path d="M600 222 c-19 -15 -24 -30 -26 -79 l-3 -60 29 -1 c36 -1 50 -9 50
-28 0 -20 -44 -38 -75 -30 -23 6 -26 11 -20 34 6 26 6 26 -12 9 -27 -26 -6
-51 45 -55 31 -2 46 2 61 17 12 12 21 25 21 30 0 17 -31 41 -54 41 -12 0 -26
3 -29 7 -12 11 14 33 39 33 28 0 57 39 48 64 -4 11 -1 16 12 16 26 0 14 7 -27
14 -27 5 -42 2 -59 -12z m56 -16 c9 -24 -15 -58 -39 -54 -25 3 -34 32 -17 53
16 19 49 19 56 1z"/>
<path d="M861 224 c-19 -14 -25 -14 -32 -3 -6 11 -9 11 -13 -1 -9 -25 -25
-104 -26 -123 0 -32 17 -9 24 31 12 79 86 129 86 59 0 -17 -4 -48 -10 -66 -5
-19 -7 -37 -4 -40 20 -20 44 120 24 144 -16 19 -20 19 -49 -1z"/>
<path d="M995 216 c-28 -29 -41 -86 -26 -115 9 -15 21 -21 46 -21 18 0 37 5
40 10 4 7 -2 9 -19 4 -30 -7 -56 10 -56 36 0 13 11 19 40 24 31 5 44 13 52 32
11 22 9 28 -7 40 -27 20 -42 17 -70 -10z m61 -7 c8 -13 -13 -34 -43 -44 -17
-4 -23 -2 -23 9 0 33 50 60 66 35z"/>
<path d="M1139 211 c-22 -22 -29 -39 -29 -68 0 -22 5 -44 12 -51 15 -15 75
-16 84 -1 4 8 0 9 -15 4 -32 -10 -61 3 -61 29 0 18 8 24 43 32 36 8 42 13 45
38 6 52 -35 61 -79 17z m66 -11 c0 -18 -54 -45 -66 -33 -5 5 -2 18 7 31 18 26
59 27 59 2z"/>
<path d="M1322 224 c-12 -8 -22 -10 -22 -5 0 6 -4 11 -9 11 -5 0 -14 -24 -21
-52 -6 -29 -13 -63 -16 -75 -4 -13 -2 -23 4 -23 6 0 14 17 18 38 10 56 31 91
59 98 14 3 25 10 25 15 0 13 -13 11 -38 -7z"/>
<path d="M1523 230 c-33 -13 -28 -21 9 -13 l31 6 -6 -49 c-4 -27 -9 -59 -13
-71 -4 -13 -2 -23 4 -23 11 0 32 75 32 112 0 22 -17 49 -29 47 -4 0 -16 -4
-28 -9z"/>
<path d="M1651 224 c-20 -14 -22 -23 -18 -55 3 -22 1 -42 -4 -45 -5 -3 -9 -13
-9 -24 0 -10 -7 -20 -15 -24 -20 -7 -19 -52 1 -60 29 -11 83 -6 98 10 34 33 9
74 -44 74 -35 0 -21 34 15 38 34 4 55 26 55 58 0 12 6 25 13 27 6 3 3 6 -8 6
-11 1 -29 4 -40 7 -11 2 -31 -3 -44 -12z m59 -27 c0 -42 -50 -66 -64 -31 -9
24 12 54 39 54 19 0 25 -5 25 -23z m-13 -135 c14 -34 -62 -57 -88 -26 -11 14
-10 19 8 34 25 20 71 16 80 -8z"/>
<path d="M1973 228 c-39 -19 -59 -101 -33 -133 14 -17 53 -20 80 -5 18 10 40
59 40 90 0 40 -48 67 -87 48z m57 -23 c8 -9 10 -28 6 -49 -14 -74 -86 -89 -86
-18 0 65 48 105 80 67z"/>
<path d="M2524 229 c-12 -4 -29 -18 -38 -31 -19 -26 -21 -89 -4 -106 18 -18
66 -14 88 8 57 57 22 155 -46 129z m44 -21 c25 -25 5 -102 -30 -114 -27 -8
-48 13 -48 50 0 58 46 96 78 64z"/>
<path d="M3098 224 c-39 -21 -57 -84 -34 -119 21 -32 67 -34 96 -3 11 12 20
27 20 32 0 6 3 21 6 33 4 15 -2 29 -20 47 -29 30 -32 30 -68 10z m62 -24 c20
-38 -13 -110 -51 -110 -25 0 -42 36 -34 68 14 57 64 82 85 42z"/>
<path d="M3288 224 c-21 -11 -28 -11 -28 -2 0 7 -3 8 -8 3 -9 -10 -32 -105
-32 -131 0 -30 18 -3 25 36 8 47 39 90 65 90 26 0 28 -16 15 -82 -7 -32 -9
-58 -5 -58 12 0 19 25 27 87 4 42 3 57 -8 64 -18 11 -19 11 -51 -7z"/>
<path d="M3418 229 c-28 -16 -22 -51 14 -80 28 -24 31 -29 18 -44 -9 -11 -24
-15 -42 -13 -15 3 -28 1 -28 -4 0 -4 17 -8 38 -8 67 0 82 39 30 81 -40 33 -34
64 12 57 32 -5 41 6 14 16 -22 8 -36 7 -56 -5z"/>
<path d="M735 208 c-27 -123 -28 -128 -17 -128 5 0 14 26 21 58 7 31 15 65 17
75 3 9 1 17 -5 17 -6 0 -13 -10 -16 -22z"/>
<path d="M1396 218 c-21 -74 -29 -158 -13 -137 10 12 33 149 26 149 -6 0 -11
-6 -13 -12z"/>
<path d="M1458 155 c-8 -41 -12 -75 -8 -75 10 0 20 26 20 48 0 9 7 30 15 45
14 26 11 57 -5 57 -4 0 -14 -34 -22 -75z"/>
<path d="M2722 171 c-7 -32 -9 -66 -6 -75 7 -19 54 -22 72 -4 10 10 15 10 21
-1 6 -9 12 3 20 40 7 30 14 64 17 76 4 13 2 23 -4 23 -5 0 -13 -17 -17 -37
-10 -53 -31 -90 -56 -98 -34 -11 -42 7 -30 65 13 61 14 70 3 70 -4 0 -13 -26
-20 -59z"/>
<path d="M2988 155 c-8 -41 -11 -75 -7 -75 5 0 11 12 15 28 3 15 10 43 15 62
11 43 11 60 1 60 -4 0 -15 -34 -24 -75z"/>
<path d="M15 99 c-10 -15 3 -25 16 -12 7 7 7 13 1 17 -6 3 -14 1 -17 -5z"/>
<path d="M87 103 c-12 -11 -8 -23 8 -23 8 0 15 7 15 15 0 16 -12 20 -23 8z"/>
<path d="M166 103 c-11 -11 -6 -23 9 -23 8 0 15 4 15 9 0 13 -16 22 -24 14z"/>
</g>
</svg>
