<?xml version="1.0" standalone="no"?>
<!DOCTYPE svg PUBLIC "-//W3C//DTD SVG 20010904//EN"
 "http://www.w3.org/TR/2001/REC-SVG-20010904/DTD/svg10.dtd">
<svg version="1.0" xmlns="http://www.w3.org/2000/svg"
 width="600.000000pt" height="200.000000pt" viewBox="0 0 600.000000 200.000000"
 preserveAspectRatio="xMidYMid meet">

<g transform="translate(0.000000,200.000000) scale(0.100000,-0.100000)"
fill="#000000" stroke="none">
<path d="M754 1946 c-3 -7 -4 -106 -2 -220 2 -113 1 -206 -2 -206 -3 0 -87 82
-187 182 l-182 182 -57 -38 -57 -38 177 -177 176 -176 0 -385 0 -385 135 -135
135 -135 0 95 0 94 -65 66 -66 66 0 320 0 319 163 3 162 3 -64 64 -64 65 -76
0 -75 1 40 21 c88 45 129 110 129 203 0 96 -44 163 -134 204 -53 24 -79 26
-86 7z"/>
<path d="M134 1656 l-38 -57 127 -127 127 -127 0 -93 c0 -50 -1 -92 -3 -92 -2
0 -69 66 -150 147 -80 81 -149 145 -152 141 -4 -4 -12 -41 -18 -83 l-10 -76
229 -233 c126 -128 231 -234 234 -234 3 -1 4 130 2 290 l-3 293 -153 154 -154
154 -38 -57z"/>
<path d="M2037 1421 c-26 -48 -47 -91 -47 -95 0 -3 79 -6 175 -6 96 0 175 -3
175 -7 0 -3 -90 -180 -200 -393 -110 -213 -200 -390 -200 -393 0 -4 141 -7
313 -7 l312 0 48 93 c26 50 48 95 47 100 0 4 -79 7 -175 7 -96 0 -175 2 -175
5 0 2 90 177 200 389 110 211 200 387 200 390 0 3 -141 6 -313 6 l-313 0 -47
-89z"/>
<path d="M2800 1015 l0 -495 280 0 280 0 0 100 0 100 -165 0 -165 0 0 100 0
100 165 0 165 0 0 95 0 95 -162 2 -163 3 0 100 0 100 163 3 162 2 0 95 0 95
-280 0 -280 0 0 -495z"/>
<path d="M3480 1016 l0 -496 213 0 c246 0 324 10 387 48 125 77 142 301 31
395 -17 14 -47 31 -67 37 l-36 12 39 18 c140 62 166 287 47 405 -59 59 -101
68 -371 73 l-243 4 0 -496z m390 296 c60 -30 77 -98 40 -159 -22 -37 -75 -56
-148 -51 l-47 3 -3 113 -3 112 63 0 c40 0 76 -6 98 -18z m-8 -392 c53 -15 78
-51 78 -112 0 -66 -38 -108 -99 -109 -23 0 -60 -1 -83 -1 l-43 -1 -3 103 c-1
57 0 110 2 117 6 16 94 18 148 3z"/>
<path d="M4280 1016 l0 -497 118 3 117 3 5 183 5 184 104 -186 105 -186 138 0
c76 0 138 4 138 9 0 4 -47 86 -104 182 l-104 174 49 28 c97 55 145 160 137
298 -8 139 -70 226 -193 271 -53 19 -85 22 -287 26 l-228 4 0 -496z m408 274
c58 -35 77 -115 44 -179 -24 -48 -73 -71 -149 -71 l-63 0 0 135 0 135 68 0
c50 0 76 -5 100 -20z"/>
<path d="M5181 1021 c-89 -269 -161 -492 -161 -495 0 -3 56 -6 124 -6 l124 0
32 100 31 100 158 0 158 0 32 -100 32 -101 127 3 c107 3 126 5 123 18 -2 8
-74 230 -159 493 l-157 477 -151 0 -152 0 -161 -489z m360 41 l45 -147 -94 -3
c-52 -1 -96 -1 -98 0 -5 5 91 306 96 301 3 -2 26 -71 51 -151z"/>
<path d="M890 1047 l0 -328 67 3 67 3 1 252 c0 139 2 253 5 253 3 0 34 -28 68
-63 l62 -63 0 -192 0 -192 70 0 c68 0 70 -1 70 -25 0 -14 7 -42 16 -63 76
-184 356 -172 413 17 19 66 16 74 -78 160 l-89 81 -66 0 -66 0 0 -85 0 -85
-65 0 -65 0 0 122 0 122 -67 68 -67 68 92 0 c50 0 92 2 92 4 0 2 -30 34 -67
70 l-68 66 -95 0 -94 0 -68 67 -68 67 0 -327z"/>
<path d="M20 1000 l0 -95 435 -435 435 -435 0 95 0 95 -435 435 -435 435 0
-95z"/>
</g>
</svg>
