<?xml version="1.0" encoding="UTF-8" standalone="no"?>
<svg
   xmlns:dc="http://purl.org/dc/elements/1.1/"
   xmlns:cc="http://creativecommons.org/ns#"
   xmlns:rdf="http://www.w3.org/1999/02/22-rdf-syntax-ns#"
   xmlns:svg="http://www.w3.org/2000/svg"
   xmlns="http://www.w3.org/2000/svg"
   viewBox="0 0 755.90533 755.90668"
   height="755.90668"
   width="755.90533"
   xml:space="preserve"
   id="svg2"
   version="1.1"><metadata
     id="metadata8"><rdf:RDF><cc:Work
         rdf:about=""><dc:format>image/svg+xml</dc:format><dc:type
           rdf:resource="http://purl.org/dc/dcmitype/StillImage" /></cc:Work></rdf:RDF></metadata><defs
     id="defs6"><clipPath
       id="clipPath22"
       clipPathUnits="userSpaceOnUse"><path
         id="path20"
         d="M 0,566.93 H 566.929 V 0 H 0 Z" /></clipPath></defs><g
     transform="matrix(1.3333333,0,0,-1.3333333,0,755.90667)"
     id="g10"><g
       transform="translate(176.7651,281.7051)"
       id="g12"><path
         id="path14"
         style="fill:#030304;fill-opacity:1;fill-rule:nonzero;stroke:none"
         d="M 0,0 -8.36,8.58 V -15.4 H 0 Z" /></g><g
       id="g16"><g
         clip-path="url(#clipPath22)"
         id="g18"><g
           transform="translate(142.8843,307.4443)"
           id="g24"><path
             id="path26"
             style="fill:#030304;fill-opacity:1;fill-rule:nonzero;stroke:none"
             d="m 0,0 h 20.68 l -8.36,8.36 h -11 C 8.36,9.021 14.081,14.959 14.081,22.22 14.081,29.921 7.921,36.3 0,36.3 V 8.36 l -23.32,23.099 c -1.32,-0.659 -2.419,-1.319 -3.519,-1.979 -1.32,-0.88 -2.42,-1.76 -3.74,-2.639 l 22,-22.001 V -43.339 L 8.36,-60.28 v 12.099 l -8.579,8.58 z" /></g><g
           transform="translate(151.2446,307.4443)"
           id="g28"><path
             id="path30"
             style="fill:#030304;fill-opacity:1;fill-rule:nonzero;stroke:none"
             d="M 0,0 V -41.14 H 8.581 V -8.58 Z" /></g><g
           transform="translate(180.5049,290.2852)"
           id="g32"><path
             id="path34"
             style="fill:#030304;fill-opacity:1;fill-rule:nonzero;stroke:none"
             d="m 0,0 -8.58,8.58 h -12.1 L -12.1,0 Z" /></g><g
           transform="translate(125.7251,272.2441)"
           id="g36"><path
             id="path38"
             style="fill:#030304;fill-opacity:1;fill-rule:nonzero;stroke:none"
             d="M 0,0 V 36.52 L -19.581,56.1 c -1.76,-2.199 -3.519,-4.619 -4.838,-7.259 L -8.58,33 V 20.901 l -19.14,19.14 C -28.6,36.74 -29.04,33.221 -29.26,29.481 -29.04,29.481 -0.879,0.881 0,0" /></g><g
           transform="translate(96.9053,289.624)"
           id="g40"><path
             id="path42"
             style="fill:#030304;fill-opacity:1;fill-rule:nonzero;stroke:none"
             d="M 0,0 V -12.1 L 54.339,-66.438 V -54.56 Z" /></g><g
           transform="translate(193.9248,276.8652)"
           id="g44"><path
             id="path46"
             style="fill:#030304;fill-opacity:1;fill-rule:nonzero;stroke:none"
             d="m 0,0 h -8.579 v -10.779 h -8.581 c 0,-7.701 6.38,-14.081 14.081,-14.081 7.7,0 14.079,6.38 14.079,14.081 z" /></g><g
           transform="translate(263.6655,266.0859)"
           id="g48"><path
             id="path50"
             style="fill:#030304;fill-opacity:1;fill-rule:nonzero;stroke:none"
             d="m 0,0 -6.82,-12.102 h -39.821 l 25.741,49.5 H -43.781 L -37.4,49.5 H 2.42 L -23.32,0 Z" /></g><g
           transform="translate(286.3247,290.9443)"
           id="g52"><path
             id="path54"
             style="fill:#030304;fill-opacity:1;fill-rule:nonzero;stroke:none"
             d="M 0,0 H 20.239 V -12.101 H 0 V -24.858 H 20.239 V -36.96 H -15.18 V 24.641 H 20.239 V 12.54 L 0,12.54 Z" /></g><g
           transform="translate(334.5054,315.5854)"
           id="g56"><path
             id="path58"
             style="fill:#030304;fill-opacity:1;fill-rule:nonzero;stroke:none"
             d="m 0,0 c 7.92,0 12.32,-0.881 15.84,-2.86 4.18,-2.64 6.82,-7.921 6.82,-13.861 0,-4.4 -1.32,-7.92 -4.18,-10.779 -1.759,-1.76 -3.08,-2.641 -6.38,-3.521 3.74,-0.879 5.5,-1.76 7.48,-3.521 2.859,-2.639 4.18,-6.159 4.18,-10.78 0,-5.72 -2.42,-10.779 -6.381,-13.42 -3.078,-1.978 -6.82,-2.859 -12.979,-2.859 h -25.3 v 61.82 z m -6.16,-25.521 h 3.74 c 6.82,0 9.68,2.2 9.68,7.261 0,5.059 -2.86,7.04 -9.901,7.04 H -6.16 Z m 0,-25.521 h 5.5 c 6.381,0 9.019,2.201 9.019,7.042 0,2.859 -1.099,5.059 -3.3,6.379 -1.758,0.879 -3.079,1.1 -7.7,1.1 H -6.16 Z" /></g><g
           transform="translate(379.3843,253.9844)"
           id="g60"><path
             id="path62"
             style="fill:#030304;fill-opacity:1;fill-rule:nonzero;stroke:none"
             d="M 0,0 H -14.959 V 61.82 H 5.062 c 8.139,0 14.079,-1.54 18.258,-4.619 4.182,-3.301 6.602,-8.801 6.602,-15.62 0,-9.46 -3.959,-15.622 -11.881,-18.7 L 31.682,0.221 H 13.641 l -13.42,23.98 z m 4.842,32.341 c 6.158,0 9.898,3.079 9.898,8.579 0,5.061 -3.519,8.58 -8.799,8.58 H 0.221 V 32.341 Z" /></g><g
           transform="translate(450.4468,315.5854)"
           id="g64"><path
             id="path66"
             style="fill:#030304;fill-opacity:1;fill-rule:nonzero;stroke:none"
             d="m 0,0 h -19.141 l -20.461,-61.822 h 15.84 l 3.741,12.102 H 0 l 3.738,-12.102 h 16.28 z m -16.062,-37.621 6.162,20.02 6.158,-20.02 z" /></g></g></g></g></svg>